<svg width="523" height="390" viewBox="0 0 523 390" fill="none" xmlns="http://www.w3.org/2000/svg">
<g clip-path="url(#clip0_300_22)">
<path d="M122.752 323.134C122.323 323.134 121.894 323.061 121.466 322.842L118.855 321.635C117.413 320.976 116.828 319.33 117.53 317.977C118.231 316.624 119.985 316.038 121.427 316.733L124.037 317.94C125.479 318.599 126.064 320.245 125.362 321.598C124.856 322.549 123.804 323.134 122.752 323.134Z" fill="black"/>
<path d="M235.839 375.551C235.41 375.551 234.982 375.478 234.553 375.259L229.175 372.772C227.733 372.113 227.149 370.467 227.85 369.114C228.552 367.76 230.305 367.175 231.747 367.87L237.125 370.357C238.567 371.016 239.151 372.662 238.45 374.015C237.943 374.966 236.891 375.551 235.839 375.551ZM219.667 368.053C219.238 368.053 218.81 367.98 218.381 367.76L213.003 365.273C211.561 364.615 210.977 362.968 211.678 361.615C212.38 360.262 214.133 359.713 215.575 360.371L220.953 362.859C222.395 363.517 222.979 365.163 222.278 366.517C221.771 367.468 220.719 368.053 219.667 368.053ZM203.534 360.554C203.105 360.554 202.677 360.481 202.248 360.262L196.87 357.774C195.428 357.116 194.844 355.47 195.545 354.116C196.247 352.763 198 352.214 199.442 352.873L204.82 355.36C206.262 356.019 206.846 357.665 206.145 359.018C205.638 359.969 204.586 360.554 203.534 360.554ZM187.362 353.092C186.933 353.092 186.504 353.019 186.076 352.8L180.698 350.312C179.256 349.654 178.672 348.008 179.373 346.654C180.075 345.301 181.828 344.716 183.27 345.411L188.648 347.898C190.09 348.557 190.674 350.203 189.973 351.556C189.466 352.507 188.414 353.092 187.362 353.092ZM171.229 345.594C170.8 345.594 170.371 345.521 169.943 345.301L164.565 342.814C163.123 342.155 162.539 340.509 163.24 339.156C163.942 337.802 165.695 337.217 167.137 337.912L172.515 340.4C173.957 341.058 174.541 342.704 173.84 344.057C173.333 345.008 172.281 345.594 171.229 345.594ZM155.057 338.095C154.628 338.095 154.199 338.022 153.771 337.802L148.393 335.315C146.951 334.657 146.367 333.011 147.068 331.657C147.769 330.304 149.523 329.719 150.965 330.414L156.343 332.901C157.784 333.559 158.369 335.205 157.668 336.559C157.161 337.51 156.109 338.095 155.057 338.095ZM138.924 330.633C138.495 330.633 138.066 330.56 137.638 330.34L132.26 327.853C130.818 327.195 130.234 325.549 130.935 324.195C131.636 322.842 133.39 322.293 134.832 322.952L140.21 325.439C141.651 326.097 142.236 327.743 141.534 329.097C141.028 330.048 139.976 330.633 138.924 330.633Z" fill="black"/>
<path d="M249.206 381.733C248.777 381.733 248.348 381.66 247.92 381.441L245.309 380.233C243.867 379.575 243.282 377.929 243.984 376.576C244.685 375.222 246.439 374.637 247.881 375.332L250.492 376.539C251.933 377.197 252.518 378.844 251.817 380.197C251.31 381.148 250.258 381.733 249.206 381.733Z" fill="black"/>
<path d="M118.699 319.404L101.552 225.616L82.0289 261.939L55.0236 181.356L38.9684 205.937L4.3252 72.7547L7.13095 72.0963L40.1375 198.914L55.9199 174.772L82.6524 254.696L102.916 216.984L121.582 318.928L118.699 319.404Z" fill="#FF0000"/>
<path d="M5.45563 75.937C8.46869 75.937 10.9113 73.6442 10.9113 70.816C10.9113 67.9878 8.46869 65.695 5.45563 65.695C2.44257 65.695 0 67.9878 0 70.816C0 73.6442 2.44257 75.937 5.45563 75.937Z" fill="#1A5CBE"/>
<path d="M39.0465 208.278C42.0595 208.278 44.5021 205.985 44.5021 203.157C44.5021 200.329 42.0595 198.036 39.0465 198.036C36.0334 198.036 33.5908 200.329 33.5908 203.157C33.5908 205.985 36.0334 208.278 39.0465 208.278Z" fill="#1A5CBE"/>
<path d="M55.2964 183.075C58.3095 183.075 60.7521 180.783 60.7521 177.954C60.7521 175.126 58.3095 172.833 55.2964 172.833C52.2834 172.833 49.8408 175.126 49.8408 177.954C49.8408 180.783 52.2834 183.075 55.2964 183.075Z" fill="#1A5CBE"/>
<path d="M82.2633 263.731C85.2763 263.731 87.7189 261.438 87.7189 258.61C87.7189 255.782 85.2763 253.489 82.2633 253.489C79.2502 253.489 76.8076 255.782 76.8076 258.61C76.8076 261.438 79.2502 263.731 82.2633 263.731Z" fill="#1A5CBE"/>
<path d="M102.215 225.836C105.228 225.836 107.671 223.543 107.671 220.715C107.671 217.886 105.228 215.594 102.215 215.594C99.2023 215.594 96.7598 217.886 96.7598 220.715C96.7598 223.543 99.2023 225.836 102.215 225.836Z" fill="#1A5CBE"/>
<path d="M120.141 324.305C123.154 324.305 125.597 322.012 125.597 319.184C125.597 316.356 123.154 314.063 120.141 314.063C117.128 314.063 114.686 316.356 114.686 319.184C114.686 322.012 117.128 324.305 120.141 324.305Z" fill="#1A5CBE"/>
<path d="M250.062 389.963C256.584 389.963 261.87 385.001 261.87 378.88C261.87 372.759 256.584 367.797 250.062 367.797C243.541 367.797 238.255 372.759 238.255 378.88C238.255 385.001 243.541 389.963 250.062 389.963Z" fill="#1A5CBE"/>
<path d="M435.359 296.981C441.88 296.981 447.167 292.019 447.167 285.898C447.167 279.776 441.88 274.814 435.359 274.814C428.838 274.814 423.552 279.776 423.552 285.898C423.552 292.019 428.838 296.981 435.359 296.981Z" fill="#1A5CBE"/>
<path d="M330.962 122.757C337.483 122.757 342.769 117.795 342.769 111.674C342.769 105.553 337.483 100.591 330.962 100.591C324.441 100.591 319.154 105.553 319.154 111.674C319.154 117.795 324.441 122.757 330.962 122.757Z" fill="#1A5CBE"/>
<path d="M511.153 22.1666C517.674 22.1666 522.961 17.2044 522.961 11.0833C522.961 4.96216 517.674 0 511.153 0C504.632 0 499.346 4.96216 499.346 11.0833C499.346 17.2044 504.632 22.1666 511.153 22.1666Z" fill="#1A5CBE"/>
<path d="M252.985 379.904L245.464 377.893L329.675 100.92L434.501 275.692L507.373 10.2054L514.933 11.9978L437.229 295.115L332.052 119.795L252.985 379.904Z" fill="#1A5CBE"/>
</g>
<defs>
<clipPath id="clip0_300_22">
<rect width="523" height="390" fill="white"/>
</clipPath>
</defs>
</svg>
