<svg width="523" height="390" viewBox="0 0 523 390" fill="none" xmlns="http://www.w3.org/2000/svg">
<g clip-path="url(#clip0_137_576)">
<path d="M69.5843 318.519C68.9946 318.519 68.5312 318.057 68.5312 317.468V102.247C68.5312 101.659 68.9946 101.196 69.5843 101.196C70.174 101.196 70.6373 101.659 70.6373 102.247V317.468C70.6373 318.057 70.174 318.519 69.5843 318.519Z" fill="black"/>
<path d="M299.63 390C298.472 390 297.524 389.054 297.524 387.897V31.8183C297.524 30.6616 298.472 29.7153 299.63 29.7153C300.789 29.7153 301.737 30.6616 301.737 31.8183V387.897C301.737 389.054 300.789 390 299.63 390Z" fill="black"/>
<path d="M64.151 296.816L54.8843 242.896L44.3329 263.778L29.7378 217.428L21.0608 231.582L2.33789 154.991L3.85426 154.612L21.6927 227.523L30.2222 213.664L44.6699 259.593L55.6214 237.912L65.7095 296.543L64.151 296.816Z" fill="#FF0000"/>
<path d="M2.9485 156.82C4.57691 156.82 5.89699 155.502 5.89699 153.876C5.89699 152.25 4.57691 150.932 2.9485 150.932C1.32009 150.932 0 152.25 0 153.876C0 155.502 1.32009 156.82 2.9485 156.82Z" fill="#1A5CBE"/>
<path d="M21.1028 232.927C22.7312 232.927 24.0513 231.609 24.0513 229.983C24.0513 228.357 22.7312 227.039 21.1028 227.039C19.4744 227.039 18.1543 228.357 18.1543 229.983C18.1543 231.609 19.4744 232.927 21.1028 232.927Z" fill="#1A5CBE"/>
<path d="M29.885 218.417C31.5134 218.417 32.8335 217.099 32.8335 215.473C32.8335 213.847 31.5134 212.528 29.885 212.528C28.2566 212.528 26.9365 213.847 26.9365 215.473C26.9365 217.099 28.2566 218.417 29.885 218.417Z" fill="#1A5CBE"/>
<path d="M44.4592 264.809C46.0877 264.809 47.4077 263.491 47.4077 261.865C47.4077 260.239 46.0877 258.92 44.4592 258.92C42.8308 258.92 41.5107 260.239 41.5107 261.865C41.5107 263.491 42.8308 264.809 44.4592 264.809Z" fill="#1A5CBE"/>
<path d="M55.2424 243.001C56.8709 243.001 58.1909 241.683 58.1909 240.057C58.1909 238.431 56.8709 237.112 55.2424 237.112C53.614 237.112 52.2939 238.431 52.2939 240.057C52.2939 241.683 53.614 243.001 55.2424 243.001Z" fill="#1A5CBE"/>
<path d="M64.9299 299.613C66.5584 299.613 67.8784 298.295 67.8784 296.669C67.8784 295.043 66.5584 293.725 64.9299 293.725C63.3015 293.725 61.9814 295.043 61.9814 296.669C61.9814 298.295 63.3015 299.613 64.9299 299.613Z" fill="#1A5CBE"/>
<path d="M315.868 354.27C319.392 354.27 322.249 351.417 322.249 347.898C322.249 344.379 319.392 341.526 315.868 341.526C312.343 341.526 309.486 344.379 309.486 347.898C309.486 351.417 312.343 354.27 315.868 354.27Z" fill="#1A5CBE"/>
<path d="M416.011 300.812C419.536 300.812 422.393 297.959 422.393 294.44C422.393 290.921 419.536 288.068 416.011 288.068C412.487 288.068 409.63 290.921 409.63 294.44C409.63 297.959 412.487 300.812 416.011 300.812Z" fill="#1A5CBE"/>
<path d="M359.611 200.647C363.135 200.647 365.992 197.794 365.992 194.274C365.992 190.755 363.135 187.902 359.611 187.902C356.087 187.902 353.229 190.755 353.229 194.274C353.229 197.794 356.087 200.647 359.611 200.647Z" fill="#1A5CBE"/>
<path d="M516.618 12.7441C520.142 12.7441 522.999 9.89126 522.999 6.37207C522.999 2.85287 520.142 0 516.618 0C513.093 0 510.236 2.85287 510.236 6.37207C510.236 9.89126 513.093 12.7441 516.618 12.7441Z" fill="#1A5CBE"/>
<path d="M317.447 348.487L313.403 347.33L358.894 188.113L415.842 289.056L514.638 5.6991L518.598 7.06604L416.748 299.256L360.179 198.943L317.447 348.487Z" fill="#1A5CBE"/>
<path d="M82.3886 161.089L88.3909 149.334L94.33 159.575L94.4775 159.302L88.5173 149.06L94.6881 136.968L94.5617 136.737L88.3909 148.829L82.5992 138.882L82.4729 139.155L88.2435 149.102L82.2412 160.858L82.3886 161.089Z" fill="url(#paint0_linear_137_576)"/>
<path d="M94.2248 197.471L88.054 208.743L82.2623 197.934L82.136 198.207L87.9066 208.995L81.9043 219.952L82.0517 220.204L88.054 209.248L93.9931 220.352L94.1406 220.099L88.2014 208.995L94.3722 197.723L94.2248 197.471Z" fill="url(#paint1_linear_137_576)"/>
<path d="M96.3736 166.031C97.2792 165.947 98.0164 164.559 98.0164 162.919C98.0164 161.278 97.3003 160.038 96.3947 160.143C95.4891 160.248 94.773 161.636 94.752 163.255C94.752 164.875 95.468 166.115 96.3526 166.031H96.3736Z" fill="url(#paint2_linear_137_576)"/>
<path d="M94.0773 227.901L87.8855 238.774L82.1149 227.544L81.9674 227.775L87.7591 239.005L81.7568 249.562L81.8832 249.814L87.8855 239.278L93.8457 250.824L93.9931 250.593L88.0329 239.026L94.2037 228.175L94.0773 227.901Z" fill="url(#paint3_linear_137_576)"/>
<path d="M95.8893 257.511C96.7949 257.617 97.532 256.376 97.532 254.735C97.532 253.095 96.8159 251.686 95.9103 251.602C95.0047 251.518 94.2886 252.759 94.2676 254.378C94.2676 255.997 94.9836 257.406 95.8682 257.511H95.8893Z" fill="url(#paint4_linear_137_576)"/>
<path d="M96.0783 221.046C95.1727 221.025 94.4566 222.307 94.4355 223.948C94.4355 225.567 95.1516 226.913 96.0362 226.955C96.9418 226.997 97.6789 225.693 97.6789 224.053C97.6789 222.412 96.9628 221.067 96.0572 221.046H96.0783Z" fill="url(#paint5_linear_137_576)"/>
<path d="M82.2207 190.615L88.223 179.259L94.1621 189.942L94.3095 189.669L88.3493 179.007L94.5412 167.314L94.3937 167.083L88.223 178.754L82.4313 168.387L82.3049 168.66L88.0755 179.028L82.0732 190.384L82.2207 190.615Z" fill="url(#paint6_linear_137_576)"/>
<path d="M96.2472 190.573C95.3416 190.615 94.6256 191.961 94.6045 193.58C94.6045 195.2 95.3206 196.504 96.2051 196.483C97.1107 196.462 97.8478 195.116 97.8478 193.475C97.8478 191.835 97.1318 190.552 96.2262 190.573H96.2472Z" fill="url(#paint7_linear_137_576)"/>
<path d="M93.9094 258.395L87.7175 268.847L81.9469 257.196L81.7995 257.427L87.5912 269.078L81.5889 279.214L81.7152 279.488L87.7175 269.351L93.6777 281.359L93.8251 281.107L87.865 269.12L94.0568 258.668L93.9094 258.395Z" fill="url(#paint8_linear_137_576)"/>
<path d="M132.261 129.692C133.314 129.523 134.178 127.946 134.199 126.18C134.199 124.413 133.356 123.151 132.303 123.341C131.25 123.53 130.408 125.107 130.387 126.852C130.387 128.598 131.229 129.881 132.282 129.713L132.261 129.692Z" fill="url(#paint9_linear_137_576)"/>
<path d="M132.408 96.8638C133.461 96.6114 134.325 94.9921 134.325 93.2256C134.325 91.4591 133.482 90.2604 132.429 90.5128C131.376 90.7651 130.534 92.4055 130.513 94.1509C130.513 95.8964 131.355 97.1162 132.387 96.8638H132.408Z" fill="url(#paint10_linear_137_576)"/>
<path d="M149.531 127.694L141.738 141.447L134.409 130.386L134.24 130.701L141.57 141.742L134.009 155.054L134.177 155.327L141.738 142.015L149.299 153.413L149.488 153.119L141.907 141.7L149.72 127.946L149.531 127.694Z" fill="url(#paint11_linear_137_576)"/>
<path d="M134.156 121.953L134.325 122.205L141.864 108.388L149.425 119.261L149.615 118.924L142.054 108.073L149.846 93.8145L149.657 93.5621L141.864 107.82L134.556 97.3265L134.388 97.6419L141.696 108.136L134.156 121.953Z" fill="url(#paint12_linear_137_576)"/>
<path d="M131.987 195.536C133.04 195.515 133.903 194.043 133.924 192.277C133.924 190.51 133.082 189.101 132.029 189.143C130.976 189.185 130.112 190.636 130.112 192.403C130.112 194.148 130.955 195.557 132.008 195.536H131.987Z" fill="url(#paint13_linear_137_576)"/>
<path d="M129.439 196.63L122.236 208.806L115.476 197.156L115.307 197.429L122.068 209.079L115.097 220.898L115.244 221.172L122.236 209.353L129.207 221.382L129.355 221.109L122.384 209.079L129.586 196.903L129.439 196.63Z" fill="url(#paint14_linear_137_576)"/>
<path d="M110.989 228.7L104.334 239.951L98.0793 228.301L97.9319 228.553L104.187 240.204L97.7002 251.139L97.8476 251.413L104.313 240.498L110.758 252.506L110.905 252.254L104.482 240.225L111.137 228.974L110.989 228.7Z" fill="url(#paint15_linear_137_576)"/>
<path d="M132.114 162.582C133.167 162.477 134.03 160.963 134.051 159.197C134.051 157.43 133.209 156.084 132.156 156.21C131.103 156.315 130.26 157.83 130.239 159.596C130.239 161.342 131.082 162.687 132.135 162.582H132.114Z" fill="url(#paint16_linear_137_576)"/>
<path d="M112.927 291.285C113.896 291.475 114.696 290.234 114.717 288.531C114.717 286.827 113.938 285.292 112.969 285.145C112.001 284.976 111.2 286.217 111.2 287.921C111.2 289.624 111.979 291.138 112.948 291.307L112.927 291.285Z" fill="url(#paint17_linear_137_576)"/>
<path d="M115.538 125.338L115.707 125.591L122.678 112.384L129.628 122.857L129.796 122.541L122.825 112.068L130.028 98.441L129.859 98.2097L122.678 111.837L115.917 101.68L115.77 101.974L122.509 112.132L115.538 125.338Z" fill="url(#paint18_linear_137_576)"/>
<path d="M113.854 101.238C114.822 101.007 115.623 99.4505 115.623 97.7681C115.623 96.0857 114.843 94.908 113.875 95.1394C112.906 95.3707 112.127 96.9269 112.105 98.6093C112.105 100.292 112.864 101.469 113.832 101.238H113.854Z" fill="url(#paint19_linear_137_576)"/>
<path d="M131.861 222.139C130.808 222.097 129.944 223.506 129.944 225.273C129.944 227.039 130.787 228.49 131.84 228.532C132.893 228.574 133.756 227.186 133.777 225.399C133.777 223.632 132.935 222.16 131.882 222.139H131.861Z" fill="url(#paint20_linear_137_576)"/>
<path d="M131.713 255.198C130.66 255.093 129.797 256.439 129.797 258.205C129.797 259.972 130.639 261.486 131.692 261.612C132.745 261.738 133.609 260.393 133.63 258.626C133.651 256.86 132.787 255.324 131.734 255.219L131.713 255.198Z" fill="url(#paint21_linear_137_576)"/>
<path d="M113.685 132.783C114.654 132.615 115.454 131.122 115.475 129.418C115.475 127.715 114.696 126.495 113.727 126.663C112.758 126.831 111.979 128.346 111.958 130.028C111.958 131.71 112.716 132.93 113.685 132.783Z" fill="url(#paint22_linear_137_576)"/>
<path d="M98.5009 128.703L104.946 116.043L111.369 126.18L111.516 125.885L105.093 115.749L111.748 102.731L111.601 102.5L104.946 115.517L98.7115 105.696L98.5852 105.991L104.798 115.812L98.3535 128.472L98.5009 128.703Z" fill="url(#paint23_linear_137_576)"/>
<path d="M131.545 294.734C132.598 294.924 133.461 293.641 133.482 291.874C133.504 290.108 132.64 288.51 131.566 288.32C130.513 288.131 129.649 289.414 129.649 291.18C129.649 292.947 130.492 294.524 131.545 294.734Z" fill="url(#paint24_linear_137_576)"/>
<path d="M111.136 197.071L104.481 208.764L98.2473 197.576L98.0998 197.828L104.334 209.037L97.8682 220.394L98.0156 220.667L104.481 209.29L110.905 220.856L111.073 220.583L104.629 209.037L111.284 197.324L111.136 197.071Z" fill="url(#paint25_linear_137_576)"/>
<path d="M113.538 164.37C114.506 164.286 115.307 162.835 115.328 161.131C115.328 159.428 114.548 158.145 113.58 158.25C112.611 158.355 111.811 159.806 111.811 161.489C111.811 163.171 112.569 164.454 113.559 164.37H113.538Z" fill="url(#paint26_linear_137_576)"/>
<path d="M98.1635 189.963L104.629 178.166L111.074 189.227L111.221 188.954L104.798 177.892L111.453 165.737L111.284 165.484L104.65 177.64L98.3951 166.893L98.2477 167.167L104.482 177.913L98.0371 189.711L98.1635 189.963Z" fill="url(#paint27_linear_137_576)"/>
<path d="M149.72 294.776C149.72 296.627 150.625 298.288 151.784 298.499C152.942 298.709 153.869 297.384 153.89 295.534C153.911 293.683 152.963 292.022 151.805 291.811C150.667 291.622 149.72 292.947 149.72 294.797V294.776Z" fill="url(#paint28_linear_137_576)"/>
<path d="M98.332 159.302L104.798 147.083L111.221 157.682L111.369 157.388L104.945 146.789L111.6 134.192L111.453 133.961L104.798 146.558L98.5637 136.274L98.4162 136.547L104.65 146.831L98.1846 159.07L98.332 159.302Z" fill="url(#paint29_linear_137_576)"/>
<path d="M113.117 253.326C112.148 253.221 111.348 254.525 111.348 256.208C111.348 257.89 112.127 259.362 113.096 259.467C114.064 259.572 114.865 258.29 114.886 256.586C114.907 254.883 114.107 253.411 113.138 253.326H113.117Z" fill="url(#paint30_linear_137_576)"/>
<path d="M113.412 189.879C112.443 189.921 111.643 191.309 111.643 192.992C111.643 194.674 112.422 196.02 113.391 195.999C114.359 195.978 115.16 194.569 115.181 192.865C115.181 191.162 114.402 189.816 113.433 189.858L113.412 189.879Z" fill="url(#paint31_linear_137_576)"/>
<path d="M129.565 163.76L122.384 176.42L115.623 165.274L115.476 165.569L122.215 176.714L115.244 188.996L115.392 189.269L122.384 176.967L129.334 188.47L129.502 188.197L122.531 176.693L129.734 164.033L129.565 163.76Z" fill="url(#paint32_linear_137_576)"/>
<path d="M115.539 157.388L122.531 144.644L129.481 155.642L129.65 155.348L122.679 144.349L129.881 131.206L129.713 130.953L122.531 144.097L115.771 133.456L115.623 133.75L122.363 144.391L115.392 157.136L115.539 157.388Z" fill="url(#paint33_linear_137_576)"/>
<path d="M113.264 221.571C112.295 221.55 111.495 222.896 111.495 224.579C111.495 226.261 112.274 227.67 113.243 227.712C114.212 227.754 115.012 226.408 115.033 224.705C115.033 223.001 114.254 221.592 113.285 221.571H113.264Z" fill="url(#paint34_linear_137_576)"/>
<path d="M173.94 266.449C175.204 266.596 176.236 265.145 176.236 263.211C176.236 261.276 175.225 259.593 173.961 259.467C172.719 259.341 171.687 260.792 171.687 262.706C171.687 264.62 172.676 266.302 173.94 266.449Z" fill="url(#paint35_linear_137_576)"/>
<path d="M224.696 193.097C226.213 193.055 227.455 191.309 227.455 189.185C227.455 187.061 226.234 185.4 224.717 185.463C223.201 185.526 222.001 187.271 221.979 189.374C221.979 191.477 223.18 193.139 224.696 193.097Z" fill="url(#paint36_linear_137_576)"/>
<path d="M224.78 153.666C226.297 153.518 227.539 151.689 227.539 149.565C227.539 147.441 226.318 145.864 224.801 146.032C223.285 146.2 222.085 148.03 222.063 150.133C222.063 152.236 223.264 153.813 224.78 153.666Z" fill="url(#paint37_linear_137_576)"/>
<path d="M224.843 114.298C226.36 114.045 227.602 112.132 227.602 110.008C227.602 107.905 226.381 106.411 224.864 106.685C223.369 106.958 222.147 108.872 222.147 110.954C222.147 113.036 223.348 114.529 224.864 114.298H224.843Z" fill="url(#paint38_linear_137_576)"/>
<path d="M224.633 232.633C226.149 232.696 227.392 231.035 227.392 228.911C227.392 226.787 226.17 225.02 224.654 224.978C223.138 224.936 221.916 226.597 221.916 228.7C221.916 230.803 223.116 232.57 224.633 232.633Z" fill="url(#paint39_linear_137_576)"/>
<path d="M224.907 75.0137C226.423 74.6562 227.645 72.6583 227.666 70.5554C227.666 68.4524 226.444 67.0434 224.928 67.4219C223.432 67.8004 222.211 69.7983 222.211 71.8802C222.211 73.9622 223.411 75.3712 224.928 75.0137H224.907Z" fill="url(#paint40_linear_137_576)"/>
<path d="M198.538 81.2386C199.907 80.9231 201.023 79.0304 201.045 77.0115C201.045 75.0137 199.928 73.6467 198.559 74.0043C197.19 74.3407 196.095 76.2334 196.074 78.2313C196.074 80.2291 197.169 81.575 198.538 81.2596V81.2386Z" fill="url(#paint41_linear_137_576)"/>
<path d="M198.434 118.693C199.803 118.462 200.94 116.653 200.94 114.634C200.94 112.615 199.824 111.185 198.455 111.438C197.086 111.69 195.991 113.498 195.97 115.496C195.97 117.494 197.065 118.924 198.434 118.693Z" fill="url(#paint42_linear_137_576)"/>
<path d="M224.57 272.253C226.086 272.422 227.329 270.844 227.329 268.72C227.329 266.596 226.107 264.746 224.57 264.578C223.054 264.43 221.832 266.008 221.832 268.111C221.832 270.214 223.054 272.064 224.549 272.232L224.57 272.253Z" fill="url(#paint43_linear_137_576)"/>
<path d="M224.486 311.958C226.002 312.231 227.245 310.738 227.245 308.614C227.245 306.49 226.023 304.534 224.486 304.282C222.97 304.03 221.748 305.523 221.748 307.647C221.748 309.771 222.97 311.706 224.465 311.979L224.486 311.958Z" fill="url(#paint44_linear_137_576)"/>
<path d="M253.781 317.405C255.466 317.72 256.835 316.143 256.835 313.893C256.835 311.642 255.466 309.582 253.781 309.308C252.117 309.014 250.748 310.591 250.748 312.82C250.748 315.049 252.096 317.089 253.76 317.405H253.781Z" fill="url(#paint45_linear_137_576)"/>
<path d="M253.95 150.848C255.634 150.679 256.982 148.745 257.003 146.515C257.024 144.286 255.634 142.625 253.971 142.814C252.307 143.003 250.959 144.938 250.959 147.125C250.959 149.333 252.307 150.995 253.971 150.827L253.95 150.848Z" fill="url(#paint46_linear_137_576)"/>
<path d="M253.991 109.44C255.655 109.166 257.024 107.126 257.024 104.918C257.024 102.71 255.655 101.133 253.991 101.448C252.327 101.743 250.979 103.762 250.979 105.97C250.979 108.178 252.327 109.734 253.991 109.461V109.44Z" fill="url(#paint47_linear_137_576)"/>
<path d="M286.319 60.5031C288.173 60.0614 289.689 57.8112 289.689 55.4769C289.689 53.1426 288.173 51.6284 286.319 52.0911C284.466 52.5538 282.971 54.804 282.971 57.1173C282.971 59.4305 284.466 60.9447 286.319 60.5241V60.5031Z" fill="url(#paint48_linear_137_576)"/>
<path d="M254.033 68.1369C255.697 67.7374 257.066 65.6133 257.066 63.4052C257.066 61.1971 255.697 59.725 254.033 60.1456C252.369 60.5662 251.021 62.6692 251.021 64.8773C251.021 67.0644 252.348 68.5365 254.012 68.1369H254.033Z" fill="url(#paint49_linear_137_576)"/>
<path d="M253.823 275.618C255.508 275.807 256.877 274.146 256.877 271.917C256.877 269.667 255.508 267.711 253.823 267.543C252.159 267.374 250.811 269.036 250.79 271.244C250.769 273.452 252.138 275.408 253.802 275.618H253.823Z" fill="url(#paint50_linear_137_576)"/>
<path d="M253.908 192.34C255.592 192.298 256.961 190.447 256.961 188.218C256.961 185.989 255.592 184.222 253.929 184.306C252.265 184.369 250.917 186.22 250.917 188.428C250.917 190.636 252.265 192.403 253.929 192.34H253.908Z" fill="url(#paint51_linear_137_576)"/>
<path d="M253.865 233.937C255.55 234.021 256.919 232.255 256.919 230.025C256.919 227.796 255.55 225.925 253.865 225.882C252.201 225.84 250.854 227.586 250.854 229.794C250.854 232.002 252.201 233.853 253.865 233.937Z" fill="url(#paint52_linear_137_576)"/>
<path d="M174.277 158.524C175.541 158.397 176.551 156.736 176.573 154.822C176.573 152.888 175.562 151.457 174.298 151.584C173.055 151.731 172.044 153.371 172.023 155.285C172.023 157.199 173.013 158.65 174.277 158.524Z" fill="url(#paint53_linear_137_576)"/>
<path d="M173.835 302.579C175.098 302.81 176.13 301.422 176.13 299.487C176.13 297.552 175.119 295.807 173.856 295.576C172.613 295.365 171.581 296.753 171.581 298.667C171.581 300.581 172.571 302.347 173.835 302.579Z" fill="url(#paint54_linear_137_576)"/>
<path d="M152.563 92.09C153.701 91.8166 154.648 90.1132 154.648 88.2836C154.648 86.454 153.722 85.1922 152.584 85.4866C151.447 85.781 150.52 87.4845 150.499 89.293C150.478 91.1016 151.405 92.3634 152.542 92.111L152.563 92.09Z" fill="url(#paint55_linear_137_576)"/>
<path d="M152.416 126.327C153.574 126.137 154.501 124.497 154.501 122.646C154.501 120.817 153.574 119.492 152.437 119.681C151.299 119.892 150.373 121.532 150.352 123.362C150.352 125.191 151.257 126.516 152.394 126.327H152.416Z" fill="url(#paint56_linear_137_576)"/>
<path d="M198.349 156.21C199.718 156.084 200.855 154.339 200.855 152.32C200.855 150.301 199.739 148.787 198.37 148.934C197.001 149.081 195.885 150.827 195.885 152.824C195.885 154.822 196.98 156.336 198.349 156.21Z" fill="url(#paint57_linear_137_576)"/>
<path d="M174.066 230.404C175.33 230.467 176.341 228.932 176.362 226.997C176.362 225.062 175.351 223.464 174.087 223.422C172.844 223.38 171.834 224.915 171.812 226.829C171.812 228.743 172.802 230.341 174.066 230.404Z" fill="url(#paint58_linear_137_576)"/>
<path d="M152.037 229.436C153.195 229.479 154.122 228.027 154.143 226.177C154.143 224.326 153.216 222.791 152.079 222.77C150.942 222.728 149.994 224.2 149.994 226.03C149.994 227.859 150.9 229.394 152.058 229.436H152.037Z" fill="url(#paint59_linear_137_576)"/>
<path d="M152.163 195.01C153.322 194.989 154.248 193.454 154.269 191.604C154.269 189.753 153.343 188.302 152.205 188.344C151.068 188.386 150.142 189.9 150.12 191.73C150.099 193.559 151.026 195.01 152.184 194.989L152.163 195.01Z" fill="url(#paint60_linear_137_576)"/>
<path d="M152.289 160.648C153.447 160.542 154.374 158.944 154.395 157.115C154.395 155.264 153.468 153.876 152.331 154.002C151.194 154.128 150.267 155.706 150.246 157.535C150.246 159.365 151.152 160.753 152.31 160.648H152.289Z" fill="url(#paint61_linear_137_576)"/>
<path d="M96.6891 105.297C97.5947 105.087 98.3318 103.593 98.3318 101.974C98.3318 100.355 97.6157 99.2192 96.7101 99.4295C95.8045 99.6608 95.0884 101.133 95.0674 102.752C95.0674 104.372 95.7835 105.507 96.668 105.297H96.6891Z" fill="url(#paint62_linear_137_576)"/>
<path d="M198.054 269.225C199.423 269.393 200.56 267.858 200.56 265.839C200.56 263.82 199.444 262.054 198.075 261.907C196.706 261.759 195.59 263.295 195.59 265.292C195.59 267.311 196.685 269.057 198.054 269.225Z" fill="url(#paint63_linear_137_576)"/>
<path d="M198.159 231.476C199.528 231.539 200.666 229.941 200.666 227.922C200.666 225.903 199.549 224.221 198.18 224.179C196.812 224.137 195.695 225.735 195.695 227.733C195.695 229.731 196.79 231.413 198.159 231.476Z" fill="url(#paint64_linear_137_576)"/>
<path d="M197.97 307.058C199.36 307.31 200.476 305.88 200.476 303.84C200.476 301.8 199.36 299.971 197.991 299.739C196.622 299.508 195.506 300.938 195.506 302.957C195.506 304.976 196.601 306.806 197.97 307.058Z" fill="url(#paint65_linear_137_576)"/>
<path d="M198.243 193.791C199.612 193.749 200.75 192.087 200.75 190.068C200.75 188.05 199.633 186.451 198.264 186.514C196.896 186.577 195.779 188.239 195.779 190.237C195.779 192.235 196.874 193.833 198.243 193.791Z" fill="url(#paint66_linear_137_576)"/>
<path d="M151.911 263.926C153.069 264.052 153.996 262.664 154.017 260.813C154.017 258.962 153.09 257.364 151.932 257.238C150.794 257.112 149.847 258.521 149.847 260.35C149.847 262.18 150.752 263.778 151.911 263.905V263.926Z" fill="url(#paint67_linear_137_576)"/>
<path d="M174.171 194.422C175.435 194.38 176.446 192.802 176.467 190.868C176.467 188.933 175.456 187.419 174.193 187.461C172.95 187.503 171.939 189.101 171.918 191.015C171.918 192.929 172.908 194.443 174.171 194.422Z" fill="url(#paint68_linear_137_576)"/>
<path d="M174.403 122.689C175.667 122.478 176.677 120.754 176.677 118.84C176.677 116.926 175.667 115.538 174.424 115.77C173.181 116.001 172.17 117.725 172.149 119.618C172.149 121.532 173.139 122.899 174.382 122.689H174.403Z" fill="url(#paint69_linear_137_576)"/>
<path d="M174.509 86.9167C175.751 86.6223 176.783 84.8347 176.783 82.9C176.783 80.9652 175.772 79.6824 174.53 79.9978C173.287 80.3133 172.276 82.1008 172.276 83.9935C172.276 85.8862 173.266 87.1901 174.509 86.8957V86.9167Z" fill="url(#paint70_linear_137_576)"/>
<path d="M268.124 251.875L256.372 235.724L256.098 236.082L267.85 252.233L255.866 266.891L256.14 267.29L268.124 252.611L280.381 269.435L280.676 269.099L268.418 252.254L280.907 236.986L280.613 236.608L268.124 251.875Z" fill="url(#paint71_linear_137_576)"/>
<path d="M210.375 131.921L200.771 119.492L200.561 119.85L210.143 132.278L200.329 147.63L200.54 147.924L210.375 132.573L220.316 145.485L220.547 145.127L210.607 132.215L220.779 116.295L220.547 116.001L210.375 131.921Z" fill="url(#paint72_linear_137_576)"/>
<path d="M210.459 93.52L200.876 81.7853L200.645 82.1639L210.227 93.8986L200.413 109.902L200.645 110.176L210.459 94.172L220.4 106.348L220.631 105.97L210.691 93.7934L220.863 77.2008L220.631 76.9274L210.459 93.52Z" fill="url(#paint73_linear_137_576)"/>
<path d="M224.443 344.05C222.927 343.692 221.705 345.101 221.705 347.225C221.705 349.349 222.927 351.368 224.443 351.768C225.959 352.167 227.202 350.737 227.202 348.592C227.202 346.447 225.959 344.428 224.443 344.05Z" fill="url(#paint74_linear_137_576)"/>
<path d="M210.29 170.427L200.686 157.283L200.476 157.64L210.058 170.763L200.244 185.463L200.455 185.778L210.29 171.078L220.252 184.706L220.483 184.369L210.522 170.742L220.715 155.495L220.483 155.18L210.29 170.427Z" fill="url(#paint75_linear_137_576)"/>
<path d="M210.207 208.995L200.603 195.158L200.371 195.494L209.975 209.332L200.14 223.359L200.371 223.695L210.207 209.647L220.168 224.032L220.4 223.695L210.438 209.332L220.632 194.779L220.4 194.443L210.207 208.995Z" fill="url(#paint76_linear_137_576)"/>
<path d="M185.102 245.84L176.341 231.981L176.13 232.275L184.891 246.134L175.898 258.941L176.109 259.257L185.081 246.471L194.158 260.834L194.369 260.54L185.292 246.176L194.6 232.906L194.39 232.591L185.102 245.84Z" fill="url(#paint77_linear_137_576)"/>
<path d="M237.606 290.36L226.991 274.272L226.739 274.567L237.353 290.676L226.507 303.924L226.76 304.303L237.606 291.054L248.642 307.794L248.915 307.479L237.859 290.739L249.147 276.964L248.873 276.586L237.606 290.36Z" fill="url(#paint78_linear_137_576)"/>
<path d="M248.832 318.12L237.543 331.137L226.908 314.25L226.676 314.545L237.291 331.432L226.444 343.944L226.676 344.344L237.543 331.831L248.6 349.391L248.874 349.097L237.796 331.537L249.085 318.54L248.832 318.12Z" fill="url(#paint79_linear_137_576)"/>
<path d="M220.189 312.736L209.953 325.228L200.308 309.245L200.097 309.518L209.722 325.501L199.865 337.53L200.076 337.909L209.953 325.88L219.936 342.472L220.189 342.199L210.185 325.606L220.42 313.115L220.189 312.736Z" fill="url(#paint80_linear_137_576)"/>
<path d="M185.502 98.7145L176.783 87.4214L176.572 87.7789L185.313 99.072L176.341 114.277L176.551 114.55L185.502 99.3454L194.558 111.038L194.769 110.68L185.713 98.9878L195.001 83.2364L194.79 82.9841L185.502 98.7145Z" fill="url(#paint81_linear_137_576)"/>
<path d="M185.312 172.13L176.551 159.554L176.362 159.89L185.102 172.466L176.13 186.472L176.319 186.767L185.291 172.761L194.347 185.778L194.579 185.463L185.502 172.424L194.811 157.935L194.579 157.619L185.312 172.13Z" fill="url(#paint82_linear_137_576)"/>
<path d="M185.397 135.391L176.678 123.467L176.467 123.803L185.207 135.727L176.235 150.343L176.446 150.616L185.397 136.001L194.453 148.387L194.663 148.03L185.607 135.664L194.895 120.544L194.685 120.27L185.397 135.391Z" fill="url(#paint83_linear_137_576)"/>
<path d="M185.207 208.953L176.446 195.726L176.256 196.041L184.996 209.269L176.024 222.665L176.214 222.98L185.186 209.563L194.263 223.275L194.474 222.959L185.396 209.269L194.705 195.389L194.495 195.074L185.207 208.953Z" fill="url(#paint84_linear_137_576)"/>
<path d="M210.038 286.407L200.414 271.139L200.182 271.433L209.807 286.701L199.95 299.403L200.182 299.761L210.038 287.058L220.021 302.894L220.253 302.6L210.27 286.764L220.484 273.578L220.253 273.221L210.038 286.407Z" fill="url(#paint85_linear_137_576)"/>
<path d="M210.122 247.669L200.497 233.117L200.286 233.411L209.89 247.964L200.055 261.339L200.265 261.675L210.122 248.321L220.104 263.421L220.336 263.105L210.353 248.006L220.568 234.126L220.336 233.79L210.122 247.669Z" fill="url(#paint86_linear_137_576)"/>
<path d="M237.732 209.058L227.118 194.548L226.886 194.884L237.479 209.395L226.654 224.137L226.886 224.473L237.732 209.752L248.747 224.852L249 224.515L237.964 209.416L249.231 194.106L248.979 193.77L237.732 209.058Z" fill="url(#paint87_linear_137_576)"/>
<path d="M197.886 337.614C196.517 337.278 195.4 338.645 195.4 340.664C195.4 342.683 196.496 344.596 197.864 344.954C199.254 345.311 200.371 343.944 200.371 341.905C200.371 339.865 199.254 337.951 197.864 337.614H197.886Z" fill="url(#paint88_linear_137_576)"/>
<path d="M237.669 249.667L227.055 234.357L226.802 234.673L237.417 249.983L226.57 263.989L226.823 264.346L237.669 250.361L248.705 266.281L248.958 265.944L237.922 250.025L249.189 235.493L248.916 235.115L237.669 249.667Z" fill="url(#paint89_linear_137_576)"/>
<path d="M286.298 270.823C284.445 270.634 282.929 272.38 282.929 274.714C282.929 277.048 284.424 279.13 286.298 279.341C288.173 279.551 289.689 277.805 289.689 275.45C289.689 273.095 288.173 271.013 286.298 270.823Z" fill="url(#paint90_linear_137_576)"/>
<path d="M237.775 168.555L227.181 154.801L226.949 155.159L237.522 168.912L226.718 184.369L226.949 184.685L237.775 169.228L248.789 183.528L249.042 183.171L238.027 168.87L249.274 152.824L249.021 152.488L237.775 168.555Z" fill="url(#paint91_linear_137_576)"/>
<path d="M286.298 359.044C284.424 358.602 282.929 360.137 282.929 362.493C282.929 364.848 284.424 367.14 286.298 367.603C288.173 368.087 289.71 366.552 289.71 364.175C289.71 361.799 288.173 359.507 286.298 359.044Z" fill="url(#paint92_linear_137_576)"/>
<path d="M286.299 226.871C284.445 226.808 282.95 228.658 282.95 230.993C282.95 233.327 284.445 235.283 286.299 235.367C288.173 235.451 289.69 233.6 289.69 231.245C289.69 228.89 288.173 226.934 286.299 226.871Z" fill="url(#paint93_linear_137_576)"/>
<path d="M286.298 314.881C284.445 314.566 282.929 316.206 282.929 318.54C282.929 320.875 284.424 323.062 286.298 323.419C288.173 323.777 289.689 322.136 289.689 319.76C289.689 317.384 288.152 315.196 286.298 314.881Z" fill="url(#paint94_linear_137_576)"/>
<path d="M286.319 95.6231C284.466 95.9595 282.971 98.1046 282.971 100.418C282.971 102.731 284.466 104.372 286.319 104.056C288.173 103.741 289.71 101.596 289.71 99.2612C289.71 96.9269 288.194 95.2866 286.34 95.6231H286.319Z" fill="url(#paint95_linear_137_576)"/>
<path d="M286.319 139.26C284.466 139.47 282.971 141.51 282.971 143.845C282.971 146.158 284.466 147.903 286.319 147.735C288.194 147.546 289.71 145.506 289.71 143.151C289.71 140.795 288.194 139.071 286.319 139.281V139.26Z" fill="url(#paint96_linear_137_576)"/>
<path d="M286.319 183.023C284.466 183.108 282.971 185.042 282.971 187.377C282.971 189.711 284.466 191.562 286.319 191.498C288.194 191.456 289.71 189.501 289.71 187.145C289.71 184.79 288.194 182.939 286.319 183.023Z" fill="url(#paint97_linear_137_576)"/>
<path d="M268.229 81.4699L256.519 68.7678L256.245 69.1674L267.955 81.8905L256.014 99.766L256.287 100.081L268.229 82.1849L280.423 95.4128L280.718 94.9922L268.503 81.7643L280.95 63.1318L280.655 62.8374L268.229 81.4699Z" fill="url(#paint98_linear_137_576)"/>
<path d="M237.902 87.7999L227.329 75.6026L227.076 75.9811L237.649 88.1785L226.845 105.087L227.097 105.381L237.902 88.4729L248.874 101.154L249.148 100.775L238.154 88.0733L249.359 70.5133L249.106 70.2399L237.902 87.7999Z" fill="url(#paint99_linear_137_576)"/>
<path d="M280.591 324.113L268.081 337.699L256.287 319.802L256.013 320.097L267.807 337.993L255.781 351.032L256.055 351.452L268.081 338.414L280.359 357.067L280.654 356.773L268.354 338.119L280.886 324.534L280.591 324.113Z" fill="url(#paint100_linear_137_576)"/>
<path d="M253.76 351.158C252.075 350.758 250.728 352.23 250.728 354.459C250.728 356.689 252.075 358.834 253.76 359.275C255.445 359.717 256.814 358.224 256.814 355.974C256.814 353.723 255.445 351.557 253.76 351.158Z" fill="url(#paint101_linear_137_576)"/>
<path d="M237.838 128.135L227.266 115.16L227.013 115.538L237.585 128.493L226.781 144.686L227.034 144.98L237.838 128.808L248.832 142.31L249.106 141.931L238.091 128.43L249.316 111.627L249.063 111.311L237.838 128.135Z" fill="url(#paint102_linear_137_576)"/>
<path d="M268.166 209.122L256.393 193.854L256.14 194.211L267.871 209.479L255.908 224.978L256.161 225.336L268.166 209.858L280.402 225.777L280.697 225.42L268.439 209.5L280.907 193.37L280.612 193.013L268.166 209.122Z" fill="url(#paint103_linear_137_576)"/>
<path d="M268.103 294.734L256.33 277.721L256.056 278.037L267.829 295.05L255.824 308.93L256.098 309.329L268.103 295.47L280.381 313.199L280.676 312.883L268.376 295.134L280.886 280.707L280.592 280.308L268.103 294.734Z" fill="url(#paint104_linear_137_576)"/>
<path d="M268.186 166.473L256.435 152.067L256.161 152.446L267.913 166.851L255.95 183.15L256.203 183.486L268.186 167.188L280.402 182.224L280.697 181.846L268.46 166.809L280.928 149.859L280.633 149.502L268.186 166.473Z" fill="url(#paint105_linear_137_576)"/>
<path d="M268.207 123.929L256.476 110.365L256.202 110.765L267.933 124.308L255.971 141.405L256.244 141.742L268.207 124.644L280.422 138.776L280.717 138.377L268.481 124.245L280.928 106.432L280.654 106.117L268.207 123.929Z" fill="url(#paint106_linear_137_576)"/>
<path d="M141.191 276.523L133.841 263.295L133.672 263.568L141.022 276.775L133.44 288.068L133.609 288.383L141.191 277.09L148.773 290.76L148.962 290.486L141.359 276.838L149.194 265.187L149.004 264.872L141.191 276.523Z" fill="url(#paint107_linear_137_576)"/>
<path d="M110.673 292.127L104.018 302.494L97.7629 289.898L97.6154 290.129L103.849 302.726L97.3838 312.799L97.5312 313.094L103.997 303.02L110.441 316.017L110.61 315.785L104.165 302.789L110.821 292.421L110.673 292.127Z" fill="url(#paint108_linear_137_576)"/>
<path d="M95.7629 282.18C94.8572 282.032 94.1412 283.231 94.1201 284.85C94.1201 286.491 94.8362 287.942 95.7207 288.11C96.6263 288.278 97.3635 287.08 97.3635 285.439C97.3635 283.799 96.6474 282.348 95.7418 282.18H95.7629Z" fill="url(#paint109_linear_137_576)"/>
<path d="M95.5939 312.799C94.6883 312.589 93.9512 313.724 93.9512 315.365C93.9512 317.005 94.6672 318.498 95.5518 318.73C96.4574 318.961 97.1945 317.825 97.2156 316.164C97.2156 314.524 96.4995 313.009 95.5939 312.778V312.799Z" fill="url(#paint110_linear_137_576)"/>
<path d="M93.7404 288.951L87.5486 298.961L81.778 286.869L81.6305 287.101L87.4222 299.193L81.4199 308.93L81.5463 309.224L87.5486 299.466L93.5088 311.916L93.6562 311.706L87.696 299.256L93.8879 289.225L93.7404 288.951Z" fill="url(#paint111_linear_137_576)"/>
<path d="M79.8201 279.446C78.9777 279.298 78.3037 280.455 78.3037 282.032C78.3037 283.61 78.9566 284.998 79.799 285.145C80.6414 285.292 81.3154 284.135 81.3364 282.558C81.3364 280.981 80.6625 279.572 79.8411 279.425L79.8201 279.446Z" fill="url(#paint112_linear_137_576)"/>
<path d="M128.996 295.576L121.793 306.301L115.012 293.157L114.864 293.388L121.625 306.553L114.633 316.963L114.78 317.257L121.793 306.869L128.765 320.433L128.933 320.202L121.941 306.616L129.165 295.891L128.996 295.576Z" fill="url(#paint113_linear_137_576)"/>
<path d="M112.8 316.984C111.832 316.753 111.031 317.93 111.031 319.634C111.031 321.337 111.81 322.915 112.779 323.167C113.748 323.419 114.548 322.242 114.569 320.517C114.569 318.814 113.79 317.236 112.821 316.984H112.8Z" fill="url(#paint114_linear_137_576)"/>
<path d="M104.166 271.202L97.9108 259.068L97.7844 259.32L104.018 271.454L97.5527 281.948L97.7002 282.222L104.166 271.728L110.61 284.24L110.758 283.988L104.313 271.496L110.989 260.666L110.842 260.393L104.166 271.202Z" fill="url(#paint115_linear_137_576)"/>
<path d="M79.9674 255.682C80.8098 255.787 81.4838 254.567 81.5048 252.99C81.5048 251.413 80.8309 250.067 80.0095 249.983C79.1671 249.899 78.4932 251.097 78.4932 252.675C78.4932 254.252 79.146 255.598 79.9885 255.682H79.9674Z" fill="url(#paint116_linear_137_576)"/>
<path d="M80.8092 109.04C81.6516 108.851 82.3256 107.421 82.3466 105.844C82.3466 104.287 81.6727 103.173 80.8513 103.383C80.0089 103.593 79.335 105.023 79.335 106.58C79.335 108.136 79.9878 109.229 80.8303 109.04H80.8092Z" fill="url(#paint117_linear_137_576)"/>
<path d="M80.6412 138.272C81.4837 138.125 82.1576 136.758 82.1787 135.18C82.1787 133.603 81.5047 132.467 80.6834 132.615C79.8409 132.762 79.167 134.15 79.167 135.706C79.167 137.262 79.8199 138.419 80.6623 138.272H80.6412Z" fill="url(#paint118_linear_137_576)"/>
<path d="M80.4723 167.566C81.3147 167.482 81.9887 166.136 82.0097 164.58C82.0308 163.024 81.3358 161.804 80.5144 161.909C79.672 161.994 78.998 163.339 78.998 164.896C78.998 166.452 79.6509 167.651 80.4934 167.566H80.4723Z" fill="url(#paint119_linear_137_576)"/>
<path d="M82.5576 131.605L88.5388 119.45L94.499 129.25L94.6254 128.956L88.6862 119.177L94.857 106.664L94.7096 106.453L88.5599 118.945L82.7682 109.44L82.6418 109.713L88.4124 119.24L82.4102 131.374L82.5576 131.605Z" fill="url(#paint120_linear_137_576)"/>
<path d="M79.6511 308.951C78.8087 308.74 78.1348 309.855 78.1348 311.432C78.1348 313.009 78.7877 314.46 79.6301 314.671C80.4725 314.881 81.1464 313.766 81.1675 312.189C81.1675 310.612 80.4936 309.161 79.6722 308.951H79.6511Z" fill="url(#paint121_linear_137_576)"/>
<path d="M121.941 273.747L115.159 261.108L115.012 261.36L121.772 273.999L114.78 284.892L114.928 285.187L121.941 274.293L128.912 287.353L129.08 287.101L122.088 274.041L129.312 262.832L129.144 262.538L121.941 273.747Z" fill="url(#paint122_linear_137_576)"/>
<path d="M80.1354 226.261C80.9778 226.303 81.6518 225.041 81.6728 223.464C81.6728 221.887 80.9989 220.583 80.1775 220.562C79.3351 220.541 78.6611 221.782 78.6611 223.359C78.6611 224.915 79.314 226.219 80.1564 226.261H80.1354Z" fill="url(#paint123_linear_137_576)"/>
<path d="M80.3043 196.882C81.1468 196.861 81.8207 195.557 81.8418 194.001C81.8628 192.445 81.1678 191.183 80.3464 191.204C79.504 191.246 78.8301 192.529 78.8301 194.085C78.8301 195.641 79.483 196.903 80.3254 196.882H80.3043Z" fill="url(#paint124_linear_137_576)"/>
<path d="M162.504 173.686L154.501 161.636L154.311 161.93L162.314 174.002L154.101 187.377L154.269 187.671L162.504 174.275L170.76 186.767L170.949 186.451L162.693 173.981L171.181 160.143L170.991 159.848L162.504 173.686Z" fill="url(#paint125_linear_137_576)"/>
<path d="M162.63 138.545L154.627 127.063L154.458 127.399L162.419 138.861L154.227 152.803L154.395 153.077L162.609 139.134L170.886 151.016L171.075 150.679L162.798 138.819L171.307 124.413L171.117 124.14L162.63 138.545Z" fill="url(#paint126_linear_137_576)"/>
<path d="M122.088 241.255L115.328 229.1L115.159 229.373L121.92 241.508L114.928 252.864L115.096 253.158L122.088 241.802L129.059 254.336L129.228 254.084L122.236 241.529L129.46 229.836L129.291 229.542L122.088 241.255Z" fill="url(#paint127_linear_137_576)"/>
<path d="M162.377 208.89L154.374 196.251L154.185 196.546L162.188 209.206L153.953 222.034L154.143 222.328L162.377 209.5L170.654 222.581L170.844 222.286L162.567 209.206L171.075 195.936L170.886 195.641L162.377 208.89Z" fill="url(#paint128_linear_137_576)"/>
<path d="M162.251 244.178L154.248 230.93L154.059 231.224L162.062 244.452L153.827 256.733L154.017 257.049L162.251 244.767L170.528 258.479L170.718 258.184L162.441 244.494L170.949 231.792L170.76 231.476L162.251 244.178Z" fill="url(#paint129_linear_137_576)"/>
<path d="M184.996 282.81L176.214 268.279L176.025 268.573L184.786 283.084L175.793 295.281L175.983 295.618L184.975 283.42L194.053 298.478L194.284 298.183L185.186 283.147L194.516 270.529L194.305 270.171L184.996 282.81Z" fill="url(#paint130_linear_137_576)"/>
<path d="M194.2 307.857L184.891 319.844L176.109 304.682L175.919 304.934L184.68 320.118L175.688 331.705L175.877 332.042L184.87 320.475L193.968 336.184L194.179 335.932L185.081 320.202L194.41 308.215L194.2 307.857Z" fill="url(#paint131_linear_137_576)"/>
<path d="M173.75 331.747C172.508 331.453 171.476 332.757 171.476 334.691C171.476 336.626 172.465 338.435 173.729 338.771C174.993 339.087 176.025 337.783 176.025 335.827C176.025 333.892 175.014 332.063 173.75 331.747Z" fill="url(#paint132_linear_137_576)"/>
<path d="M162.736 103.467L154.754 92.5948L154.585 92.9102L162.546 103.804L154.354 118.293L154.522 118.546L162.736 104.056L170.991 115.328L171.181 114.992L162.925 103.72L171.413 88.7673L171.223 88.515L162.736 103.467Z" fill="url(#paint133_linear_137_576)"/>
<path d="M162.124 279.53L154.121 265.692L153.932 265.965L161.935 279.803L153.7 291.517L153.89 291.832L162.124 280.119L170.401 294.44L170.612 294.167L162.314 279.845L170.844 267.732L170.654 267.396L162.124 279.53Z" fill="url(#paint134_linear_137_576)"/>
<path d="M148.878 299.319L141.043 310.444L133.693 296.669L133.525 296.922L140.875 310.696L133.293 321.463L133.461 321.779L141.043 311.012L148.646 325.249L148.815 324.996L141.233 310.759L149.046 299.634L148.878 299.319Z" fill="url(#paint135_linear_137_576)"/>
<path d="M141.317 242.643L133.988 229.983L133.82 230.257L141.149 242.917L133.588 254.714L133.756 255.03L141.317 243.232L148.899 256.313L149.089 256.039L141.507 242.959L149.32 230.782L149.131 230.467L141.317 242.643Z" fill="url(#paint136_linear_137_576)"/>
<path d="M96.5416 135.643C97.4472 135.496 98.1843 134.045 98.1843 132.425C98.1843 130.806 97.4683 129.607 96.5627 129.776C95.657 129.944 94.941 131.374 94.9199 132.993C94.9199 134.613 95.636 135.79 96.5205 135.643H96.5416Z" fill="url(#paint137_linear_137_576)"/>
<path d="M131.439 321.506C130.386 321.253 129.522 322.473 129.522 324.239C129.522 326.006 130.365 327.667 131.418 327.92C132.471 328.193 133.356 326.973 133.356 325.186C133.356 323.398 132.513 321.758 131.439 321.484V321.506Z" fill="url(#paint138_linear_137_576)"/>
<path d="M141.465 208.848L134.136 196.735L133.946 197.008L141.296 209.143L133.735 221.445L133.883 221.719L141.465 209.416L149.046 221.95L149.215 221.676L141.633 209.143L149.447 196.441L149.278 196.146L141.465 208.848Z" fill="url(#paint139_linear_137_576)"/>
<path d="M151.679 326.405C150.541 326.132 149.594 327.394 149.594 329.245C149.594 331.095 150.499 332.82 151.658 333.114C152.816 333.408 153.764 332.147 153.764 330.275C153.764 328.424 152.837 326.679 151.679 326.405Z" fill="url(#paint140_linear_137_576)"/>
<path d="M170.528 303.399L161.998 314.944L153.995 300.497L153.806 300.77L161.809 315.197L153.574 326.363L153.764 326.7L161.998 315.533L170.296 330.464L170.486 330.212L162.188 315.281L170.718 303.735L170.528 303.399Z" fill="url(#paint141_linear_137_576)"/>
<path d="M141.591 175.116L134.261 163.529L134.093 163.823L141.422 175.411L133.861 188.218L134.03 188.491L141.591 175.684L149.172 187.65L149.341 187.356L141.78 175.39L149.573 162.162L149.404 161.888L141.591 175.116Z" fill="url(#paint142_linear_137_576)"/>
</g>
<defs>
<linearGradient id="paint0_linear_137_576" x1="63.6657" y1="148.913" x2="204.92" y2="148.913" gradientUnits="userSpaceOnUse">
<stop stop-color="#1B006A"/>
<stop offset="1" stop-color="#1A5CBE"/>
</linearGradient>
<linearGradient id="paint1_linear_137_576" x1="63.6657" y1="208.911" x2="204.92" y2="208.911" gradientUnits="userSpaceOnUse">
<stop stop-color="#1B006A"/>
<stop offset="1" stop-color="#1A5CBE"/>
</linearGradient>
<linearGradient id="paint2_linear_137_576" x1="-2.35932e-05" y1="163.087" x2="204.92" y2="163.087" gradientUnits="userSpaceOnUse">
<stop stop-color="#1B006A"/>
<stop offset="1" stop-color="#1A5CBE"/>
</linearGradient>
<linearGradient id="paint3_linear_137_576" x1="63.6657" y1="239.194" x2="204.92" y2="239.194" gradientUnits="userSpaceOnUse">
<stop stop-color="#1B006A"/>
<stop offset="1" stop-color="#1A5CBE"/>
</linearGradient>
<linearGradient id="paint4_linear_137_576" x1="63.6663" y1="254.546" x2="204.921" y2="254.546" gradientUnits="userSpaceOnUse">
<stop stop-color="#1B006A"/>
<stop offset="1" stop-color="#1A5CBE"/>
</linearGradient>
<linearGradient id="paint5_linear_137_576" x1="63.6659" y1="224.011" x2="204.92" y2="224.011" gradientUnits="userSpaceOnUse">
<stop stop-color="#1B006A"/>
<stop offset="1" stop-color="#1A5CBE"/>
</linearGradient>
<linearGradient id="paint6_linear_137_576" x1="63.6662" y1="178.86" x2="204.92" y2="178.86" gradientUnits="userSpaceOnUse">
<stop stop-color="#1B006A"/>
<stop offset="1" stop-color="#1A5CBE"/>
</linearGradient>
<linearGradient id="paint7_linear_137_576" x1="63.6663" y1="193.517" x2="204.92" y2="193.517" gradientUnits="userSpaceOnUse">
<stop stop-color="#1B006A"/>
<stop offset="1" stop-color="#1A5CBE"/>
</linearGradient>
<linearGradient id="paint8_linear_137_576" x1="63.6662" y1="269.267" x2="204.92" y2="269.267" gradientUnits="userSpaceOnUse">
<stop stop-color="#1B006A"/>
<stop offset="1" stop-color="#1A5CBE"/>
</linearGradient>
<linearGradient id="paint9_linear_137_576" x1="63.6664" y1="126.516" x2="204.921" y2="126.516" gradientUnits="userSpaceOnUse">
<stop stop-color="#1B006A"/>
<stop offset="1" stop-color="#1A5CBE"/>
</linearGradient>
<linearGradient id="paint10_linear_137_576" x1="63.6662" y1="93.6883" x2="204.92" y2="93.6883" gradientUnits="userSpaceOnUse">
<stop stop-color="#1B006A"/>
<stop offset="1" stop-color="#1A5CBE"/>
</linearGradient>
<linearGradient id="paint11_linear_137_576" x1="63.6661" y1="141.51" x2="204.92" y2="141.51" gradientUnits="userSpaceOnUse">
<stop stop-color="#1B006A"/>
<stop offset="1" stop-color="#1A5CBE"/>
</linearGradient>
<linearGradient id="paint12_linear_137_576" x1="63.6661" y1="107.884" x2="204.941" y2="107.884" gradientUnits="userSpaceOnUse">
<stop stop-color="#1B006A"/>
<stop offset="1" stop-color="#1A5CBE"/>
</linearGradient>
<linearGradient id="paint13_linear_137_576" x1="63.6658" y1="192.34" x2="204.92" y2="192.34" gradientUnits="userSpaceOnUse">
<stop stop-color="#1B006A"/>
<stop offset="1" stop-color="#1A5CBE"/>
</linearGradient>
<linearGradient id="paint14_linear_137_576" x1="63.6665" y1="208.995" x2="204.92" y2="208.995" gradientUnits="userSpaceOnUse">
<stop stop-color="#1B006A"/>
<stop offset="1" stop-color="#1A5CBE"/>
</linearGradient>
<linearGradient id="paint15_linear_137_576" x1="63.6661" y1="240.393" x2="204.92" y2="240.393" gradientUnits="userSpaceOnUse">
<stop stop-color="#1B006A"/>
<stop offset="1" stop-color="#1A5CBE"/>
</linearGradient>
<linearGradient id="paint16_linear_137_576" x1="63.6664" y1="159.386" x2="204.921" y2="159.386" gradientUnits="userSpaceOnUse">
<stop stop-color="#1B006A"/>
<stop offset="1" stop-color="#1A5CBE"/>
</linearGradient>
<linearGradient id="paint17_linear_137_576" x1="63.6662" y1="288.215" x2="204.92" y2="288.215" gradientUnits="userSpaceOnUse">
<stop stop-color="#1B006A"/>
<stop offset="1" stop-color="#1A5CBE"/>
</linearGradient>
<linearGradient id="paint18_linear_137_576" x1="63.6656" y1="111.9" x2="204.92" y2="111.9" gradientUnits="userSpaceOnUse">
<stop stop-color="#1B006A"/>
<stop offset="1" stop-color="#1A5CBE"/>
</linearGradient>
<linearGradient id="paint19_linear_137_576" x1="63.6658" y1="98.1887" x2="204.92" y2="98.1887" gradientUnits="userSpaceOnUse">
<stop stop-color="#1B006A"/>
<stop offset="1" stop-color="#1A5CBE"/>
</linearGradient>
<linearGradient id="paint20_linear_137_576" x1="-7.095e-05" y1="225.336" x2="204.92" y2="225.336" gradientUnits="userSpaceOnUse">
<stop stop-color="#1B006A"/>
<stop offset="1" stop-color="#1A5CBE"/>
</linearGradient>
<linearGradient id="paint21_linear_137_576" x1="63.6663" y1="258.416" x2="204.92" y2="258.416" gradientUnits="userSpaceOnUse">
<stop stop-color="#1B006A"/>
<stop offset="1" stop-color="#1A5CBE"/>
</linearGradient>
<linearGradient id="paint22_linear_137_576" x1="63.6658" y1="129.734" x2="204.92" y2="129.734" gradientUnits="userSpaceOnUse">
<stop stop-color="#1B006A"/>
<stop offset="1" stop-color="#1A5CBE"/>
</linearGradient>
<linearGradient id="paint23_linear_137_576" x1="0.00010843" y1="115.601" x2="204.921" y2="115.601" gradientUnits="userSpaceOnUse">
<stop stop-color="#1B006A"/>
<stop offset="1" stop-color="#1A5CBE"/>
</linearGradient>
<linearGradient id="paint24_linear_137_576" x1="63.6663" y1="291.538" x2="204.92" y2="291.538" gradientUnits="userSpaceOnUse">
<stop stop-color="#1B006A"/>
<stop offset="1" stop-color="#1A5CBE"/>
</linearGradient>
<linearGradient id="paint25_linear_137_576" x1="63.6656" y1="208.953" x2="204.92" y2="208.953" gradientUnits="userSpaceOnUse">
<stop stop-color="#1B006A"/>
<stop offset="1" stop-color="#1A5CBE"/>
</linearGradient>
<linearGradient id="paint26_linear_137_576" x1="63.6659" y1="161.321" x2="204.92" y2="161.321" gradientUnits="userSpaceOnUse">
<stop stop-color="#1B006A"/>
<stop offset="1" stop-color="#1A5CBE"/>
</linearGradient>
<linearGradient id="paint27_linear_137_576" x1="63.6661" y1="177.724" x2="204.92" y2="177.724" gradientUnits="userSpaceOnUse">
<stop stop-color="#1B006A"/>
<stop offset="1" stop-color="#1A5CBE"/>
</linearGradient>
<linearGradient id="paint28_linear_137_576" x1="63.6656" y1="295.134" x2="204.92" y2="295.134" gradientUnits="userSpaceOnUse">
<stop stop-color="#1B006A"/>
<stop offset="1" stop-color="#1A5CBE"/>
</linearGradient>
<linearGradient id="paint29_linear_137_576" x1="63.6661" y1="146.642" x2="204.92" y2="146.642" gradientUnits="userSpaceOnUse">
<stop stop-color="#1B006A"/>
<stop offset="1" stop-color="#1A5CBE"/>
</linearGradient>
<linearGradient id="paint30_linear_137_576" x1="63.6663" y1="256.397" x2="204.92" y2="256.397" gradientUnits="userSpaceOnUse">
<stop stop-color="#1B006A"/>
<stop offset="1" stop-color="#1A5CBE"/>
</linearGradient>
<linearGradient id="paint31_linear_137_576" x1="63.6663" y1="192.95" x2="204.92" y2="192.95" gradientUnits="userSpaceOnUse">
<stop stop-color="#1B006A"/>
<stop offset="1" stop-color="#1A5CBE"/>
</linearGradient>
<linearGradient id="paint32_linear_137_576" x1="63.6665" y1="176.504" x2="204.921" y2="176.504" gradientUnits="userSpaceOnUse">
<stop stop-color="#1B006A"/>
<stop offset="1" stop-color="#1A5CBE"/>
</linearGradient>
<linearGradient id="paint33_linear_137_576" x1="0.000150643" y1="144.181" x2="204.921" y2="144.181" gradientUnits="userSpaceOnUse">
<stop stop-color="#1B006A"/>
<stop offset="1" stop-color="#1A5CBE"/>
</linearGradient>
<linearGradient id="paint34_linear_137_576" x1="63.6663" y1="224.642" x2="204.92" y2="224.642" gradientUnits="userSpaceOnUse">
<stop stop-color="#1B006A"/>
<stop offset="1" stop-color="#1A5CBE"/>
</linearGradient>
<linearGradient id="paint35_linear_137_576" x1="63.6661" y1="262.958" x2="204.92" y2="262.958" gradientUnits="userSpaceOnUse">
<stop stop-color="#1B006A"/>
<stop offset="1" stop-color="#1A5CBE"/>
</linearGradient>
<linearGradient id="paint36_linear_137_576" x1="63.6664" y1="189.29" x2="204.92" y2="189.29" gradientUnits="userSpaceOnUse">
<stop stop-color="#1B006A"/>
<stop offset="1" stop-color="#1A5CBE"/>
</linearGradient>
<linearGradient id="paint37_linear_137_576" x1="63.6661" y1="149.838" x2="204.92" y2="149.838" gradientUnits="userSpaceOnUse">
<stop stop-color="#1B006A"/>
<stop offset="1" stop-color="#1A5CBE"/>
</linearGradient>
<linearGradient id="paint38_linear_137_576" x1="63.666" y1="110.491" x2="204.92" y2="110.491" gradientUnits="userSpaceOnUse">
<stop stop-color="#1B006A"/>
<stop offset="1" stop-color="#1A5CBE"/>
</linearGradient>
<linearGradient id="paint39_linear_137_576" x1="63.6661" y1="228.806" x2="204.92" y2="228.806" gradientUnits="userSpaceOnUse">
<stop stop-color="#1B006A"/>
<stop offset="1" stop-color="#1A5CBE"/>
</linearGradient>
<linearGradient id="paint40_linear_137_576" x1="63.6663" y1="71.2073" x2="204.92" y2="71.2073" gradientUnits="userSpaceOnUse">
<stop stop-color="#1B006A"/>
<stop offset="1" stop-color="#1A5CBE"/>
</linearGradient>
<linearGradient id="paint41_linear_137_576" x1="63.6656" y1="77.6214" x2="204.92" y2="77.6214" gradientUnits="userSpaceOnUse">
<stop stop-color="#1B006A"/>
<stop offset="1" stop-color="#1A5CBE"/>
</linearGradient>
<linearGradient id="paint42_linear_137_576" x1="63.6665" y1="115.055" x2="204.921" y2="115.055" gradientUnits="userSpaceOnUse">
<stop stop-color="#1B006A"/>
<stop offset="1" stop-color="#1A5CBE"/>
</linearGradient>
<linearGradient id="paint43_linear_137_576" x1="63.6663" y1="268.426" x2="204.92" y2="268.426" gradientUnits="userSpaceOnUse">
<stop stop-color="#1B006A"/>
<stop offset="1" stop-color="#1A5CBE"/>
</linearGradient>
<linearGradient id="paint44_linear_137_576" x1="63.6665" y1="308.13" x2="204.921" y2="308.13" gradientUnits="userSpaceOnUse">
<stop stop-color="#1B006A"/>
<stop offset="1" stop-color="#1A5CBE"/>
</linearGradient>
<linearGradient id="paint45_linear_137_576" x1="63.666" y1="313.346" x2="204.92" y2="313.346" gradientUnits="userSpaceOnUse">
<stop stop-color="#1B006A"/>
<stop offset="1" stop-color="#1A5CBE"/>
</linearGradient>
<linearGradient id="paint46_linear_137_576" x1="63.6666" y1="146.831" x2="204.92" y2="146.831" gradientUnits="userSpaceOnUse">
<stop stop-color="#1B006A"/>
<stop offset="1" stop-color="#1A5CBE"/>
</linearGradient>
<linearGradient id="paint47_linear_137_576" x1="63.6656" y1="105.444" x2="204.92" y2="105.444" gradientUnits="userSpaceOnUse">
<stop stop-color="#1B006A"/>
<stop offset="1" stop-color="#1A5CBE"/>
</linearGradient>
<linearGradient id="paint48_linear_137_576" x1="63.6656" y1="56.2971" x2="204.92" y2="56.2971" gradientUnits="userSpaceOnUse">
<stop stop-color="#1B006A"/>
<stop offset="1" stop-color="#1A5CBE"/>
</linearGradient>
<linearGradient id="paint49_linear_137_576" x1="63.6659" y1="64.1413" x2="204.92" y2="64.1413" gradientUnits="userSpaceOnUse">
<stop stop-color="#1B006A"/>
<stop offset="1" stop-color="#1A5CBE"/>
</linearGradient>
<linearGradient id="paint50_linear_137_576" x1="63.6661" y1="271.58" x2="204.92" y2="271.58" gradientUnits="userSpaceOnUse">
<stop stop-color="#1B006A"/>
<stop offset="1" stop-color="#1A5CBE"/>
</linearGradient>
<linearGradient id="paint51_linear_137_576" x1="63.6663" y1="188.323" x2="204.92" y2="188.323" gradientUnits="userSpaceOnUse">
<stop stop-color="#1B006A"/>
<stop offset="1" stop-color="#1A5CBE"/>
</linearGradient>
<linearGradient id="paint52_linear_137_576" x1="63.6663" y1="229.899" x2="204.92" y2="229.899" gradientUnits="userSpaceOnUse">
<stop stop-color="#1B006A"/>
<stop offset="1" stop-color="#1A5CBE"/>
</linearGradient>
<linearGradient id="paint53_linear_137_576" x1="63.6664" y1="155.054" x2="204.92" y2="155.054" gradientUnits="userSpaceOnUse">
<stop stop-color="#1B006A"/>
<stop offset="1" stop-color="#1A5CBE"/>
</linearGradient>
<linearGradient id="paint54_linear_137_576" x1="63.6663" y1="299.088" x2="204.92" y2="299.088" gradientUnits="userSpaceOnUse">
<stop stop-color="#1B006A"/>
<stop offset="1" stop-color="#1A5CBE"/>
</linearGradient>
<linearGradient id="paint55_linear_137_576" x1="63.6661" y1="88.7883" x2="204.92" y2="88.7883" gradientUnits="userSpaceOnUse">
<stop stop-color="#1B006A"/>
<stop offset="1" stop-color="#1A5CBE"/>
</linearGradient>
<linearGradient id="paint56_linear_137_576" x1="63.6657" y1="123.025" x2="204.92" y2="123.025" gradientUnits="userSpaceOnUse">
<stop stop-color="#1B006A"/>
<stop offset="1" stop-color="#1A5CBE"/>
</linearGradient>
<linearGradient id="paint57_linear_137_576" x1="63.6657" y1="152.572" x2="204.92" y2="152.572" gradientUnits="userSpaceOnUse">
<stop stop-color="#1B006A"/>
<stop offset="1" stop-color="#1A5CBE"/>
</linearGradient>
<linearGradient id="paint58_linear_137_576" x1="63.6661" y1="226.913" x2="204.92" y2="226.913" gradientUnits="userSpaceOnUse">
<stop stop-color="#1B006A"/>
<stop offset="1" stop-color="#1A5CBE"/>
</linearGradient>
<linearGradient id="paint59_linear_137_576" x1="63.6663" y1="226.093" x2="204.92" y2="226.093" gradientUnits="userSpaceOnUse">
<stop stop-color="#1B006A"/>
<stop offset="1" stop-color="#1A5CBE"/>
</linearGradient>
<linearGradient id="paint60_linear_137_576" x1="63.6663" y1="191.667" x2="204.92" y2="191.667" gradientUnits="userSpaceOnUse">
<stop stop-color="#1B006A"/>
<stop offset="1" stop-color="#1A5CBE"/>
</linearGradient>
<linearGradient id="paint61_linear_137_576" x1="63.6656" y1="157.325" x2="204.92" y2="157.325" gradientUnits="userSpaceOnUse">
<stop stop-color="#1B006A"/>
<stop offset="1" stop-color="#1A5CBE"/>
</linearGradient>
<linearGradient id="paint62_linear_137_576" x1="63.6659" y1="102.353" x2="204.92" y2="102.353" gradientUnits="userSpaceOnUse">
<stop stop-color="#1B006A"/>
<stop offset="1" stop-color="#1A5CBE"/>
</linearGradient>
<linearGradient id="paint63_linear_137_576" x1="63.6657" y1="265.566" x2="204.92" y2="265.566" gradientUnits="userSpaceOnUse">
<stop stop-color="#1B006A"/>
<stop offset="1" stop-color="#1A5CBE"/>
</linearGradient>
<linearGradient id="paint64_linear_137_576" x1="63.6658" y1="227.817" x2="204.92" y2="227.817" gradientUnits="userSpaceOnUse">
<stop stop-color="#1B006A"/>
<stop offset="1" stop-color="#1A5CBE"/>
</linearGradient>
<linearGradient id="paint65_linear_137_576" x1="63.6659" y1="303.399" x2="204.92" y2="303.399" gradientUnits="userSpaceOnUse">
<stop stop-color="#1B006A"/>
<stop offset="1" stop-color="#1A5CBE"/>
</linearGradient>
<linearGradient id="paint66_linear_137_576" x1="63.6656" y1="190.153" x2="204.92" y2="190.153" gradientUnits="userSpaceOnUse">
<stop stop-color="#1B006A"/>
<stop offset="1" stop-color="#1A5CBE"/>
</linearGradient>
<linearGradient id="paint67_linear_137_576" x1="63.6665" y1="260.582" x2="204.92" y2="260.582" gradientUnits="userSpaceOnUse">
<stop stop-color="#1B006A"/>
<stop offset="1" stop-color="#1A5CBE"/>
</linearGradient>
<linearGradient id="paint68_linear_137_576" x1="63.6659" y1="190.952" x2="204.92" y2="190.952" gradientUnits="userSpaceOnUse">
<stop stop-color="#1B006A"/>
<stop offset="1" stop-color="#1A5CBE"/>
</linearGradient>
<linearGradient id="paint69_linear_137_576" x1="63.6657" y1="119.219" x2="204.92" y2="119.219" gradientUnits="userSpaceOnUse">
<stop stop-color="#1B006A"/>
<stop offset="1" stop-color="#1A5CBE"/>
</linearGradient>
<linearGradient id="paint70_linear_137_576" x1="63.6664" y1="83.4467" x2="204.92" y2="83.4467" gradientUnits="userSpaceOnUse">
<stop stop-color="#1B006A"/>
<stop offset="1" stop-color="#1A5CBE"/>
</linearGradient>
<linearGradient id="paint71_linear_137_576" x1="-0.000201624" y1="252.59" x2="204.92" y2="252.59" gradientUnits="userSpaceOnUse">
<stop stop-color="#1B006A"/>
<stop offset="1" stop-color="#1A5CBE"/>
</linearGradient>
<linearGradient id="paint72_linear_137_576" x1="63.6663" y1="131.963" x2="204.92" y2="131.963" gradientUnits="userSpaceOnUse">
<stop stop-color="#1B006A"/>
<stop offset="1" stop-color="#1A5CBE"/>
</linearGradient>
<linearGradient id="paint73_linear_137_576" x1="63.6661" y1="93.5411" x2="204.92" y2="93.5411" gradientUnits="userSpaceOnUse">
<stop stop-color="#1B006A"/>
<stop offset="1" stop-color="#1A5CBE"/>
</linearGradient>
<linearGradient id="paint74_linear_137_576" x1="63.6657" y1="347.898" x2="204.92" y2="347.898" gradientUnits="userSpaceOnUse">
<stop stop-color="#1B006A"/>
<stop offset="1" stop-color="#1A5CBE"/>
</linearGradient>
<linearGradient id="paint75_linear_137_576" x1="63.6656" y1="170.49" x2="204.92" y2="170.49" gradientUnits="userSpaceOnUse">
<stop stop-color="#1B006A"/>
<stop offset="1" stop-color="#1A5CBE"/>
</linearGradient>
<linearGradient id="paint76_linear_137_576" x1="-0.000109943" y1="209.227" x2="204.92" y2="209.227" gradientUnits="userSpaceOnUse">
<stop stop-color="#1B006A"/>
<stop offset="1" stop-color="#1A5CBE"/>
</linearGradient>
<linearGradient id="paint77_linear_137_576" x1="63.666" y1="246.408" x2="204.941" y2="246.408" gradientUnits="userSpaceOnUse">
<stop stop-color="#1B006A"/>
<stop offset="1" stop-color="#1A5CBE"/>
</linearGradient>
<linearGradient id="paint78_linear_137_576" x1="-0.000824839" y1="291.033" x2="204.92" y2="291.033" gradientUnits="userSpaceOnUse">
<stop stop-color="#1B006A"/>
<stop offset="1" stop-color="#1A5CBE"/>
</linearGradient>
<linearGradient id="paint79_linear_137_576" x1="63.6663" y1="331.831" x2="204.92" y2="331.831" gradientUnits="userSpaceOnUse">
<stop stop-color="#1B006A"/>
<stop offset="1" stop-color="#1A5CBE"/>
</linearGradient>
<linearGradient id="paint80_linear_137_576" x1="63.6658" y1="325.859" x2="204.92" y2="325.859" gradientUnits="userSpaceOnUse">
<stop stop-color="#1B006A"/>
<stop offset="1" stop-color="#1A5CBE"/>
</linearGradient>
<linearGradient id="paint81_linear_137_576" x1="63.6662" y1="98.7565" x2="204.92" y2="98.7565" gradientUnits="userSpaceOnUse">
<stop stop-color="#1B006A"/>
<stop offset="1" stop-color="#1A5CBE"/>
</linearGradient>
<linearGradient id="paint82_linear_137_576" x1="63.6658" y1="172.193" x2="204.92" y2="172.193" gradientUnits="userSpaceOnUse">
<stop stop-color="#1B006A"/>
<stop offset="1" stop-color="#1A5CBE"/>
</linearGradient>
<linearGradient id="paint83_linear_137_576" x1="-0.000484805" y1="135.433" x2="204.92" y2="135.433" gradientUnits="userSpaceOnUse">
<stop stop-color="#1B006A"/>
<stop offset="1" stop-color="#1A5CBE"/>
</linearGradient>
<linearGradient id="paint84_linear_137_576" x1="63.6657" y1="209.164" x2="204.92" y2="209.164" gradientUnits="userSpaceOnUse">
<stop stop-color="#1B006A"/>
<stop offset="1" stop-color="#1A5CBE"/>
</linearGradient>
<linearGradient id="paint85_linear_137_576" x1="63.6665" y1="287.016" x2="204.921" y2="287.016" gradientUnits="userSpaceOnUse">
<stop stop-color="#1B006A"/>
<stop offset="1" stop-color="#1A5CBE"/>
</linearGradient>
<linearGradient id="paint86_linear_137_576" x1="63.6656" y1="248.258" x2="204.92" y2="248.258" gradientUnits="userSpaceOnUse">
<stop stop-color="#1B006A"/>
<stop offset="1" stop-color="#1A5CBE"/>
</linearGradient>
<linearGradient id="paint87_linear_137_576" x1="63.6658" y1="209.311" x2="204.92" y2="209.311" gradientUnits="userSpaceOnUse">
<stop stop-color="#1B006A"/>
<stop offset="1" stop-color="#1A5CBE"/>
</linearGradient>
<linearGradient id="paint88_linear_137_576" x1="63.6658" y1="341.295" x2="204.92" y2="341.295" gradientUnits="userSpaceOnUse">
<stop stop-color="#1B006A"/>
<stop offset="1" stop-color="#1A5CBE"/>
</linearGradient>
<linearGradient id="paint89_linear_137_576" x1="63.6659" y1="250.319" x2="204.92" y2="250.319" gradientUnits="userSpaceOnUse">
<stop stop-color="#1B006A"/>
<stop offset="1" stop-color="#1A5CBE"/>
</linearGradient>
<linearGradient id="paint90_linear_137_576" x1="63.6654" y1="275.092" x2="204.92" y2="275.092" gradientUnits="userSpaceOnUse">
<stop stop-color="#1B006A"/>
<stop offset="1" stop-color="#1A5CBE"/>
</linearGradient>
<linearGradient id="paint91_linear_137_576" x1="63.666" y1="168.597" x2="204.92" y2="168.597" gradientUnits="userSpaceOnUse">
<stop stop-color="#1B006A"/>
<stop offset="1" stop-color="#1A5CBE"/>
</linearGradient>
<linearGradient id="paint92_linear_137_576" x1="63.6658" y1="363.334" x2="204.92" y2="363.334" gradientUnits="userSpaceOnUse">
<stop stop-color="#1B006A"/>
<stop offset="1" stop-color="#1A5CBE"/>
</linearGradient>
<linearGradient id="paint93_linear_137_576" x1="63.6665" y1="231.119" x2="204.92" y2="231.119" gradientUnits="userSpaceOnUse">
<stop stop-color="#1B006A"/>
<stop offset="1" stop-color="#1A5CBE"/>
</linearGradient>
<linearGradient id="paint94_linear_137_576" x1="63.6654" y1="319.15" x2="204.92" y2="319.15" gradientUnits="userSpaceOnUse">
<stop stop-color="#1B006A"/>
<stop offset="1" stop-color="#1A5CBE"/>
</linearGradient>
<linearGradient id="paint95_linear_137_576" x1="63.666" y1="99.8501" x2="204.92" y2="99.8501" gradientUnits="userSpaceOnUse">
<stop stop-color="#1B006A"/>
<stop offset="1" stop-color="#1A5CBE"/>
</linearGradient>
<linearGradient id="paint96_linear_137_576" x1="63.666" y1="143.487" x2="204.92" y2="143.487" gradientUnits="userSpaceOnUse">
<stop stop-color="#1B006A"/>
<stop offset="1" stop-color="#1A5CBE"/>
</linearGradient>
<linearGradient id="paint97_linear_137_576" x1="63.666" y1="187.25" x2="204.92" y2="187.25" gradientUnits="userSpaceOnUse">
<stop stop-color="#1B006A"/>
<stop offset="1" stop-color="#1A5CBE"/>
</linearGradient>
<linearGradient id="paint98_linear_137_576" x1="63.6665" y1="81.4489" x2="204.92" y2="81.4489" gradientUnits="userSpaceOnUse">
<stop stop-color="#1B006A"/>
<stop offset="1" stop-color="#1A5CBE"/>
</linearGradient>
<linearGradient id="paint99_linear_137_576" x1="63.6665" y1="87.7999" x2="204.921" y2="87.7999" gradientUnits="userSpaceOnUse">
<stop stop-color="#1B006A"/>
<stop offset="1" stop-color="#1A5CBE"/>
</linearGradient>
<linearGradient id="paint100_linear_137_576" x1="63.6657" y1="338.435" x2="204.92" y2="338.435" gradientUnits="userSpaceOnUse">
<stop stop-color="#1B006A"/>
<stop offset="1" stop-color="#1A5CBE"/>
</linearGradient>
<linearGradient id="paint101_linear_137_576" x1="63.6666" y1="355.216" x2="204.921" y2="355.216" gradientUnits="userSpaceOnUse">
<stop stop-color="#1B006A"/>
<stop offset="1" stop-color="#1A5CBE"/>
</linearGradient>
<linearGradient id="paint102_linear_137_576" x1="63.6663" y1="128.156" x2="204.92" y2="128.156" gradientUnits="userSpaceOnUse">
<stop stop-color="#1B006A"/>
<stop offset="1" stop-color="#1A5CBE"/>
</linearGradient>
<linearGradient id="paint103_linear_137_576" x1="63.6662" y1="209.395" x2="204.92" y2="209.395" gradientUnits="userSpaceOnUse">
<stop stop-color="#1B006A"/>
<stop offset="1" stop-color="#1A5CBE"/>
</linearGradient>
<linearGradient id="paint104_linear_137_576" x1="63.6666" y1="295.449" x2="204.921" y2="295.449" gradientUnits="userSpaceOnUse">
<stop stop-color="#1B006A"/>
<stop offset="1" stop-color="#1A5CBE"/>
</linearGradient>
<linearGradient id="paint105_linear_137_576" x1="63.6661" y1="166.494" x2="204.92" y2="166.494" gradientUnits="userSpaceOnUse">
<stop stop-color="#1B006A"/>
<stop offset="1" stop-color="#1A5CBE"/>
</linearGradient>
<linearGradient id="paint106_linear_137_576" x1="-0.000836365" y1="123.929" x2="204.92" y2="123.929" gradientUnits="userSpaceOnUse">
<stop stop-color="#1B006A"/>
<stop offset="1" stop-color="#1A5CBE"/>
</linearGradient>
<linearGradient id="paint107_linear_137_576" x1="-2.15756e-06" y1="277.027" x2="204.92" y2="277.027" gradientUnits="userSpaceOnUse">
<stop stop-color="#1B006A"/>
<stop offset="1" stop-color="#1A5CBE"/>
</linearGradient>
<linearGradient id="paint108_linear_137_576" x1="63.6656" y1="302.957" x2="204.92" y2="302.957" gradientUnits="userSpaceOnUse">
<stop stop-color="#1B006A"/>
<stop offset="1" stop-color="#1A5CBE"/>
</linearGradient>
<linearGradient id="paint109_linear_137_576" x1="63.6663" y1="285.145" x2="204.92" y2="285.145" gradientUnits="userSpaceOnUse">
<stop stop-color="#1B006A"/>
<stop offset="1" stop-color="#1A5CBE"/>
</linearGradient>
<linearGradient id="paint110_linear_137_576" x1="63.6659" y1="315.785" x2="204.92" y2="315.785" gradientUnits="userSpaceOnUse">
<stop stop-color="#1B006A"/>
<stop offset="1" stop-color="#1A5CBE"/>
</linearGradient>
<linearGradient id="paint111_linear_137_576" x1="63.6658" y1="299.403" x2="204.92" y2="299.403" gradientUnits="userSpaceOnUse">
<stop stop-color="#1B006A"/>
<stop offset="1" stop-color="#1A5CBE"/>
</linearGradient>
<linearGradient id="paint112_linear_137_576" x1="63.6665" y1="282.285" x2="204.92" y2="282.285" gradientUnits="userSpaceOnUse">
<stop stop-color="#1B006A"/>
<stop offset="1" stop-color="#1A5CBE"/>
</linearGradient>
<linearGradient id="paint113_linear_137_576" x1="-0.000523319" y1="306.785" x2="204.92" y2="306.785" gradientUnits="userSpaceOnUse">
<stop stop-color="#1B006A"/>
<stop offset="1" stop-color="#1A5CBE"/>
</linearGradient>
<linearGradient id="paint114_linear_137_576" x1="63.6658" y1="320.075" x2="204.92" y2="320.075" gradientUnits="userSpaceOnUse">
<stop stop-color="#1B006A"/>
<stop offset="1" stop-color="#1A5CBE"/>
</linearGradient>
<linearGradient id="paint115_linear_137_576" x1="-0.000382538" y1="271.644" x2="204.92" y2="271.644" gradientUnits="userSpaceOnUse">
<stop stop-color="#1B006A"/>
<stop offset="1" stop-color="#1A5CBE"/>
</linearGradient>
<linearGradient id="paint116_linear_137_576" x1="63.6664" y1="252.822" x2="204.92" y2="252.822" gradientUnits="userSpaceOnUse">
<stop stop-color="#1B006A"/>
<stop offset="1" stop-color="#1A5CBE"/>
</linearGradient>
<linearGradient id="paint117_linear_137_576" x1="63.6658" y1="106.222" x2="204.92" y2="106.222" gradientUnits="userSpaceOnUse">
<stop stop-color="#1B006A"/>
<stop offset="1" stop-color="#1A5CBE"/>
</linearGradient>
<linearGradient id="paint118_linear_137_576" x1="63.6663" y1="135.454" x2="204.92" y2="135.454" gradientUnits="userSpaceOnUse">
<stop stop-color="#1B006A"/>
<stop offset="1" stop-color="#1A5CBE"/>
</linearGradient>
<linearGradient id="paint119_linear_137_576" x1="63.6659" y1="164.727" x2="204.92" y2="164.727" gradientUnits="userSpaceOnUse">
<stop stop-color="#1B006A"/>
<stop offset="1" stop-color="#1A5CBE"/>
</linearGradient>
<linearGradient id="paint120_linear_137_576" x1="63.6661" y1="119.029" x2="204.92" y2="119.029" gradientUnits="userSpaceOnUse">
<stop stop-color="#1B006A"/>
<stop offset="1" stop-color="#1A5CBE"/>
</linearGradient>
<linearGradient id="paint121_linear_137_576" x1="63.666" y1="311.811" x2="204.92" y2="311.811" gradientUnits="userSpaceOnUse">
<stop stop-color="#1B006A"/>
<stop offset="1" stop-color="#1A5CBE"/>
</linearGradient>
<linearGradient id="paint122_linear_137_576" x1="-0.000487952" y1="274.23" x2="204.92" y2="274.23" gradientUnits="userSpaceOnUse">
<stop stop-color="#1B006A"/>
<stop offset="1" stop-color="#1A5CBE"/>
</linearGradient>
<linearGradient id="paint123_linear_137_576" x1="63.6659" y1="223.422" x2="204.92" y2="223.422" gradientUnits="userSpaceOnUse">
<stop stop-color="#1B006A"/>
<stop offset="1" stop-color="#1A5CBE"/>
</linearGradient>
<linearGradient id="paint124_linear_137_576" x1="63.6664" y1="194.043" x2="204.92" y2="194.043" gradientUnits="userSpaceOnUse">
<stop stop-color="#1B006A"/>
<stop offset="1" stop-color="#1A5CBE"/>
</linearGradient>
<linearGradient id="paint125_linear_137_576" x1="63.666" y1="173.77" x2="204.92" y2="173.77" gradientUnits="userSpaceOnUse">
<stop stop-color="#1B006A"/>
<stop offset="1" stop-color="#1A5CBE"/>
</linearGradient>
<linearGradient id="paint126_linear_137_576" x1="63.6657" y1="138.608" x2="204.92" y2="138.608" gradientUnits="userSpaceOnUse">
<stop stop-color="#1B006A"/>
<stop offset="1" stop-color="#1A5CBE"/>
</linearGradient>
<linearGradient id="paint127_linear_137_576" x1="63.666" y1="241.718" x2="204.92" y2="241.718" gradientUnits="userSpaceOnUse">
<stop stop-color="#1B006A"/>
<stop offset="1" stop-color="#1A5CBE"/>
</linearGradient>
<linearGradient id="paint128_linear_137_576" x1="63.6659" y1="209.101" x2="204.92" y2="209.101" gradientUnits="userSpaceOnUse">
<stop stop-color="#1B006A"/>
<stop offset="1" stop-color="#1A5CBE"/>
</linearGradient>
<linearGradient id="paint129_linear_137_576" x1="63.6664" y1="244.704" x2="204.92" y2="244.704" gradientUnits="userSpaceOnUse">
<stop stop-color="#1B006A"/>
<stop offset="1" stop-color="#1A5CBE"/>
</linearGradient>
<linearGradient id="paint130_linear_137_576" x1="63.6659" y1="283.378" x2="204.92" y2="283.378" gradientUnits="userSpaceOnUse">
<stop stop-color="#1B006A"/>
<stop offset="1" stop-color="#1A5CBE"/>
</linearGradient>
<linearGradient id="paint131_linear_137_576" x1="63.6657" y1="320.433" x2="204.92" y2="320.433" gradientUnits="userSpaceOnUse">
<stop stop-color="#1B006A"/>
<stop offset="1" stop-color="#1A5CBE"/>
</linearGradient>
<linearGradient id="paint132_linear_137_576" x1="63.6657" y1="335.259" x2="204.92" y2="335.259" gradientUnits="userSpaceOnUse">
<stop stop-color="#1B006A"/>
<stop offset="1" stop-color="#1A5CBE"/>
</linearGradient>
<linearGradient id="paint133_linear_137_576" x1="63.6662" y1="103.53" x2="204.92" y2="103.53" gradientUnits="userSpaceOnUse">
<stop stop-color="#1B006A"/>
<stop offset="1" stop-color="#1A5CBE"/>
</linearGradient>
<linearGradient id="paint134_linear_137_576" x1="63.6658" y1="280.056" x2="204.92" y2="280.056" gradientUnits="userSpaceOnUse">
<stop stop-color="#1B006A"/>
<stop offset="1" stop-color="#1A5CBE"/>
</linearGradient>
<linearGradient id="paint135_linear_137_576" x1="63.6664" y1="310.949" x2="204.92" y2="310.949" gradientUnits="userSpaceOnUse">
<stop stop-color="#1B006A"/>
<stop offset="1" stop-color="#1A5CBE"/>
</linearGradient>
<linearGradient id="paint136_linear_137_576" x1="-5.87444e-05" y1="243.148" x2="204.92" y2="243.148" gradientUnits="userSpaceOnUse">
<stop stop-color="#1B006A"/>
<stop offset="1" stop-color="#1A5CBE"/>
</linearGradient>
<linearGradient id="paint137_linear_137_576" x1="63.6659" y1="132.699" x2="204.92" y2="132.699" gradientUnits="userSpaceOnUse">
<stop stop-color="#1B006A"/>
<stop offset="1" stop-color="#1A5CBE"/>
</linearGradient>
<linearGradient id="paint138_linear_137_576" x1="63.6657" y1="324.723" x2="204.92" y2="324.723" gradientUnits="userSpaceOnUse">
<stop stop-color="#1B006A"/>
<stop offset="1" stop-color="#1A5CBE"/>
</linearGradient>
<linearGradient id="paint139_linear_137_576" x1="63.6665" y1="209.058" x2="204.92" y2="209.058" gradientUnits="userSpaceOnUse">
<stop stop-color="#1B006A"/>
<stop offset="1" stop-color="#1A5CBE"/>
</linearGradient>
<linearGradient id="paint140_linear_137_576" x1="63.666" y1="329.77" x2="204.92" y2="329.77" gradientUnits="userSpaceOnUse">
<stop stop-color="#1B006A"/>
<stop offset="1" stop-color="#1A5CBE"/>
</linearGradient>
<linearGradient id="paint141_linear_137_576" x1="-0.000284418" y1="315.491" x2="204.92" y2="315.491" gradientUnits="userSpaceOnUse">
<stop stop-color="#1B006A"/>
<stop offset="1" stop-color="#1A5CBE"/>
</linearGradient>
<linearGradient id="paint142_linear_137_576" x1="63.6661" y1="175.2" x2="204.92" y2="175.2" gradientUnits="userSpaceOnUse">
<stop stop-color="#1B006A"/>
<stop offset="1" stop-color="#1A5CBE"/>
</linearGradient>
<clipPath id="clip0_137_576">
<rect width="523" height="390" fill="white"/>
</clipPath>
</defs>
</svg>
