<svg width="609" height="416" viewBox="0 0 609 416" fill="none" xmlns="http://www.w3.org/2000/svg">
<path d="M154.438 219.54C154.438 128.688 225.904 55.0321 314.056 55.0321" stroke="#D2DAED" stroke-opacity="0.5" stroke-width="57" stroke-miterlimit="10"/>
<path d="M473.674 219.54C473.674 310.392 402.208 384.048 314.056 384.048" stroke="#D2DAED" stroke-width="50" stroke-miterlimit="10"/>
<path d="M314.056 55.0321C402.208 55.0321 473.674 128.688 473.674 219.54" stroke="#1B006A" stroke-width="100" stroke-miterlimit="10"/>
<path d="M314.056 384.048C225.904 384.048 154.438 310.392 154.438 219.54" stroke="#1B006A" stroke-width="20" stroke-miterlimit="10"/>
<path d="M428.542 104.915L494.442 50.5306H609" stroke="black" stroke-width="2" stroke-miterlimit="10"/>
<path d="M435.25 113.551C430.626 117.375 423.875 116.596 420.163 111.829C416.452 107.063 417.209 100.105 421.833 96.2804C426.458 92.4556 433.209 93.2353 436.92 98.0015C440.631 102.768 439.875 109.726 435.25 113.551Z" fill="#1A5CBE"/>
<path d="M201.796 104.915L154.437 65.1676H38.374" stroke="black" stroke-width="2" stroke-miterlimit="10"/>
<path d="M206.376 100.317C209.791 103.096 210.3 108.123 207.522 111.537C204.743 114.952 199.716 115.461 196.302 112.683C192.887 109.904 192.378 104.877 195.156 101.463C197.935 98.0479 202.962 97.5388 206.376 100.317Z" fill="#1A5CBE"/>
<path d="M434.466 323.234L467.48 384.048H546.206" stroke="black" stroke-width="2" stroke-miterlimit="10"/>
<path d="M427.616 327.556C425.463 323.609 426.841 318.605 430.68 316.402C434.519 314.2 439.387 315.606 441.529 319.553C443.682 323.5 442.303 328.505 438.464 330.708C434.625 332.91 429.758 331.504 427.616 327.556Z" fill="#1A5CBE"/>
<path d="M187.851 323.234L159.704 353.641H0" stroke="black" stroke-width="2" stroke-miterlimit="10"/>
<path d="M186.632 317.813C188.344 315.974 191.183 315.9 192.973 317.66C194.763 319.419 194.834 322.337 193.122 324.176C191.41 326.015 188.57 326.088 186.781 324.329C184.991 322.57 184.919 319.652 186.632 317.813Z" fill="#1A5CBE"/>
<path d="M511.791 33.2722L516.239 44.6642H514.559L513.295 41.1762H508.511L507.215 44.6642H505.615L510.095 33.2722H511.791ZM512.847 39.9762L510.911 34.7122L508.943 39.9762H512.847ZM525.446 36.6162L523.974 36.6322C523.814 35.0802 522.87 34.3122 521.142 34.3122C520.326 34.3122 519.686 34.4722 519.238 34.8082C518.79 35.1282 518.566 35.5922 518.566 36.2002C518.566 36.4082 518.598 36.6002 518.662 36.7602C518.726 36.9202 518.838 37.0482 518.998 37.1762C519.158 37.3042 519.302 37.4002 519.43 37.4962C519.574 37.5762 519.798 37.6562 520.086 37.7362C520.39 37.8322 520.63 37.8962 520.806 37.9282C520.998 37.9602 521.27 38.0242 521.654 38.1042C522.134 38.2002 522.518 38.2962 522.822 38.3762C523.142 38.4562 523.51 38.5842 523.926 38.7602C524.358 38.9522 524.694 39.1442 524.95 39.3682C525.206 39.5922 525.414 39.8802 525.606 40.2322C525.798 40.6002 525.878 41.0162 525.878 41.4642C525.878 42.2642 525.654 42.9362 525.206 43.4802C524.758 44.0242 524.214 44.3922 523.574 44.6002C522.934 44.8242 522.23 44.9202 521.446 44.9202C520.022 44.9202 518.886 44.5842 518.022 43.9122C517.158 43.2402 516.726 42.2322 516.726 40.9042H518.182C518.214 41.8802 518.55 42.5842 519.158 43.0322C519.782 43.4802 520.582 43.7042 521.574 43.7042C522.358 43.7042 523.03 43.5282 523.59 43.2082C524.134 42.8882 524.422 42.3602 524.422 41.6242C524.422 41.2722 524.342 40.9842 524.198 40.7442C524.038 40.5042 523.814 40.3122 523.494 40.1522C523.174 39.9922 522.854 39.8802 522.534 39.7842C522.214 39.6882 521.782 39.5762 521.27 39.4642C521.19 39.4482 521.142 39.4322 521.11 39.4162C519.926 39.1602 519.158 38.9362 518.806 38.7762C517.686 38.2962 517.142 37.4802 517.142 36.2962C517.142 35.2082 517.542 34.4082 518.342 33.8642C519.142 33.3202 520.118 33.0482 521.254 33.0482C522.502 33.0482 523.51 33.3522 524.246 33.9442C524.998 34.5522 525.398 35.4322 525.446 36.6162ZM535.821 36.6162L534.349 36.6322C534.189 35.0802 533.245 34.3122 531.517 34.3122C530.701 34.3122 530.061 34.4722 529.613 34.8082C529.165 35.1282 528.941 35.5922 528.941 36.2002C528.941 36.4082 528.973 36.6002 529.037 36.7602C529.101 36.9202 529.213 37.0482 529.373 37.1762C529.533 37.3042 529.677 37.4002 529.805 37.4962C529.949 37.5762 530.173 37.6562 530.461 37.7362C530.765 37.8322 531.005 37.8962 531.181 37.9282C531.373 37.9602 531.645 38.0242 532.029 38.1042C532.509 38.2002 532.893 38.2962 533.197 38.3762C533.517 38.4562 533.885 38.5842 534.301 38.7602C534.733 38.9522 535.069 39.1442 535.325 39.3682C535.581 39.5922 535.789 39.8802 535.981 40.2322C536.173 40.6002 536.253 41.0162 536.253 41.4642C536.253 42.2642 536.029 42.9362 535.581 43.4802C535.133 44.0242 534.589 44.3922 533.949 44.6002C533.309 44.8242 532.605 44.9202 531.821 44.9202C530.397 44.9202 529.261 44.5842 528.397 43.9122C527.533 43.2402 527.101 42.2322 527.101 40.9042H528.557C528.589 41.8802 528.925 42.5842 529.533 43.0322C530.157 43.4802 530.957 43.7042 531.949 43.7042C532.733 43.7042 533.405 43.5282 533.965 43.2082C534.509 42.8882 534.797 42.3602 534.797 41.6242C534.797 41.2722 534.717 40.9842 534.573 40.7442C534.413 40.5042 534.189 40.3122 533.869 40.1522C533.549 39.9922 533.229 39.8802 532.909 39.7842C532.589 39.6882 532.157 39.5762 531.645 39.4642C531.565 39.4482 531.517 39.4322 531.485 39.4162C530.301 39.1602 529.533 38.9362 529.181 38.7762C528.061 38.2962 527.517 37.4802 527.517 36.2962C527.517 35.2082 527.917 34.4082 528.717 33.8642C529.517 33.3202 530.493 33.0482 531.629 33.0482C532.877 33.0482 533.885 33.3522 534.621 33.9442C535.373 34.5522 535.773 35.4322 535.821 36.6162ZM538.052 33.2722H539.572V40.4562C539.572 41.5762 539.812 42.3762 540.292 42.8882C540.772 43.4002 541.556 43.6562 542.644 43.6562C543.764 43.6562 544.548 43.4002 545.012 42.8722C545.476 42.3602 545.716 41.5442 545.716 40.4562V33.2722H547.236V40.0562C547.236 41.7202 546.884 42.9522 546.196 43.7362C545.492 44.5202 544.308 44.9042 542.644 44.9042C541.012 44.9042 539.844 44.5362 539.124 43.7682C538.404 43.0002 538.052 41.8162 538.052 40.2162V33.2722ZM549.678 33.2722H554.686C557.23 33.2722 558.51 34.3282 558.51 36.4242C558.51 37.0962 558.318 37.6722 557.966 38.1842C557.614 38.6962 557.134 39.0322 556.558 39.1922C556.942 39.2882 557.246 39.4002 557.486 39.5602C557.71 39.7202 557.886 39.9442 557.998 40.2322C558.094 40.5202 558.174 40.7762 558.206 41.0002C558.238 41.2242 558.254 41.5602 558.286 41.9922C558.286 42.0402 558.286 42.1522 558.302 42.3122C558.302 42.4722 558.318 42.5842 558.318 42.6482C558.318 42.7122 558.318 42.8082 558.334 42.9522C558.35 43.1122 558.366 43.2242 558.382 43.2882C558.382 43.3682 558.398 43.4642 558.43 43.5922C558.446 43.7202 558.478 43.8322 558.51 43.9122C558.542 43.9922 558.574 44.0882 558.622 44.1842C558.654 44.2802 558.702 44.3762 558.766 44.4562C558.814 44.5362 558.878 44.6002 558.942 44.6642H557.214C557.134 44.5682 557.07 44.4242 557.022 44.2642C556.974 44.1042 556.942 43.9282 556.926 43.7042C556.894 43.4802 556.878 43.3042 556.878 43.1762C556.862 43.0482 556.846 42.8402 556.846 42.5842C556.83 42.3282 556.83 42.1842 556.83 42.1522C556.766 41.1922 556.574 40.5362 556.222 40.2162C555.87 39.8962 555.198 39.7362 554.174 39.7362H551.182V44.6642H549.678V33.2722ZM551.182 34.5522V38.5362H554.014C554.366 38.5362 554.654 38.5362 554.894 38.5042C555.134 38.4882 555.406 38.4402 555.694 38.3602C555.982 38.2962 556.206 38.1842 556.382 38.0402C556.558 37.9122 556.702 37.7042 556.83 37.4482C556.942 37.1922 557.006 36.8882 557.006 36.5202C557.006 35.7522 556.766 35.2402 556.302 34.9682C555.838 34.6962 555.214 34.5522 554.414 34.5522H551.182ZM565.416 33.2722L569.864 44.6642H568.184L566.92 41.1762H562.136L560.84 44.6642H559.24L563.72 33.2722H565.416ZM566.472 39.9762L564.536 34.7122L562.568 39.9762H566.472ZM570.943 33.2722H572.591L578.607 42.5202V33.2722H580.063V44.6642H578.367L572.383 35.5282V44.6642H570.943V33.2722ZM592.201 40.3602C592.073 41.8002 591.561 42.9362 590.697 43.7362C589.833 44.5362 588.681 44.9362 587.257 44.9362C585.641 44.9362 584.361 44.4082 583.417 43.3362C582.457 42.2642 581.993 40.8082 581.993 38.9842C581.993 37.2882 582.457 35.8642 583.417 34.7282C584.377 33.5922 585.689 33.0162 587.385 33.0162C588.585 33.0162 589.641 33.3522 590.553 33.9922C591.481 34.6482 591.993 35.5442 592.089 36.6962H590.585C590.425 35.9602 590.041 35.3682 589.465 34.9522C588.889 34.5362 588.185 34.3122 587.337 34.3122C586.073 34.3122 585.113 34.7602 584.473 35.6562C583.833 36.5522 583.513 37.6562 583.513 38.9682C583.513 40.4242 583.849 41.5602 584.537 42.3922C585.209 43.2242 586.153 43.6402 587.337 43.6402C588.297 43.6402 589.081 43.3682 589.657 42.8082C590.233 42.2482 590.569 41.4322 590.697 40.3602H592.201ZM601.988 33.2722V34.5842H595.604V38.1522H601.572V39.4162H595.604V43.3522H602.068V44.6642H594.1V33.2722H601.988Z" fill="#1A5CBE"/>
<path d="M62.3199 48.6348L66.7679 60.0268H65.0879L63.8239 56.5388H59.0399L57.7439 60.0268H56.1439L60.6239 48.6348H62.3199ZM63.3759 55.3388L61.4399 50.0748L59.4719 55.3388H63.3759ZM67.9109 48.6348H71.6069C73.5429 48.6348 74.9669 49.0828 75.8789 49.9788C76.8069 50.8748 77.2549 52.2988 77.2549 54.2348C77.2549 56.1548 76.8389 57.5948 75.9749 58.5708C75.1269 59.5468 73.7669 60.0268 71.8949 60.0268H67.9109V48.6348ZM69.3989 49.9308L69.4149 58.7468H71.7029C73.1269 58.7468 74.1669 58.3948 74.8069 57.6908C75.4469 56.9868 75.7669 55.8988 75.7669 54.4108C75.7669 52.8588 75.4629 51.7228 74.8229 51.0028C74.1989 50.2988 73.1269 49.9308 71.6229 49.9308H69.3989ZM77.8805 48.6348H79.5445L82.8245 58.5548L86.1365 48.6348H87.7205L83.6565 60.0268H81.9285L77.8805 48.6348ZM90.5258 48.6348V60.0268H89.0218V48.6348H90.5258ZM101.162 51.9788L99.6904 51.9948C99.5304 50.4428 98.5864 49.6748 96.8584 49.6748C96.0424 49.6748 95.4024 49.8348 94.9544 50.1708C94.5064 50.4908 94.2824 50.9548 94.2824 51.5628C94.2824 51.7708 94.3144 51.9628 94.3784 52.1228C94.4424 52.2828 94.5544 52.4108 94.7144 52.5388C94.8744 52.6668 95.0184 52.7628 95.1464 52.8588C95.2904 52.9388 95.5144 53.0188 95.8024 53.0988C96.1064 53.1948 96.3464 53.2588 96.5224 53.2908C96.7144 53.3228 96.9864 53.3868 97.3704 53.4668C97.8504 53.5628 98.2344 53.6588 98.5384 53.7388C98.8584 53.8188 99.2264 53.9468 99.6424 54.1228C100.074 54.3148 100.41 54.5068 100.666 54.7308C100.922 54.9548 101.13 55.2428 101.322 55.5948C101.514 55.9628 101.594 56.3788 101.594 56.8268C101.594 57.6268 101.37 58.2988 100.922 58.8428C100.474 59.3868 99.9304 59.7548 99.2904 59.9628C98.6504 60.1868 97.9464 60.2828 97.1624 60.2828C95.7384 60.2828 94.6024 59.9468 93.7384 59.2748C92.8744 58.6028 92.4424 57.5948 92.4424 56.2668H93.8984C93.9304 57.2428 94.2664 57.9468 94.8744 58.3948C95.4984 58.8428 96.2984 59.0668 97.2904 59.0668C98.0744 59.0668 98.7464 58.8908 99.3064 58.5708C99.8504 58.2508 100.138 57.7228 100.138 56.9868C100.138 56.6348 100.058 56.3468 99.9144 56.1068C99.7544 55.8668 99.5304 55.6748 99.2104 55.5148C98.8904 55.3548 98.5704 55.2428 98.2504 55.1468C97.9304 55.0508 97.4984 54.9388 96.9864 54.8268C96.9064 54.8108 96.8584 54.7948 96.8264 54.7788C95.6424 54.5228 94.8744 54.2988 94.5224 54.1388C93.4024 53.6588 92.8584 52.8428 92.8584 51.6588C92.8584 50.5708 93.2584 49.7708 94.0584 49.2268C94.8584 48.6828 95.8344 48.4108 96.9704 48.4108C98.2184 48.4108 99.2264 48.7148 99.9624 49.3068C100.714 49.9148 101.114 50.7948 101.162 51.9788ZM108.273 48.3628C110.001 48.3628 111.345 48.9068 112.305 49.9948C113.265 51.0828 113.745 52.4908 113.745 54.2348C113.745 55.9948 113.265 57.4508 112.321 58.5868C111.361 59.7388 110.017 60.2988 108.289 60.2988C107.393 60.2988 106.609 60.1388 105.905 59.8188C105.201 59.4988 104.625 59.0668 104.177 58.4908C103.729 57.9308 103.393 57.2908 103.169 56.5548C102.945 55.8348 102.833 55.0508 102.833 54.2028C102.833 52.4268 103.313 51.0028 104.305 49.9468C105.297 48.8908 106.609 48.3628 108.273 48.3628ZM108.273 49.6748C106.993 49.6748 106.017 50.1228 105.345 51.0188C104.673 51.9148 104.321 53.0028 104.321 54.3148C104.321 55.7548 104.689 56.8908 105.409 57.7388C106.129 58.5868 107.089 59.0028 108.289 59.0028C109.489 59.0028 110.449 58.5868 111.169 57.7228C111.873 56.8748 112.241 55.7388 112.241 54.3148C112.241 52.9068 111.873 51.7868 111.153 50.9388C110.433 50.1068 109.473 49.6748 108.273 49.6748ZM115.63 48.6348H120.638C123.182 48.6348 124.462 49.6908 124.462 51.7868C124.462 52.4588 124.27 53.0348 123.918 53.5468C123.566 54.0588 123.086 54.3948 122.51 54.5548C122.894 54.6508 123.198 54.7628 123.438 54.9228C123.662 55.0828 123.838 55.3068 123.95 55.5948C124.046 55.8828 124.126 56.1388 124.158 56.3628C124.19 56.5868 124.206 56.9228 124.238 57.3548C124.238 57.4028 124.238 57.5148 124.254 57.6748C124.254 57.8348 124.27 57.9468 124.27 58.0108C124.27 58.0748 124.27 58.1708 124.286 58.3148C124.302 58.4748 124.318 58.5868 124.334 58.6508C124.334 58.7308 124.35 58.8268 124.382 58.9548C124.398 59.0828 124.43 59.1948 124.462 59.2748C124.494 59.3548 124.526 59.4508 124.574 59.5468C124.606 59.6428 124.654 59.7388 124.718 59.8188C124.766 59.8988 124.83 59.9628 124.894 60.0268H123.166C123.086 59.9308 123.022 59.7868 122.974 59.6268C122.926 59.4668 122.894 59.2908 122.878 59.0668C122.846 58.8428 122.83 58.6668 122.83 58.5388C122.814 58.4108 122.798 58.2028 122.798 57.9468C122.782 57.6908 122.782 57.5468 122.782 57.5148C122.718 56.5548 122.526 55.8988 122.174 55.5788C121.822 55.2588 121.15 55.0988 120.126 55.0988H117.134V60.0268H115.63V48.6348ZM117.134 49.9148V53.8988H119.966C120.318 53.8988 120.606 53.8988 120.846 53.8668C121.086 53.8508 121.358 53.8028 121.646 53.7228C121.934 53.6588 122.158 53.5468 122.334 53.4028C122.51 53.2748 122.654 53.0668 122.782 52.8108C122.894 52.5548 122.958 52.2508 122.958 51.8828C122.958 51.1148 122.718 50.6028 122.254 50.3308C121.79 50.0588 121.166 49.9148 120.366 49.9148H117.134ZM135.093 48.6348L130.693 55.3708V60.0268H129.205V55.3708L124.773 48.6348H126.581L129.989 54.0588L133.365 48.6348H135.093Z" fill="#1A5CBE"/>
<path d="M22.2879 335.405L27.1519 335.421C28.1919 335.421 29.0559 335.645 29.7439 336.109C30.4319 336.557 30.7839 337.277 30.7839 338.269C30.7839 338.829 30.6239 339.325 30.3199 339.773C30.0159 340.221 29.6159 340.525 29.1039 340.717C29.8079 340.877 30.3359 341.197 30.7199 341.709C31.1039 342.205 31.2959 342.829 31.2959 343.581C31.2959 345.725 29.8559 346.797 26.9759 346.797H22.2879V335.405ZM23.7599 336.701V340.301H26.4639C26.7679 340.301 27.0239 340.285 27.2479 340.269C27.4719 340.253 27.7119 340.221 27.9999 340.157C28.2719 340.093 28.4959 339.997 28.6559 339.869C28.8159 339.741 28.9599 339.565 29.0879 339.341C29.2159 339.101 29.2639 338.813 29.2639 338.493C29.2639 338.157 29.2159 337.869 29.1039 337.645C29.0079 337.421 28.8799 337.245 28.7199 337.117C28.5759 336.989 28.3679 336.909 28.1119 336.845C27.8559 336.781 27.6159 336.733 27.4079 336.717C27.1999 336.701 26.9279 336.701 26.6079 336.701H23.7599ZM23.7599 341.485L23.7439 345.549H26.7519C27.1359 345.549 27.4399 345.533 27.6639 345.517C27.9039 345.501 28.1759 345.453 28.4639 345.389C28.7519 345.309 28.9919 345.197 29.1519 345.053C29.3279 344.909 29.4719 344.701 29.5839 344.429C29.7119 344.157 29.7599 343.837 29.7599 343.453C29.7599 343.133 29.7279 342.845 29.6479 342.621C29.5679 342.381 29.4399 342.189 29.2479 342.061C29.0559 341.917 28.8799 341.805 28.7199 341.725C28.5599 341.629 28.3199 341.581 28.0159 341.549C27.6959 341.517 27.4559 341.485 27.2959 341.485C27.1199 341.485 26.8639 341.485 26.5119 341.485H23.7599ZM33.161 335.405H34.681V342.589C34.681 343.709 34.921 344.509 35.401 345.021C35.881 345.533 36.665 345.789 37.753 345.789C38.873 345.789 39.657 345.533 40.121 345.005C40.585 344.493 40.825 343.677 40.825 342.589V335.405H42.345V342.189C42.345 343.853 41.993 345.085 41.305 345.869C40.601 346.653 39.417 347.037 37.753 347.037C36.121 347.037 34.953 346.669 34.233 345.901C33.513 345.133 33.161 343.949 33.161 342.349V335.405ZM52.8519 338.749L51.3799 338.765C51.2199 337.213 50.2759 336.445 48.5479 336.445C47.7319 336.445 47.0919 336.605 46.6439 336.941C46.1959 337.261 45.9719 337.725 45.9719 338.333C45.9719 338.541 46.0039 338.733 46.0679 338.893C46.1319 339.053 46.2439 339.181 46.4039 339.309C46.5639 339.437 46.7079 339.533 46.8359 339.629C46.9799 339.709 47.2039 339.789 47.4919 339.869C47.7959 339.965 48.0359 340.029 48.2119 340.061C48.4039 340.093 48.6759 340.157 49.0599 340.237C49.5399 340.333 49.9239 340.429 50.2279 340.509C50.5479 340.589 50.9159 340.717 51.3319 340.893C51.7639 341.085 52.0999 341.277 52.3559 341.501C52.6119 341.725 52.8199 342.013 53.0119 342.365C53.2039 342.733 53.2839 343.149 53.2839 343.597C53.2839 344.397 53.0599 345.069 52.6119 345.613C52.1639 346.157 51.6199 346.525 50.9799 346.733C50.3399 346.957 49.6359 347.053 48.8519 347.053C47.4279 347.053 46.2919 346.717 45.4279 346.045C44.5639 345.373 44.1319 344.365 44.1319 343.037H45.5879C45.6199 344.013 45.9559 344.717 46.5639 345.165C47.1879 345.613 47.9879 345.837 48.9799 345.837C49.7639 345.837 50.4359 345.661 50.9959 345.341C51.5399 345.021 51.8279 344.493 51.8279 343.757C51.8279 343.405 51.7479 343.117 51.6039 342.877C51.4439 342.637 51.2199 342.445 50.8999 342.285C50.5799 342.125 50.2599 342.013 49.9399 341.917C49.6199 341.821 49.1879 341.709 48.6759 341.597C48.5959 341.581 48.5479 341.565 48.5159 341.549C47.3319 341.293 46.5639 341.069 46.2119 340.909C45.0919 340.429 44.5479 339.613 44.5479 338.429C44.5479 337.341 44.9479 336.541 45.7479 335.997C46.5479 335.453 47.5239 335.181 48.6599 335.181C49.9079 335.181 50.9159 335.485 51.6519 336.077C52.4039 336.685 52.8039 337.565 52.8519 338.749ZM56.7309 335.405V346.797H55.2269V335.405H56.7309ZM59.2395 335.405H60.8875L66.9035 344.653V335.405H68.3595V346.797H66.6635L60.6795 337.661V346.797H59.2395V335.405ZM78.7384 335.405V336.717H72.3544V340.285H78.3224V341.549H72.3544V345.485H78.8184V346.797H70.8504V335.405H78.7384ZM88.6957 338.749L87.2237 338.765C87.0637 337.213 86.1197 336.445 84.3917 336.445C83.5757 336.445 82.9357 336.605 82.4877 336.941C82.0397 337.261 81.8157 337.725 81.8157 338.333C81.8157 338.541 81.8477 338.733 81.9117 338.893C81.9757 339.053 82.0877 339.181 82.2477 339.309C82.4077 339.437 82.5517 339.533 82.6797 339.629C82.8237 339.709 83.0477 339.789 83.3357 339.869C83.6397 339.965 83.8797 340.029 84.0557 340.061C84.2477 340.093 84.5197 340.157 84.9037 340.237C85.3837 340.333 85.7677 340.429 86.0717 340.509C86.3917 340.589 86.7597 340.717 87.1757 340.893C87.6077 341.085 87.9437 341.277 88.1997 341.501C88.4557 341.725 88.6637 342.013 88.8557 342.365C89.0477 342.733 89.1277 343.149 89.1277 343.597C89.1277 344.397 88.9037 345.069 88.4557 345.613C88.0077 346.157 87.4637 346.525 86.8237 346.733C86.1837 346.957 85.4797 347.053 84.6957 347.053C83.2717 347.053 82.1357 346.717 81.2717 346.045C80.4077 345.373 79.9757 344.365 79.9757 343.037H81.4317C81.4637 344.013 81.7997 344.717 82.4077 345.165C83.0317 345.613 83.8317 345.837 84.8237 345.837C85.6077 345.837 86.2797 345.661 86.8397 345.341C87.3837 345.021 87.6717 344.493 87.6717 343.757C87.6717 343.405 87.5917 343.117 87.4477 342.877C87.2877 342.637 87.0637 342.445 86.7437 342.285C86.4237 342.125 86.1037 342.013 85.7837 341.917C85.4637 341.821 85.0317 341.709 84.5197 341.597C84.4397 341.581 84.3917 341.565 84.3597 341.549C83.1757 341.293 82.4077 341.069 82.0557 340.909C80.9357 340.429 80.3917 339.613 80.3917 338.429C80.3917 337.341 80.7917 336.541 81.5917 335.997C82.3917 335.453 83.3677 335.181 84.5037 335.181C85.7517 335.181 86.7597 335.485 87.4957 336.077C88.2477 336.685 88.6477 337.565 88.6957 338.749ZM99.0707 338.749L97.5987 338.765C97.4387 337.213 96.4947 336.445 94.7667 336.445C93.9507 336.445 93.3107 336.605 92.8627 336.941C92.4147 337.261 92.1907 337.725 92.1907 338.333C92.1907 338.541 92.2227 338.733 92.2867 338.893C92.3507 339.053 92.4627 339.181 92.6227 339.309C92.7827 339.437 92.9267 339.533 93.0547 339.629C93.1987 339.709 93.4227 339.789 93.7107 339.869C94.0147 339.965 94.2547 340.029 94.4307 340.061C94.6227 340.093 94.8947 340.157 95.2787 340.237C95.7587 340.333 96.1427 340.429 96.4467 340.509C96.7667 340.589 97.1347 340.717 97.5507 340.893C97.9827 341.085 98.3187 341.277 98.5747 341.501C98.8307 341.725 99.0387 342.013 99.2307 342.365C99.4227 342.733 99.5027 343.149 99.5027 343.597C99.5027 344.397 99.2787 345.069 98.8307 345.613C98.3827 346.157 97.8387 346.525 97.1987 346.733C96.5587 346.957 95.8547 347.053 95.0707 347.053C93.6467 347.053 92.5107 346.717 91.6467 346.045C90.7827 345.373 90.3507 344.365 90.3507 343.037H91.8067C91.8387 344.013 92.1747 344.717 92.7827 345.165C93.4067 345.613 94.2067 345.837 95.1987 345.837C95.9827 345.837 96.6547 345.661 97.2147 345.341C97.7587 345.021 98.0467 344.493 98.0467 343.757C98.0467 343.405 97.9667 343.117 97.8227 342.877C97.6627 342.637 97.4387 342.445 97.1187 342.285C96.7987 342.125 96.4787 342.013 96.1587 341.917C95.8387 341.821 95.4067 341.709 94.8947 341.597C94.8147 341.581 94.7667 341.565 94.7347 341.549C93.5507 341.293 92.7827 341.069 92.4307 340.909C91.3107 340.429 90.7667 339.613 90.7667 338.429C90.7667 337.341 91.1667 336.541 91.9667 335.997C92.7667 335.453 93.7427 335.181 94.8787 335.181C96.1267 335.181 97.1347 335.485 97.8707 336.077C98.6227 336.685 99.0227 337.565 99.0707 338.749ZM113.899 338.749L112.427 338.765C112.267 337.213 111.323 336.445 109.595 336.445C108.779 336.445 108.139 336.605 107.691 336.941C107.243 337.261 107.019 337.725 107.019 338.333C107.019 338.541 107.051 338.733 107.115 338.893C107.179 339.053 107.291 339.181 107.451 339.309C107.611 339.437 107.755 339.533 107.883 339.629C108.027 339.709 108.251 339.789 108.539 339.869C108.843 339.965 109.083 340.029 109.259 340.061C109.451 340.093 109.723 340.157 110.107 340.237C110.587 340.333 110.971 340.429 111.275 340.509C111.595 340.589 111.963 340.717 112.379 340.893C112.811 341.085 113.147 341.277 113.403 341.501C113.659 341.725 113.867 342.013 114.059 342.365C114.251 342.733 114.331 343.149 114.331 343.597C114.331 344.397 114.107 345.069 113.659 345.613C113.211 346.157 112.667 346.525 112.027 346.733C111.387 346.957 110.683 347.053 109.899 347.053C108.475 347.053 107.339 346.717 106.475 346.045C105.611 345.373 105.179 344.365 105.179 343.037H106.635C106.667 344.013 107.003 344.717 107.611 345.165C108.235 345.613 109.035 345.837 110.027 345.837C110.811 345.837 111.483 345.661 112.043 345.341C112.587 345.021 112.875 344.493 112.875 343.757C112.875 343.405 112.795 343.117 112.651 342.877C112.491 342.637 112.267 342.445 111.947 342.285C111.627 342.125 111.307 342.013 110.987 341.917C110.667 341.821 110.235 341.709 109.723 341.597C109.643 341.581 109.595 341.565 109.563 341.549C108.379 341.293 107.611 341.069 107.259 340.909C106.139 340.429 105.595 339.613 105.595 338.429C105.595 337.341 105.995 336.541 106.795 335.997C107.595 335.453 108.571 335.181 109.707 335.181C110.955 335.181 111.963 335.485 112.699 336.077C113.451 336.685 113.851 337.565 113.899 338.749ZM121.01 335.133C122.738 335.133 124.082 335.677 125.042 336.765C126.002 337.853 126.482 339.261 126.482 341.005C126.482 342.765 126.002 344.221 125.058 345.357C124.098 346.509 122.754 347.069 121.026 347.069C120.13 347.069 119.346 346.909 118.642 346.589C117.938 346.269 117.362 345.837 116.914 345.261C116.466 344.701 116.13 344.061 115.906 343.325C115.682 342.605 115.57 341.821 115.57 340.973C115.57 339.197 116.05 337.773 117.042 336.717C118.034 335.661 119.346 335.133 121.01 335.133ZM121.01 336.445C119.73 336.445 118.754 336.893 118.082 337.789C117.41 338.685 117.058 339.773 117.058 341.085C117.058 342.525 117.426 343.661 118.146 344.509C118.866 345.357 119.826 345.773 121.026 345.773C122.226 345.773 123.186 345.357 123.906 344.493C124.61 343.645 124.978 342.509 124.978 341.085C124.978 339.677 124.61 338.557 123.89 337.709C123.17 336.877 122.21 336.445 121.01 336.445ZM135.934 345.485V346.797H128.382V335.405H129.886V345.485H135.934ZM139.097 345.021V346.797H137.321V345.021H139.097Z" fill="#1A5CBE"/>
<path d="M499.574 367.154V368.466H495.75V378.546H494.246V368.466H490.422V367.154H499.574ZM504.173 367.154L508.621 378.546H506.941L505.677 375.058H500.893L499.597 378.546H497.997L502.477 367.154H504.173ZM505.229 373.858L503.293 368.594L501.325 373.858H505.229ZM518.02 367.154L514.228 372.674L518.228 378.546H516.404L513.332 373.858L510.148 378.546H508.42L512.436 372.674L508.676 367.154H510.484L513.348 371.538L516.308 367.154H518.02Z" fill="#1A5CBE"/>
</svg>
