<?xml version="1.0" encoding="UTF-8"?>
<svg id="Layer_1" xmlns="http://www.w3.org/2000/svg" version="1.1" viewBox="0 0 1080 566">
  <!-- Generator: Adobe Illustrator 30.0.0, SVG Export Plug-In . SVG Version: 2.1.1 Build 123)  -->
  <defs>
    <style>
      .st0 {
        fill: navy;
      }
    </style>
  </defs>
  <g>
    <polygon class="st0" points="184.86 297.17 164.84 328.95 132.02 328.95 168.52 271.98 184.86 297.17"/>
    <polygon class="st0" points="191.74 307.72 204.1 328.95 180.34 328.95 191.74 307.72"/>
    <polygon class="st0" points="191.74 286.59 175.34 261.34 191.06 236.82 207.56 262.23 191.74 286.59"/>
    <polygon class="st0" points="250.9 328.95 217.89 328.95 198.61 297.17 214.43 272.81 250.9 328.95"/>
  </g>
  <g>
    <path class="st0" d="M321.98,265.09l-30.72,63.93h-11.23l42.41-88.17,38.24,88.17h-10.95l-27.75-63.93Z"/>
    <path class="st0" d="M438.82,241.1l-29.79,44.09,29.61,43.84h-12.81l-23.2-34.29-23.29,34.29h-12.71l29.61-43.84-29.88-44.09h12.81l23.48,34.67,23.39-34.67h12.81Z"/>
    <path class="st0" d="M497.15,280.35c2.38,1.3,4.47,3.08,6.27,5.34,1.79,2.26,3.2,4.92,4.22,7.98,1.02,3.06,1.53,6.3,1.53,9.73v.75c0,3.43-.51,6.66-1.53,9.67-1.02,3.01-2.43,5.65-4.22,7.91-1.8,2.26-3.89,4.06-6.27,5.4-2.38,1.34-4.93,2.01-7.66,2.01h-44.18l9.65-12.69h34.52c1.42,0,2.75-.31,3.99-.95,1.24-.63,2.32-1.52,3.25-2.65.93-1.13,1.65-2.44,2.18-3.91.52-1.47.79-3.05.79-4.73v-.76c0-1.68-.26-3.28-.79-4.8-.53-1.52-1.25-2.84-2.18-3.98-.93-1.13-2.01-2.02-3.25-2.65-1.24-.63-2.57-.95-3.99-.95h-29.05c-2.72,0-5.28-.65-7.66-1.94-2.38-1.3-4.47-3.07-6.26-5.32-1.8-2.25-3.2-4.89-4.22-7.89-1.02-3.01-1.53-6.22-1.53-9.65s.51-6.66,1.53-9.71c1.02-3.05,2.43-5.7,4.22-7.96,1.79-2.25,3.88-4.03,6.26-5.32,2.38-1.29,4.93-1.94,7.66-1.94h42.88l-9.74,12.69h-33.13c-1.42,0-2.75.31-3.99.94-1.24.63-2.32,1.49-3.25,2.58-.93,1.09-1.66,2.39-2.18,3.89-.53,1.51-.79,3.1-.79,4.77s.26,3.25.79,4.71c.52,1.47,1.25,2.76,2.18,3.89.93,1.13,2.01,2.01,3.25,2.64,1.24.63,2.57.94,3.99.94h29.05c2.72,0,5.27.65,7.66,1.95Z"/>
    <path class="st0" d="M604.58,279.79c2.35,2.6,4.19,5.76,5.52,9.48,1.33,3.73,2,7.77,2,12.12,0,3.85-.54,7.45-1.62,10.8-1.08,3.35-2.55,6.28-4.41,8.79-1.86,2.51-4.02,4.5-6.5,5.97-2.48,1.47-5.14,2.2-7.98,2.2h-52.72v-55.39l.09-32.66h52.69c2.42,0,4.71.55,6.88,1.63,2.17,1.09,4.12,2.64,5.85,4.65,3.72,4.52,5.58,9.97,5.58,16.33s-1.8,11.72-5.38,16.08ZM591.58,316.46c1.55,0,2.98-.4,4.32-1.2,1.33-.8,2.49-1.87,3.48-3.22.99-1.35,1.78-2.92,2.37-4.73.59-1.81.88-3.76.88-5.87s-.29-4.06-.88-5.86c-.59-1.81-1.38-3.38-2.37-4.73-.99-1.35-2.15-2.42-3.48-3.22-1.33-.8-2.77-1.2-4.32-1.2h-29.42l7.7-12.69h21.72c2.47,0,4.58-.97,6.31-2.91,1.73-1.94,2.6-4.3,2.6-7.08,0-1.35-.23-2.63-.7-3.85-.46-1.22-1.1-2.27-1.9-3.16-.81-.89-1.75-1.6-2.83-2.15-1.08-.55-2.24-.82-3.48-.82h-43.25v62.68h43.25Z"/>
    <path class="st0" d="M667.85,300.01l20.97,29.14h-13.18l-21-29.14h-27.43v15.2l-9.47,13.82v-29.01h-.09l.09-58.91h50.83c2.48,0,4.85.8,7.11,2.39,2.26,1.59,4.23,3.85,5.9,6.78,1.61,2.76,2.82,5.88,3.62,9.36.81,3.48,1.21,7.1,1.21,10.86s-.4,7.41-1.21,10.93c-.81,3.52-2.01,6.62-3.62,9.29-1.67,2.93-3.64,5.21-5.9,6.84-2.26,1.63-4.63,2.45-7.11,2.45h-.74ZM668.52,287.32c1.11,0,2.18-.44,3.2-1.32,1.02-.88,1.92-2.1,2.69-3.66.77-1.55,1.39-3.34,1.86-5.36s.7-4.16.7-6.43-.23-4.41-.7-6.43c-.46-2.02-1.08-3.8-1.86-5.36-.77-1.55-1.67-2.77-2.69-3.66-1.02-.88-2.09-1.32-3.2-1.32h-41.3l-.09,26.22h.09v7.31h41.3Z"/>
    <path class="st0" d="M703.88,329.27h-9.47v-87.92l9.47,12.31v75.61Z"/>
    <path class="st0" d="M709.45,328.9l.09-18.59-.09-69.21h49.84c4.64,0,9.06,1.09,13.27,3.27,4.21,2.18,7.95,5.32,11.23,9.42,3.34,4.19,5.91,8.94,7.7,14.26,1.79,5.32,2.69,10.95,2.69,16.89s-.9,11.7-2.69,17.02c-1.79,5.32-4.36,10.07-7.7,14.26-3.28,4.1-7.02,7.24-11.23,9.42-4.21,2.18-8.63,3.27-13.27,3.27h-49.84ZM718.91,253.79v62.42h40.37c3.53,0,6.82-.82,9.88-2.45,3.06-1.63,5.75-3.87,8.07-6.72,2.32-2.85,4.14-6.17,5.48-9.99,1.33-3.81,1.99-7.85,1.99-12.12s-.67-8.29-1.99-12.06c-1.33-3.77-3.16-7.08-5.48-9.92-2.32-2.85-5.01-5.09-8.07-6.72-3.06-1.63-6.36-2.45-9.88-2.45h-40.37Z"/>
    <path class="st0" d="M821.37,325.51c-4.21-2.18-7.95-5.32-11.23-9.42-3.34-4.19-5.91-8.94-7.7-14.26-1.8-5.32-2.69-10.95-2.69-16.89s.9-11.6,2.69-16.96c1.79-5.36,4.36-10.13,7.7-14.32,3.28-4.1,7.02-7.22,11.23-9.36,4.21-2.14,8.63-3.2,13.27-3.2h38.51l-9.84,12.69h-28.68c-3.53,0-6.82.82-9.88,2.46-3.06,1.64-5.75,3.86-8.07,6.67-2.32,2.81-4.15,6.12-5.48,9.94-1.33,3.82-2,7.87-2,12.14s.66,8.31,2,12.08c1.33,3.78,3.16,7.07,5.48,9.88,2.32,2.81,5.01,5.03,8.07,6.67,3.06,1.64,6.36,2.45,9.88,2.45h29.05v-33.66h-9.28l10.77-12.81h7.98v59.16h-38.51c-4.64,0-9.07-1.09-13.27-3.27Z"/>
    <path class="st0" d="M948.15,328.9h-69.33v-87.8h69.33l-10.39,12.69h-49.47v24.87h23.57l7.52,12.69h-31.09v24.87h51.14l8.72,12.69Z"/>
  </g>
</svg>