<?xml version="1.0" encoding="UTF-8"?>
<svg version="1.1" xmlns="http://www.w3.org/2000/svg" width="150" height="150">
<path d="M0 0 C2.90222678 1.32945078 5.55694294 2.9801212 8.25 4.6875 C8.9821875 5.12255859 9.714375 5.55761719 10.46875 6.00585938 C15.76149504 9.31382503 15.76149504 9.31382503 16.984375 12.83203125 C16.99210937 13.90517578 16.99210937 13.90517578 17 15 C15.02 15.99 15.02 15.99 13 17 C13.08708038 19.10494301 13.19525693 21.20902142 13.3125 23.3125 C13.37050781 24.48425781 13.42851563 25.65601563 13.48828125 26.86328125 C14.03385476 30.20752191 14.51025079 30.90544908 17 33 C17.3125 35.5625 17.3125 35.5625 17 38 C15 40 15 40 11.46826172 40.22705078 C9.95536669 40.22673363 8.44244912 40.21540633 6.9296875 40.1953125 C6.13345978 40.1924826 5.33723206 40.18965271 4.51687622 40.18673706 C1.96943237 40.1755264 -0.57766211 40.15042062 -3.125 40.125 C-4.85025535 40.11497133 -6.57551619 40.10584528 -8.30078125 40.09765625 C-12.53398914 40.07558422 -16.7669353 40.04104867 -21 40 C-22.38125018 37.23749964 -22.19079306 35.05268901 -22 32 C-21.34 31.34 -20.68 30.68 -20 30 C-18.68 30 -17.36 30 -16 30 C-16.33 26.04 -16.66 22.08 -17 18 C-19.475 17.01 -19.475 17.01 -22 16 C-22.28515625 13.72265625 -22.28515625 13.72265625 -22 11 C-20.05859375 9.12109375 -20.05859375 9.12109375 -17.4375 7.4375 C-16.52484375 6.84710938 -15.6121875 6.25671875 -14.671875 5.6484375 C-13.79015625 5.10445313 -12.9084375 4.56046875 -12 4 C-10.98679687 3.33871094 -10.98679687 3.33871094 -9.953125 2.6640625 C-6.41622799 0.45741436 -4.12805477 -0.57254574 0 0 Z M-10.1875 8.4375 C-11.81751953 9.39462891 -11.81751953 9.39462891 -13.48046875 10.37109375 C-14.31191406 10.90863281 -15.14335938 11.44617188 -16 12 C-16 12.33 -16 12.66 -16 13 C-7.09 13 1.82 13 11 13 C1.13397607 4.86066912 1.13397607 4.86066912 -10.1875 8.4375 Z M-12 17 C-12 21.29 -12 25.58 -12 30 C-10.68 30 -9.36 30 -8 30 C-8 25.71 -8 21.42 -8 17 C-9.32 17 -10.64 17 -12 17 Z M-3 17 C-3 21.29 -3 25.58 -3 30 C-2.01 30 -1.02 30 0 30 C0 25.71 0 21.42 0 17 C-0.99 17 -1.98 17 -3 17 Z M5 17 C5 21.29 5 25.58 5 30 C6.32 30 7.64 30 9 30 C9 26.04 9 22.08 9 18 C7.68 17.67 6.36 17.34 5 17 Z M-18 35 C-18 35.33 -18 35.66 -18 36 C-7.77 36 2.46 36 13 36 C13 35.67 13 35.34 13 35 C2.77 35 -7.46 35 -18 35 Z " fill="#0A2555" transform="translate(81,93)"/>
<path d="M0 0 C5.42597253 2.60864064 7.04002482 5.41407074 9 11 C10.15590535 14.08241427 11.25331291 16.37251898 13.125 19.125 C15.88073542 23.84174564 15.64227651 28.70121879 15 34 C13.26707245 39.40265649 9.71418378 42.9666117 5 46 C1.5625 46.875 1.5625 46.875 -1 47 C-0.979375 48.11375 -0.95875 49.2275 -0.9375 50.375 C-1 54 -1 54 -2 56 C-3.32 55.67 -4.64 55.34 -6 55 C-6 52.36 -6 49.72 -6 47 C-6.845625 46.95875 -7.69125 46.9175 -8.5625 46.875 C-14.22898975 45.43262079 -17.62089018 41.9574462 -20.9375 37.25 C-22.61296621 32.12504454 -23.12906688 26.95253639 -21.16796875 21.82421875 C-20.47764106 20.49268781 -19.75895272 19.1754493 -19.01171875 17.875 C-17.50177656 15.07665154 -16.8630615 12.04948398 -16 9 C-12.78649394 2.09096197 -7.61312172 -1.08758882 0 0 Z M-9.375 6.5 C-11.24232155 9.37280239 -11.40512772 11.66383961 -11.65625 15.03515625 C-12.18675788 18.06749104 -13.93698598 19.8080476 -16 22 C-17.85874236 25.71748473 -17.43625181 29.94285813 -17 34 C-15.11429005 38.14856188 -13.33884225 40.07524591 -9.25 41.875 C-8.1775 42.24625 -7.105 42.6175 -6 43 C-6.48996248 38.59033771 -7.87685537 37.02554636 -11 34 C-11.75 31.75 -11.75 31.75 -12 30 C-10.02 30.66 -8.04 31.32 -6 32 C-5.67 24.74 -5.34 17.48 -5 10 C-4.01 9.67 -3.02 9.34 -2 9 C-1.67 14.61 -1.34 20.22 -1 26 C0.65 25.34 2.3 24.68 4 24 C3.59313032 26.84808778 3.28670818 27.78279684 0.9375 29.5625 C-2.22320658 33.5388728 -1.30384737 38.10468119 -1 43 C4.59863797 41.06200993 7.20011403 39.49208402 10 34 C11.45116391 29.12823544 10.87962753 25.69906882 9 21 C8.13375 20.154375 7.2675 19.30875 6.375 18.4375 C4 16 4 16 3.9375 13 C3.958125 12.01 3.97875 11.02 4 10 C2.59121904 7.0098357 2.59121904 7.0098357 0 5 C-3.90778928 4.37196244 -6.00373651 4.37078095 -9.375 6.5 Z " fill="#0E367F" transform="translate(33,23)"/>
<path d="M0 0 C2.89396771 2.30033331 3.82767735 3.48303205 5 7 C5.37290034 12.03415457 4.98878273 14.89042374 2 19 C2.55429688 19.45890625 3.10859375 19.9178125 3.6796875 20.390625 C4.40414062 21.00421875 5.12859375 21.6178125 5.875 22.25 C6.95394531 23.15492187 6.95394531 23.15492187 8.0546875 24.078125 C10.80018028 26.79053955 11.90240718 28.71177474 12.1953125 32.578125 C12.17210937 33.45984375 12.14890625 34.3415625 12.125 35.25 C12.10695312 36.14203125 12.08890625 37.0340625 12.0703125 37.953125 C12.04710937 38.62859375 12.02390625 39.3040625 12 40 C10.68 40 9.36 40 8 40 C7.82984375 39.25234375 7.6596875 38.5046875 7.484375 37.734375 C7.24203125 36.74953125 6.9996875 35.7646875 6.75 34.75 C6.40195313 33.28820313 6.40195313 33.28820313 6.046875 31.796875 C4.63276993 28.01889279 2.6063291 25.80316455 -1 24 C-6.30994155 23.47074112 -10.69276931 23.38078546 -15.5625 25.6875 C-19.95654571 29.85621004 -20.30909298 34.12729034 -21 40 C-22.32 40 -23.64 40 -25 40 C-26 39 -26 39 -26.01953125 37.14453125 C-25.39118175 30.06670762 -23.23544246 25.76752577 -17.75 21.125 C-16.8425 20.42375 -15.935 19.7225 -15 19 C-15.495 18.525625 -15.99 18.05125 -16.5 17.5625 C-18.73069179 13.75173486 -18.7990299 10.30878741 -18 6 C-16.27746092 2.64707415 -13.84817985 0.55017071 -10.6875 -1.5 C-6.78407085 -2.22621938 -3.64892401 -1.50384525 0 0 Z M-13 6 C-14.02887287 9.22380166 -14.31430743 11.10543271 -13.1875 14.3125 C-12.09312675 16.15097822 -12.09312675 16.15097822 -10 17 C-5.35718285 17.40880566 -5.35718285 17.40880566 -1.0625 15.9375 C0.65989792 12.79665674 0.49148241 10.50181214 0 7 C-2.18498756 4.46808501 -2.18498756 4.46808501 -5 3 C-8.6952982 3 -10.11373339 3.72136847 -13 6 Z " fill="#0F3680" transform="translate(127,28)"/>
<path d="M0 0 C1.25671509 0.00737183 1.25671509 0.00737183 2.53881836 0.01489258 C8.66673777 0.13103062 13.97730553 0.80683274 19.625 3.3125 C20.5428125 3.69921875 21.460625 4.0859375 22.40625 4.484375 C27.52023231 6.81152425 27.52023231 6.81152425 29.625 8.3125 C30.40234375 10.47265625 30.40234375 10.47265625 30.625 12.3125 C28.97265625 12.98828125 28.97265625 12.98828125 26.625 13.3125 C23.99609375 12.16796875 23.99609375 12.16796875 21.0625 10.5 C10.02463124 4.76084212 -1.33484157 3.97731841 -13.4296875 7.1015625 C-18.65484136 8.88187808 -23.20493203 11.18440134 -27.71875 14.359375 C-29.375 15.3125 -29.375 15.3125 -32.375 15.3125 C-32.705 14.3225 -33.035 13.3325 -33.375 12.3125 C-30.41970178 9.06167196 -27.5549791 7.13212696 -23.625 5.1875 C-22.64015625 4.68992187 -21.6553125 4.19234375 -20.640625 3.6796875 C-13.70756155 0.77708917 -7.43494869 -0.0516784 0 0 Z " fill="#0A2555" transform="translate(77.375,16.6875)"/>
<path d="M0 0 C1.32 0 2.64 0 4 0 C4 3.3 4 6.6 4 10 C5.32 10 6.64 10 8 10 C8 8.35 8 6.7 8 5 C8.99 4.67 9.98 4.34 11 4 C11.66 4.33 12.32 4.66 13 5 C13.6328125 7.06640625 13.6328125 7.06640625 14.125 9.5625 C14.29257813 10.38878906 14.46015625 11.21507813 14.6328125 12.06640625 C14.75398438 12.70449219 14.87515625 13.34257813 15 14 C14.01 14.495 14.01 14.495 13 15 C14.98 15.66 16.96 16.32 19 17 C19 17.99 19 18.98 19 20 C11.08 20 3.16 20 -5 20 C-6.38125018 17.23749964 -6.19079306 15.05268901 -6 12 C-5.34 11.34 -4.68 10.68 -4 10 C-2.68 10 -1.36 10 0 10 C0 6.7 0 3.4 0 0 Z " fill="#0E367F" transform="translate(65,113)"/>
<path d="M0 0 C0.99 0.33 1.98 0.66 3 1 C3.95590885 14.24995873 0.07751519 25.50738936 -8 36 C-11.67165822 40.13833627 -15.52615872 43.74629725 -20 47 C-21.32 46.34 -22.64 45.68 -24 45 C-22.81337555 41.44012665 -21.90234717 41.05243876 -18.875 39 C-8.48533523 31.13755098 -3.85513476 18.88243746 -1.8125 6.375 C-1.67457031 5.37210937 -1.53664063 4.36921875 -1.39453125 3.3359375 C-1 1 -1 1 0 0 Z " fill="#0A2555" transform="translate(127,67)"/>
<path d="M0 0 C5.91784383 1.26810939 8.58593084 4.2848035 12 9 C13.26237731 11.52475462 13.09856404 13.31200466 13.0625 16.125 C13.05347656 17.03507812 13.04445312 17.94515625 13.03515625 18.8828125 C13.02355469 19.58148438 13.01195312 20.28015625 13 21 C11.68 21 10.36 21 9 21 C8.82984375 20.25234375 8.6596875 19.5046875 8.484375 18.734375 C8.24203125 17.74953125 7.9996875 16.7646875 7.75 15.75 C7.40195313 14.28820312 7.40195313 14.28820312 7.046875 12.796875 C5.63276993 9.01889279 3.6063291 6.80316455 0 5 C-5.30994155 4.47074112 -9.69276931 4.38078546 -14.5625 6.6875 C-18.95654571 10.85621004 -19.30909298 15.12729034 -20 21 C-21.32 21 -22.64 21 -24 21 C-25 20 -25 20 -25.01953125 18.14453125 C-24.53729211 12.71251673 -23.53463099 9.34254665 -20 5 C-19.18015625 3.93265625 -19.18015625 3.93265625 -18.34375 2.84375 C-15.10297077 0.294337 -12.24115198 0.59195722 -8.3125 0.8125 C-5.87297664 0.90606451 -3.4417144 0.96760089 -1 1 C-0.67 0.67 -0.34 0.34 0 0 Z " fill="#0F3780" transform="translate(126,47)"/>
<path d="M0 0 C0.99 0 1.98 0 3 0 C4.4807848 2.9615696 4.35314037 5.83506295 4.5625 9.125 C4.64628906 10.40632813 4.73007812 11.68765625 4.81640625 13.0078125 C4.87699219 13.99523438 4.93757813 14.98265625 5 16 C6.32 15.34 7.64 14.68 9 14 C9.8125 15.6875 9.8125 15.6875 10 18 C8.824375 19.0209375 8.824375 19.0209375 7.625 20.0625 C3.82546393 24.3143618 4.10657089 28.46800183 4 34 C2.35 34 0.7 34 -1 34 C-1.37125 32.88625 -1.37125 32.88625 -1.75 31.75 C-2.84296181 28.90133031 -2.84296181 28.90133031 -5.125 26.9375 C-7 25 -7 25 -7 21 C-5.35 21.33 -3.7 21.66 -2 22 C-1.96241577 21.05362671 -1.96241577 21.05362671 -1.92407227 20.08813477 C-1.80845863 17.24603175 -1.68557684 14.40428917 -1.5625 11.5625 C-1.50352539 10.07266602 -1.50352539 10.07266602 -1.44335938 8.55273438 C-1.40146484 7.60849609 -1.35957031 6.66425781 -1.31640625 5.69140625 C-1.26141968 4.37958374 -1.26141968 4.37958374 -1.20532227 3.04125977 C-1 1 -1 1 0 0 Z " fill="#0B2554" transform="translate(28,32)"/>
<path d="M0 0 C3 1 3 1 4.61328125 3.9140625 C5.18582947 5.14821081 5.75189653 6.3853802 6.3125 7.625 C10.93285466 17.28010725 16.40658749 22.71726063 25 29 C24.67 29.99 24.34 30.98 24 32 C15.84899471 31.07177164 10.06943901 23.55267534 5.125 17.5 C2.13716939 13.44762167 -0.94143552 8.98765064 -2 4 C-1.08984375 1.73828125 -1.08984375 1.73828125 0 0 Z " fill="#0F3780" transform="translate(29,83)"/>
<path d="M0 0 C2.90461304 1.32389679 5.55717562 2.98026872 8.25 4.6875 C8.9821875 5.12255859 9.714375 5.55761719 10.46875 6.00585938 C15.76149504 9.31382503 15.76149504 9.31382503 16.984375 12.83203125 C16.98953125 13.54746094 16.9946875 14.26289062 17 15 C15.02 15.99 15.02 15.99 13 17 C13 19.31 13 21.62 13 24 C11.68 24 10.36 24 9 24 C7.98823201 21.97646402 7.51679258 20.19636848 7 18 C6.814375 17.2575 6.62875 16.515 6.4375 15.75 C6.2209375 14.88375 6.2209375 14.88375 6 14 C6.99 13.34 7.98 12.68 9 12 C7.42356682 10.98915735 5.8385483 9.99169489 4.25 9 C3.36828125 8.443125 2.4865625 7.88625 1.578125 7.3125 C-1.11194393 5.69754464 -1.11194393 5.69754464 -5 6 C-5 4.68 -5 3.36 -5 2 C-5.66 1.67 -6.32 1.34 -7 1 C-4.3046036 -0.3476982 -3.02880729 -0.37246144 0 0 Z " fill="#0DB3D9" transform="translate(81,93)"/>
<path d="M0 0 C5.42597253 2.60864064 7.04002482 5.41407074 9 11 C10.16514511 14.10705363 11.48029286 16.8518991 13.1875 19.6875 C14.0846875 21.3271875 14.0846875 21.3271875 15 23 C14.67 23.66 14.34 24.32 14 25 C11.9375 25.625 11.9375 25.625 10 26 C9.5875 25.0925 9.175 24.185 8.75 23.25 C7.21983258 19.9801694 7.21983258 19.9801694 4.8125 18 C2.35674203 15.2901981 2.92579556 13.56181311 3 10 C2.16666667 7.5 2.16666667 7.5 0 6 C-2.75471344 5.66313169 -5.2063156 5.81680758 -8 6 C-8.33 4.35 -8.66 2.7 -9 1 C-5.89046621 -0.5547669 -3.43733239 -0.28644437 0 0 Z " fill="#0EB3D9" transform="translate(33,23)"/>
<path d="M0 0 C10.97539726 -0.5633759 21.84887181 1.47404394 31 8 C31.77734375 10.16015625 31.77734375 10.16015625 32 12 C30.33203125 12.671875 30.33203125 12.671875 28 13 C25.51171875 11.890625 25.51171875 11.890625 22.6875 10.25 C15.62958131 6.49857227 8.83636921 5.22041816 1 4 C0.67 2.68 0.34 1.36 0 0 Z " fill="#0EB4DA" transform="translate(76,17)"/>
<path d="M0 0 C0.99 0.33 1.98 0.66 3 1 C3.34545592 6.7575987 3.38905543 11.08040341 0 16 C-3.89487724 20.1899437 -7.07920357 22.71118066 -13 23 C-12.9375 20.75 -12.9375 20.75 -12 18 C-10.248232 17.05923571 -8.4943074 16.12161808 -6.71875 15.2265625 C-2.4447111 12.17645292 -1.88276708 5.85521894 -1 1 C-0.67 0.67 -0.34 0.34 0 0 Z " fill="#0A2454" transform="translate(45,47)"/>
<path d="M0 0 C0 1.32 0 2.64 0 4 C-1.60875 3.938125 -1.60875 3.938125 -3.25 3.875 C-7.52552359 3.94178061 -7.52552359 3.94178061 -11 6 C-12.76727858 9.0334467 -12.76727858 9.0334467 -14 12 C-14.99 11.67 -15.98 11.34 -17 11 C-16.76099616 4.90540206 -16.76099616 4.90540206 -14.703125 2.45703125 C-9.26776122 -2.13073867 -6.59182738 -2.11435973 0 0 Z " fill="#0A2757" transform="translate(126,28)"/>
<path d="M0 0 C4.27683498 1.52744106 6.00037651 4.00075302 8 8 C8.32124049 11.3629864 8.2395064 14.63360448 8 18 C6.68 18 5.36 18 4 18 C3.80664062 17.24074219 3.61328125 16.48148438 3.4140625 15.69921875 C3.15367187 14.70535156 2.89328125 13.71148437 2.625 12.6875 C2.36976563 11.70136719 2.11453125 10.71523438 1.8515625 9.69921875 C1.08086826 6.8194184 1.08086826 6.8194184 -1 4 C-0.625 1.8125 -0.625 1.8125 0 0 Z " fill="#0EA9D2" transform="translate(131,50)"/>
<path d="M0 0 C1.98 0.66 3.96 1.32 6 2 C5.34 3.32 4.68 4.64 4 6 C3.20335937 5.75443359 3.20335937 5.75443359 2.390625 5.50390625 C-0.53876764 4.88643623 -3.25822936 4.90498075 -6.25 4.9375 C-7.32765625 4.94652344 -8.4053125 4.95554687 -9.515625 4.96484375 C-10.74539062 4.98224609 -10.74539062 4.98224609 -12 5 C-12.66 3.68 -13.32 2.36 -14 1 C-13.07316406 1.01160156 -12.14632812 1.02320313 -11.19140625 1.03515625 C-9.39509766 1.04869141 -9.39509766 1.04869141 -7.5625 1.0625 C-5.77005859 1.07990234 -5.77005859 1.07990234 -3.94140625 1.09765625 C-1.11126659 1.33901792 -1.11126659 1.33901792 0 0 Z " fill="#0A2657" transform="translate(126,47)"/>
<path d="M0 0 C2.4375 1.5625 2.4375 1.5625 5 4 C5.8125 7.75 5.8125 7.75 6 11 C4.68 11.33 3.36 11.66 2 12 C0.66666667 9.33333333 -0.66666667 6.66666667 -2 4 C-1.34 4 -0.68 4 0 4 C0 2.68 0 1.36 0 0 Z " fill="#0EAFD6" transform="translate(126,28)"/>
<path d="M0 0 C0.99 0 1.98 0 3 0 C4.35439668 2.70879335 4.06501451 5.00933268 4 8 C2.02 8.99 2.02 8.99 0 10 C-1 9 -1 9 -1.1328125 7.1875 C-1.13023438 6.465625 -1.12765625 5.74375 -1.125 5 C-1.12757812 4.278125 -1.13015625 3.55625 -1.1328125 2.8125 C-1 1 -1 1 0 0 Z " fill="#0EB5DB" transform="translate(28,32)"/>
<path d="M0 0 C0.99 0.33 1.98 0.66 3 1 C2.75 2.875 2.75 2.875 2 5 C-0.0625 6.25 -0.0625 6.25 -2 7 C-2.6875 5.1875 -2.6875 5.1875 -3 3 C-1.5625 1.25 -1.5625 1.25 0 0 Z " fill="#0EB7DD" transform="translate(35,46)"/>
<path d="M0 0 C1.65 1.32 3.3 2.64 5 4 C4.67 4.66 4.34 5.32 4 6 C3.01 5.67 2.02 5.34 1 5 C0.67 5.66 0.34 6.32 0 7 C-0.66 6.01 -1.32 5.02 -2 4 C-1.34 4 -0.68 4 0 4 C0 2.68 0 1.36 0 0 Z " fill="#0DA0CB" transform="translate(126,28)"/>
</svg>
