<?xml version="1.0" encoding="UTF-8"?>
<svg version="1.1" xmlns="http://www.w3.org/2000/svg" width="492" height="330">
<path d="M0 0 C162.36 0 324.72 0 492 0 C492 108.9 492 217.8 492 330 C329.64 330 167.28 330 0 330 C0 221.1 0 112.2 0 0 Z " fill="#FEFEFE" transform="translate(0,0)"/>
<path d="M0 0 C162.36 0 324.72 0 492 0 C492 108.9 492 217.8 492 330 C329.64 330 167.28 330 0 330 C0 221.1 0 112.2 0 0 Z M197.375 41.9375 C196.20385706 41.95397473 196.20385706 41.95397473 195.00905466 41.97078228 C177.32391594 42.21975214 159.63908471 42.4860036 141.95443499 42.76748705 C131.63189953 42.93156696 121.30923554 43.08168235 110.98636222 43.22285116 C106.46769864 43.28498506 101.94906101 43.34898317 97.4304229 43.41293937 C93.87278944 43.46311218 90.31514898 43.51208979 86.75745773 43.55799675 C82.84296904 43.60851365 78.92856944 43.66460093 75.01416016 43.72094727 C73.90256657 43.73428415 72.79097298 43.74762104 71.64569473 43.76136208 C61.07017807 43.92120132 50.58625161 44.49589278 40 45 C40 130.8 40 216.6 40 305 C47.83294475 305.81711251 47.83294475 305.81711251 55.63305664 306.23414612 C56.63553814 306.2607645 57.63801964 306.28738289 58.67087936 306.31480789 C59.73984074 306.33926357 60.80880211 306.36371925 61.91015625 306.38891602 C63.07189991 306.41831142 64.23364357 306.44770683 65.43059158 306.47799301 C68.63174989 306.55762104 71.83296553 306.63357213 75.03426838 306.70713067 C77.08843492 306.75450437 79.14257366 306.80295492 81.19670868 306.85167503 C91.00354644 307.08360339 100.81067694 307.300651 110.61799431 307.51124001 C112.99538337 307.56240065 115.37276111 307.61406318 117.75013733 307.66581726 C170.5701171 308.81204757 223.37508799 309.28586307 276.20714569 309.25146627 C278.74993396 309.25000004 281.29272164 309.2491905 283.83551025 309.24858475 C294.28949631 309.24578639 304.74341244 309.23265237 315.19736958 309.20791841 C317.38135305 309.20321232 319.56533447 309.19992518 321.74932098 309.19699669 C336.54359327 309.17453103 351.28263473 308.98350318 366.05311203 308.10723114 C370.41128026 307.86719096 374.77315701 307.79036907 379.13671875 307.71875 C381.04109776 307.68192385 382.94547599 307.64505727 384.84985352 307.6081543 C385.8053006 307.5907016 386.76074768 307.5732489 387.74514771 307.55526733 C392.77044172 307.46087531 397.79534231 307.34837893 402.8203125 307.23828125 C413.38385161 307.0077606 413.38385161 307.0077606 418.46386719 306.92333984 C421.99742308 306.86189823 425.52961498 306.77879042 429.0625 306.6875 C430.52079224 306.67203125 430.52079224 306.67203125 432.00854492 306.65625 C432.88357666 306.62917969 433.7586084 306.60210937 434.66015625 306.57421875 C435.75275757 306.55234497 435.75275757 306.55234497 436.86743164 306.5300293 C440.2208528 305.69656881 441.64117649 304.56674384 444 302 C444.76007249 298.54749275 444.65237597 295.13288282 444.60127258 291.6104126 C444.60554471 290.54118773 444.60981683 289.47196287 444.61421841 288.37033725 C444.62247636 284.77544123 444.59491534 281.18170319 444.56762695 277.58691406 C444.5662171 275.01492846 444.56700723 272.44294085 444.56983948 269.87095642 C444.57246197 264.32749622 444.55676728 258.78433013 444.52865028 253.24094391 C444.48802448 245.22617861 444.47499405 237.21155562 444.46871033 229.19669852 C444.45776566 216.19338895 444.4244869 203.19023616 444.37719727 190.18701172 C444.33130607 177.55518376 444.29591204 164.92339839 444.2746582 152.29150391 C444.27334459 151.51294895 444.27203097 150.734394 444.27067754 149.93224648 C444.26415238 146.02648669 444.25783384 142.12072659 444.25161803 138.2149663 C444.19977968 105.80986359 444.11170983 73.40495355 444 41 C361.78551925 40.78475682 279.58303944 40.77666523 197.375 41.9375 Z " fill="#113980" transform="translate(0,0)"/>
<path d="M0 0 C162.36 0 324.72 0 492 0 C492 108.9 492 217.8 492 330 C472.2 330 452.4 330 432 330 C432 329.67 432 329.34 432 329 C433.07378906 328.75765625 434.14757812 328.5153125 435.25390625 328.265625 C436.6902409 327.92766391 438.12643129 327.58908935 439.5625 327.25 C440.26697266 327.09273438 440.97144531 326.93546875 441.69726562 326.7734375 C448.32310329 325.18567917 454.71898425 322.54946486 459 317 C461.21033642 311.00510542 461.28196342 305.43997824 461.25396729 299.09588623 C461.25708727 298.007358 461.26020725 296.91882977 461.26342177 295.79731584 C461.27139014 292.15486098 461.26508246 288.51257325 461.25878906 284.87011719 C461.2614995 282.25642296 461.26506072 279.64272949 461.26940918 277.02903748 C461.27829444 270.668856 461.27638469 264.30872177 461.2705839 257.94853845 C461.26606242 252.77621744 461.26545662 247.60390964 461.26763153 242.43158722 C461.26809123 241.32624161 461.26809123 241.32624161 461.26856022 240.1985658 C461.26919969 238.70140057 461.26984812 237.20423536 461.2705054 235.70707014 C461.27620657 221.67221155 461.26965498 207.63737909 461.25890467 193.60252479 C461.24997679 181.57500992 461.25151531 169.54753369 461.26074219 157.52001953 C461.27146143 143.54069993 461.27564944 129.56140326 461.26951766 115.58208013 C461.26888059 114.0892787 461.26825185 112.59647727 461.26763153 111.10367584 C461.26732298 110.36927115 461.26701443 109.63486645 461.26669653 108.87820707 C461.26497399 103.71759416 461.26787531 98.55699585 461.27259064 93.39638519 C461.27880779 86.43933521 461.27433832 79.4823591 461.26280212 72.52531624 C461.26016355 69.97564121 461.26090688 67.42596003 461.26532745 64.87628746 C461.27081623 61.38812589 461.26390816 57.90019532 461.25396729 54.41204834 C461.25842873 53.40998124 461.26289017 52.40791414 461.26748681 51.37548137 C461.22098407 42.92596991 461.15657504 33.29867348 455.625 26.43359375 C449.6846523 21.19295046 441.944888 19.87647633 434.30999756 19.86857224 C433.63531624 19.8665196 432.96063492 19.86446697 432.26550871 19.86235213 C429.99437039 19.85667709 427.72329261 19.85814001 425.45214844 19.85955811 C423.81145247 19.85697474 422.17075714 19.85396166 420.53006268 19.8505547 C416.01303634 19.84247776 411.49602588 19.84069474 406.97899318 19.83995724 C402.11034515 19.83810784 397.24170539 19.83056097 392.37306213 19.82382202 C381.72200764 19.81023222 371.0709569 19.80421269 360.41989517 19.79981136 C353.76897349 19.79704947 347.11805327 19.79281216 340.46713257 19.78830719 C322.05268953 19.77611261 303.63824765 19.76581436 285.22380066 19.7624321 C284.044883 19.76221253 282.86596534 19.76199297 281.6513229 19.76176675 C280.46957657 19.76154847 279.28783023 19.76133019 278.0702734 19.7611053 C275.67559242 19.76066183 273.28091145 19.76021527 270.88623047 19.75976562 C269.10446212 19.75943348 269.10446212 19.75943348 267.28669846 19.75909463 C248.04742603 19.75514822 228.80819151 19.73769983 209.56893373 19.7144061 C189.81613087 19.69068373 170.06334704 19.67822981 150.31052971 19.67706418 C139.2202231 19.6761478 128.12996586 19.67040508 117.03967285 19.65224457 C107.5938361 19.6368315 98.14806398 19.63173018 88.70221704 19.63998267 C83.88457 19.64388517 79.06705304 19.64297914 74.24942207 19.62892532 C69.83376876 19.61616226 65.41834295 19.61740501 61.00268984 19.62951604 C59.41041045 19.6314689 57.8181148 19.6284137 56.22585821 19.61967167 C47.06857648 19.572603 38.80132427 20.32371022 30 23 C28.80375 23.28875 27.6075 23.5775 26.375 23.875 C23.80823712 24.78047877 23.80823712 24.78047877 22.95235634 27.26376152 C22.63807875 28.16672022 22.32380116 29.06967892 22 30 C21.7212673 30.76608141 21.4425346 31.53216282 21.15535545 32.32145882 C18.01980645 42.86786799 18.67398614 53.63847025 18.80322266 64.52294922 C18.81818768 66.74886564 18.83160703 68.97479292 18.84357643 71.20072746 C18.87031432 75.83313168 18.90491293 80.46537716 18.94562531 85.09767914 C19.00082517 91.63628176 19.0251842 98.17462888 19.0368042 104.71343994 C19.03869495 105.74758486 19.04058571 106.78172979 19.04253376 107.84721243 C19.04628839 109.93994242 19.04998695 112.03267251 19.05362964 114.12540269 C19.06455696 119.49687683 19.08269228 124.86832389 19.10116577 130.23977661 C19.10489641 131.32690551 19.10862705 132.41403441 19.11247075 133.53410661 C19.16623693 148.95263072 19.22502972 164.3711379 19.28752708 179.78962898 C19.34313709 193.54887608 19.39215162 207.30811583 19.43314302 221.0674144 C19.46287039 230.8578819 19.50006901 240.64830413 19.54279006 250.43872344 C19.56792319 256.24757974 19.5897503 262.0564035 19.60334396 267.86529922 C19.61616191 273.28809197 19.6382129 278.71076855 19.66738319 284.13349724 C19.67643959 286.11683716 19.68214467 288.10019571 19.68421364 290.08355522 C19.68754747 292.7932309 19.70305181 295.50257995 19.7215271 298.21218872 C19.71959237 298.99133389 19.71765763 299.77047905 19.71566427 300.57323468 C19.76771253 305.69073283 20.62510196 310.06792177 22 315 C22.2475 316.27875 22.495 317.5575 22.75 318.875 C23.66461852 322.1876092 23.66461852 322.1876092 26.5 323.1875 C27.655 323.455625 28.81 323.72375 30 324 C31.73887335 324.64092221 33.46768616 325.30956379 35.1875 326 C36.02667969 326.33 36.86585937 326.66 37.73046875 327 C40 328 40 328 43 330 C28.81 330 14.62 330 0 330 C0 221.1 0 112.2 0 0 Z " fill="#FEFEFE" transform="translate(0,0)"/>
<path d="M0 0 C1.46059593 -0.0049926 1.46059593 -0.0049926 2.95069885 -0.01008606 C5.00399302 -0.01513419 7.05729534 -0.01749504 9.1105957 -0.01733398 C12.23988425 -0.01952145 15.36882056 -0.03770245 18.49804688 -0.05664062 C20.49869672 -0.05957485 22.49934823 -0.06155945 24.5 -0.0625 C25.42936874 -0.06968552 26.35873749 -0.07687103 27.31626892 -0.08427429 C39.60708331 -0.04135419 39.60708331 -0.04135419 43.81640625 4.16796875 C44.05691528 6.72427368 44.05691528 6.72427368 44.04345703 9.99462891 C44.04330597 11.21574371 44.04315491 12.43685852 44.04299927 13.69497681 C44.03278528 15.03232993 44.02235327 16.3696814 44.01171875 17.70703125 C44.00798905 19.07180576 44.00514188 20.43658294 44.00314331 21.80136108 C43.99550339 25.39517598 43.97585197 28.98882948 43.95373535 32.58258057 C43.93328457 36.24904192 43.92414325 39.91552932 43.9140625 43.58203125 C43.89260628 50.77741737 43.85846617 57.97267045 43.81640625 65.16796875 C42.22337482 65.8451105 40.62620809 66.5125295 39.02734375 67.17578125 C38.13837402 67.54848145 37.2494043 67.92118164 36.33349609 68.30517578 C32.2990964 69.68806312 29.58966606 68.81346934 25.72924805 67.40820312 C23.81640625 66.16796875 23.81640625 66.16796875 23.01098633 64.04492188 C22.87072021 63.18833984 22.7304541 62.33175781 22.5859375 61.44921875 C22.42287109 60.51722656 22.25980469 59.58523437 22.09179688 58.625 C21.93904297 57.64917969 21.78628906 56.67335937 21.62890625 55.66796875 C21.30426922 53.74051598 20.97754775 51.81341277 20.6484375 49.88671875 C20.51155518 49.03013672 20.37467285 48.17355469 20.23364258 47.29101562 C19.90580913 45.12482476 19.90580913 45.12482476 18.81640625 43.16796875 C18.35144241 43.64625626 17.88647858 44.12454376 17.40742493 44.61732483 C12.57497543 49.58228333 7.72171511 54.52617746 2.85571289 59.45825195 C1.04134083 61.30283919 -0.76761532 63.15276967 -2.57104492 65.00805664 C-5.16097782 67.67058452 -7.76964009 70.31342739 -10.3828125 72.953125 C-11.18820969 73.7894899 -11.99360687 74.6258548 -12.82341003 75.48756409 C-13.58382095 76.24842819 -14.34423187 77.0092923 -15.12768555 77.79321289 C-15.79164841 78.47049942 -16.45561127 79.14778595 -17.13969421 79.84559631 C-19.18359375 81.16796875 -19.18359375 81.16796875 -21.72297668 80.95433044 C-32.72028895 77.4398197 -41.86391078 72.47030312 -50.86645508 65.2565918 C-54.19471127 62.5916669 -57.04860417 60.47250657 -61.18359375 59.16796875 C-66.82135566 66.37106862 -72.29712129 73.66693784 -77.62109375 81.10546875 C-82.82433542 88.35973976 -88.19428186 95.44226249 -93.77587891 102.40869141 C-95.28632637 104.2963578 -96.78806594 106.19074921 -98.2890625 108.0859375 C-102.81495172 113.78852987 -107.34956377 119.44620188 -112.203125 124.875 C-116.28762844 129.60400103 -120.1707583 134.50335283 -124.09765625 139.36328125 C-126.76183951 142.65823688 -129.46201938 145.92029078 -132.18359375 149.16796875 C-145.98428259 143.95437519 -155.8522709 134.31548279 -166.18359375 124.16796875 C-167.09786133 123.27416504 -168.01212891 122.38036133 -168.95410156 121.45947266 C-171.39152693 119.07410124 -173.82070618 116.68059001 -176.24395752 114.28082275 C-177.67027395 112.86865641 -179.09952849 111.45945964 -180.52880859 110.05029297 C-181.3945752 109.18549316 -182.2603418 108.32069336 -183.15234375 107.4296875 C-183.93029297 106.65584717 -184.70824219 105.88200684 -185.50976562 105.0847168 C-187.18359375 103.16796875 -187.18359375 103.16796875 -187.18359375 101.16796875 C-194.09117374 106.6749961 -200.7030646 112.37631502 -207.1640625 118.39453125 C-209.38185286 120.45537604 -211.65378313 122.44021103 -213.94921875 124.4140625 C-218.75643738 128.60406503 -223.2493156 133.08715774 -227.74609375 137.60546875 C-228.55755859 138.41306641 -229.36902344 139.22066406 -230.20507812 140.05273438 C-234.52739163 144.38202498 -238.68122661 148.79141228 -242.67114258 153.4284668 C-245.96550264 157.21737971 -249.58022397 160.67741165 -253.18359375 164.16796875 C-253.97056641 164.99941406 -253.97056641 164.99941406 -254.7734375 165.84765625 C-257.54230845 168.56283718 -259.7811887 169.52419407 -263.55859375 169.73046875 C-268.48619821 169.47112115 -271.96084382 167.62484144 -276.18359375 165.16796875 C-275.64221204 151.09204429 -266.59960983 141.61379021 -257.18359375 132.16796875 C-255.75750097 130.71645184 -254.33173599 129.26461282 -252.90625 127.8125 C-250.03342881 124.90403043 -247.15756529 121.99883816 -244.26171875 119.11328125 C-243.37081543 118.22406982 -243.37081543 118.22406982 -242.46191406 117.31689453 C-240.49977512 115.46619297 -238.49820177 113.7032407 -236.45605469 111.94262695 C-232.02837496 108.08777997 -227.88108727 103.99258437 -223.74609375 99.828125 C-222.59778076 98.67768959 -222.59778076 98.67768959 -221.42626953 97.50401306 C-219.00966178 95.08185994 -216.59657649 92.65623263 -214.18359375 90.23046875 C-212.53408689 88.57593982 -210.88434946 86.92164073 -209.234375 85.26757812 C-205.21478004 81.23702673 -201.19806206 77.20362603 -197.18359375 73.16796875 C-180.12165826 78.66959637 -167.37790689 92.80048089 -154.99609375 105.16796875 C-154.47656128 105.68641357 -153.95702881 106.2048584 -153.42175293 106.73901367 C-151.928546 108.23257481 -150.43983321 109.73044096 -148.953125 111.23046875 C-147.64758667 112.54724609 -147.64758667 112.54724609 -146.31567383 113.890625 C-144.18359375 116.16796875 -144.18359375 116.16796875 -142.18359375 119.16796875 C-138.83399681 118.58168623 -137.16204554 117.538516 -134.75 115.16796875 C-134.10780518 114.53705322 -133.46561035 113.9061377 -132.80395508 113.25610352 C-132.12486084 112.56701904 -131.4457666 111.87793457 -130.74609375 111.16796875 C-130.03670654 110.4524585 -129.32731934 109.73694824 -128.59643555 108.99975586 C-122.0152442 102.22680056 -116.33980004 94.93876503 -110.7734375 87.32666016 C-108.06624683 83.650834 -105.27720735 80.03797963 -102.49609375 76.41796875 C-101.40986762 74.99891881 -100.32392375 73.57965275 -99.23828125 72.16015625 C-98.46242676 71.14646973 -98.46242676 71.14646973 -97.67089844 70.11230469 C-96.30140101 68.3219768 -94.93376317 66.53024401 -93.56640625 64.73828125 C-87.65455368 57.00407444 -81.6406374 49.35468529 -75.50537109 41.79638672 C-74.35851775 40.38347356 -73.2177661 38.96561188 -72.078125 37.546875 C-68.87146833 33.6889768 -66.13936393 30.67624663 -61.18359375 29.16796875 C-56.69566725 30.4806641 -53.06884728 33.13023275 -49.2734375 35.7734375 C-47.94106715 36.68339962 -46.6083752 37.592891 -45.27539062 38.50195312 C-43.18918736 39.93210523 -41.10588568 41.36602552 -39.02807617 42.80834961 C-37.01320624 44.20388018 -34.98811846 45.58337514 -32.9609375 46.9609375 C-32.03111305 47.61548164 -32.03111305 47.61548164 -31.08250427 48.2832489 C-27.85921421 50.48490479 -27.85921421 50.48490479 -24.11254883 51.26513672 C-21.14669961 49.57819502 -18.89828592 47.24794287 -16.54296875 44.8203125 C-16.01592346 44.28902237 -15.48887817 43.75773224 -14.94586182 43.21034241 C-13.26792188 41.5156405 -11.60072647 39.81079658 -9.93359375 38.10546875 C-8.7962663 36.9530913 -7.65825309 35.80139023 -6.51953125 34.65039062 C-3.73287383 31.83069691 -0.95580583 29.00186287 1.81640625 26.16796875 C-3.94682629 23.91422758 -9.71105908 22.09032948 -15.68359375 20.48046875 C-16.50601562 20.25552734 -17.3284375 20.03058594 -18.17578125 19.79882812 C-20.17747198 19.2518545 -22.18040463 18.70942906 -24.18359375 18.16796875 C-24.18359375 13.87796875 -24.18359375 9.58796875 -24.18359375 5.16796875 C-15.9564497 0.7707021 -9.24648239 0.01104765 0 0 Z " fill="#113981" transform="translate(356.18359375,83.83203125)"/>
<path d="M0 0 C50.64298303 -0.09156189 101.28595769 -0.16204197 151.92900722 -0.20426132 C157.9083194 -0.20926413 163.88763142 -0.21444142 169.86694336 -0.21972656 C171.05731324 -0.2207758 172.24768312 -0.22182505 173.47412481 -0.22290608 C192.74666757 -0.24030977 212.01916259 -0.2718473 231.29167704 -0.30861118 C251.06807419 -0.34602155 270.84444635 -0.36823606 290.62087744 -0.37635398 C302.82331038 -0.38184153 315.02560837 -0.39917162 327.22799977 -0.43166587 C335.59642535 -0.45281489 343.96478119 -0.45919914 352.33323155 -0.45400551 C357.16089707 -0.45144436 361.98832682 -0.45536167 366.81595039 -0.4768219 C371.23977858 -0.49634318 375.66321332 -0.49723393 380.08705994 -0.48359558 C381.68348452 -0.48191095 383.27993406 -0.48693783 384.87630985 -0.49953273 C395.08598728 -0.57536956 404.82703202 -0.31080665 413 6.5 C413.66 7.325 414.32 8.15 415 9 C415.51195262 9.60867416 416.02390524 10.21734833 416.55137157 10.84446716 C421.21462025 17.78329665 420.26231199 28.16489058 420.15112305 36.18359375 C420.143248 37.3584348 420.13537294 38.53327585 420.12725925 39.74371815 C420.10360959 42.96467968 420.07070617 46.18538532 420.0337019 49.40621591 C419.99618669 52.87269181 419.97085243 56.33925976 419.94403076 59.80583191 C419.89629193 65.76576142 419.84103833 71.72558168 419.78048706 77.68539429 C419.69350201 86.2487014 419.61808858 94.81207953 419.54564297 103.37552059 C419.43059074 116.9465475 419.30698528 130.51748035 419.17773438 144.08837891 C419.01392901 161.29876009 418.86440865 178.50923895 418.72047782 195.71979666 C418.66980736 201.77348658 418.6187198 207.827173 418.56762695 213.88085938 C418.55681249 215.1625746 418.54599802 216.44428982 418.53485584 217.76484489 C418.36486324 237.84330259 418.18281375 257.92165552 418 278 C417.18015625 278.03738281 416.3603125 278.07476562 415.515625 278.11328125 C413.89914062 278.21189453 413.89914062 278.21189453 412.25 278.3125 C411.18265625 278.37050781 410.1153125 278.42851562 409.015625 278.48828125 C405.58624242 278.83354132 405.58624242 278.83354132 402 282 C402 196.2 402 110.4 402 22 C356.13 22 310.26 22 263 22 C264 11 264 11 266 2 C178.22 1.67 90.44 1.34 0 1 C0 0.67 0 0.34 0 0 Z " fill="#11AFD6" transform="translate(42,19)"/>
<path d="M0 0 C1.46059593 -0.0049926 1.46059593 -0.0049926 2.95069885 -0.01008606 C5.00399302 -0.01513419 7.05729534 -0.01749504 9.1105957 -0.01733398 C12.23988425 -0.01952145 15.36882056 -0.03770245 18.49804688 -0.05664062 C20.49869672 -0.05957485 22.49934823 -0.06155945 24.5 -0.0625 C25.42936874 -0.06968552 26.35873749 -0.07687103 27.31626892 -0.08427429 C39.60708331 -0.04135419 39.60708331 -0.04135419 43.81640625 4.16796875 C44.05691528 6.72427368 44.05691528 6.72427368 44.04345703 9.99462891 C44.04330597 11.21574371 44.04315491 12.43685852 44.04299927 13.69497681 C44.03278528 15.03232993 44.02235327 16.3696814 44.01171875 17.70703125 C44.00798905 19.07180576 44.00514188 20.43658294 44.00314331 21.80136108 C43.99550339 25.39517598 43.97585197 28.98882948 43.95373535 32.58258057 C43.93328457 36.24904192 43.92414325 39.91552932 43.9140625 43.58203125 C43.89260628 50.77741737 43.85846617 57.97267045 43.81640625 65.16796875 C42.22337482 65.8451105 40.62620809 66.5125295 39.02734375 67.17578125 C38.13837402 67.54848145 37.2494043 67.92118164 36.33349609 68.30517578 C32.2990964 69.68806312 29.58966606 68.81346934 25.72924805 67.40820312 C23.81640625 66.16796875 23.81640625 66.16796875 23.01098633 64.04492188 C22.87072021 63.18833984 22.7304541 62.33175781 22.5859375 61.44921875 C22.42287109 60.51722656 22.25980469 59.58523437 22.09179688 58.625 C21.86266602 57.16126953 21.86266602 57.16126953 21.62890625 55.66796875 C21.30426922 53.74051598 20.97754775 51.81341277 20.6484375 49.88671875 C20.51155518 49.03013672 20.37467285 48.17355469 20.23364258 47.29101562 C19.90580913 45.12482476 19.90580913 45.12482476 18.81640625 43.16796875 C18.35144241 43.64625626 17.88647858 44.12454376 17.40742493 44.61732483 C12.57497543 49.58228333 7.72171511 54.52617746 2.85571289 59.45825195 C1.04134083 61.30283919 -0.76761532 63.15276967 -2.57104492 65.00805664 C-5.16097782 67.67058452 -7.76964009 70.31342739 -10.3828125 72.953125 C-11.18820969 73.7894899 -11.99360687 74.6258548 -12.82341003 75.48756409 C-13.58382095 76.24842819 -14.34423187 77.0092923 -15.12768555 77.79321289 C-15.79164841 78.47049942 -16.45561127 79.14778595 -17.13969421 79.84559631 C-19.18359375 81.16796875 -19.18359375 81.16796875 -21.72297668 80.95433044 C-33.558817 77.1718437 -43.06944066 71.54727058 -52.7578125 63.83984375 C-58.69722114 59.14566152 -58.69722114 59.14566152 -65.99609375 57.91796875 C-72.04289832 57.52814477 -75.17328183 54.45833039 -79.18359375 50.16796875 C-78.89484375 49.61109375 -78.60609375 49.05421875 -78.30859375 48.48046875 C-77.13863176 46.1787551 -77.13863176 46.1787551 -76.29296875 43.70703125 C-73.80571021 38.01436205 -69.05603127 33.45297489 -63.99609375 29.98046875 C-60.41404978 28.94565605 -59.5082326 29.55321148 -56.18359375 31.16796875 C-53.83905797 32.66393894 -51.55337198 34.18564224 -49.2734375 35.7734375 C-47.94106715 36.68339962 -46.6083752 37.592891 -45.27539062 38.50195312 C-43.18918736 39.93210523 -41.10588568 41.36602552 -39.02807617 42.80834961 C-37.01320624 44.20388018 -34.98811846 45.58337514 -32.9609375 46.9609375 C-32.34105453 47.39730026 -31.72117157 47.83366302 -31.08250427 48.2832489 C-27.85921421 50.48490479 -27.85921421 50.48490479 -24.11254883 51.26513672 C-21.14669961 49.57819502 -18.89828592 47.24794287 -16.54296875 44.8203125 C-15.75240082 44.0233773 -15.75240082 44.0233773 -14.94586182 43.21034241 C-13.26792188 41.5156405 -11.60072647 39.81079658 -9.93359375 38.10546875 C-8.7962663 36.9530913 -7.65825309 35.80139023 -6.51953125 34.65039062 C-3.73287383 31.83069691 -0.95580583 29.00186287 1.81640625 26.16796875 C-3.94682629 23.91422758 -9.71105908 22.09032948 -15.68359375 20.48046875 C-16.50601563 20.25552734 -17.3284375 20.03058594 -18.17578125 19.79882812 C-20.17747198 19.2518545 -22.18040463 18.70942906 -24.18359375 18.16796875 C-24.18359375 13.87796875 -24.18359375 9.58796875 -24.18359375 5.16796875 C-15.9564497 0.7707021 -9.24648239 0.01104765 0 0 Z " fill="#10B3D9" transform="translate(356.18359375,83.83203125)"/>
<path d="M0 0 C0.33 0 0.66 0 1 0 C1.06845597 31.83973059 1.12153841 63.67944021 1.15319599 95.51922721 C1.15694805 99.27925706 1.16083103 103.03928677 1.16479492 106.79931641 C1.16558185 107.54786223 1.16636878 108.29640805 1.16717956 109.06763709 C1.18022909 121.18375911 1.20388044 133.29983837 1.23145839 145.41593504 C1.2595252 157.85062746 1.27617896 170.2852975 1.28226548 182.72002029 C1.28637928 190.39127419 1.29936663 198.06240723 1.3237494 205.73362392 C1.34150027 211.61855279 1.34336239 217.50341982 1.33932304 223.38837624 C1.34014842 225.80063432 1.34611641 228.21289698 1.35761642 230.62512779 C1.37255362 233.91993093 1.36894872 237.21421799 1.36076355 240.5090332 C1.36950207 241.46235849 1.3782406 242.41568378 1.38724393 243.39789772 C1.34271529 250.0346179 0.43618986 255.66374 -3.5859375 261.171875 C-12.88940835 269.37843007 -25.34791995 271.17021168 -37.39208984 271.11352539 C-38.62235397 271.11374443 -38.62235397 271.11374443 -39.87747192 271.1139679 C-42.57198792 271.11327462 -45.26643367 271.10550972 -47.9609375 271.09765625 C-49.83566246 271.09578999 -51.7103879 271.09436707 -53.58511353 271.09336853 C-58.50715493 271.08955973 -63.42916659 271.07974346 -68.35119629 271.06866455 C-73.37865802 271.05841519 -78.40612457 271.05386337 -83.43359375 271.04882812 C-93.28907764 271.03811968 -103.14453169 271.02053617 -113 271 C-114.98 261.1 -114.98 261.1 -117 251 C-112.55573226 248.77786613 -109.01039765 248.57463852 -104.16796875 248.40625 C-103.2881987 248.36922974 -102.40842865 248.33220947 -101.5019989 248.29406738 C-92.09011889 247.91923853 -82.67307352 247.72782207 -73.25567627 247.55609131 C-70.24237302 247.49866351 -67.22937293 247.43255547 -64.21630859 247.36376953 C-55.72287965 247.17071381 -47.2340496 246.98466568 -38.73828125 246.9609375 C-36.53385174 246.93247928 -34.32942437 246.90385417 -32.125 246.875 C-30.70441284 246.89723633 -30.70441284 246.89723633 -29.25512695 246.91992188 C-22.99646369 246.79406104 -19.94174605 244.9831617 -15.49169922 240.59814453 C-14.99943848 240.07075684 -14.50717773 239.54336914 -14 239 C-13 238 -13 238 -10.27734375 237.90234375 C-8.62412109 237.91974609 -8.62412109 237.91974609 -6.9375 237.9375 C-5.83277344 237.94652344 -4.72804688 237.95554687 -3.58984375 237.96484375 C-2.30787109 237.98224609 -2.30787109 237.98224609 -1 238 C-1.00222061 236.83240646 -1.00444122 235.66481293 -1.00672913 234.46183777 C-1.0350094 219.03706712 -1.05210207 203.61229275 -1.0625 188.1875 C-1.06335602 186.92690639 -1.06421204 185.66631279 -1.06509399 184.36751938 C-1.09100024 141.01364083 -0.87827826 97.66464171 -0.5 54.3125 C-0.49402628 53.62651969 -0.48805257 52.94053939 -0.48189783 52.2337718 C-0.33010168 34.82243103 -0.16967285 17.41117599 0 0 Z " fill="#0D2D5F" transform="translate(461,59)"/>
<path d="M0 0 C1.1091275 -0.00412399 2.218255 -0.00824799 3.36099243 -0.01249695 C4.5679628 -0.00171112 5.77493317 0.00907471 7.01847839 0.02018738 C8.29692627 0.0197493 9.57537415 0.01931122 10.89256287 0.01885986 C14.39021629 0.01800036 17.88756005 0.03561854 21.38514161 0.05658174 C25.04331527 0.07535617 28.70149629 0.07709958 32.35971069 0.08065796 C39.28343413 0.08997619 46.20701518 0.1145869 53.13067597 0.14470643 C61.01453958 0.1782574 68.89841005 0.19473819 76.78232729 0.20979273 C92.99678844 0.24113671 109.21110645 0.29389281 125.42546082 0.36076355 C124.75690545 7.15774312 123.65576199 13.5941071 122.42546082 20.36076355 C79.85546082 20.36076355 37.28546082 20.36076355 -6.57453918 20.36076355 C-8.66286249 14.09579364 -9.9997528 9.68341381 -10.57453918 3.36076355 C-6.89048368 0.83100049 -4.4567937 -0.01281916 0 0 Z " fill="#0A2A59" transform="translate(182.5745391845703,20.639236450195313)"/>
<path d="M0 0 C0 2.33333333 0 4.66666667 0 7 C3.56876113 11.03833496 6.00368343 12.27842023 11.375 12.8125 C12.91564063 12.89657626 14.45743142 12.9664659 16 13 C14.46230014 17.86170974 11.64921711 21.15617642 8.4375 25 C4.55946275 29.73531808 0.87036822 34.4940442 -2.5625 39.5625 C-7.37618511 46.65316206 -12.6454858 53.31612569 -18 60 C-19.0641303 61.33567608 -20.12792529 62.67161935 -21.19140625 64.0078125 C-25.74218537 69.71715995 -30.30899533 75.40491079 -35 81 C-36.73030291 80.71515154 -38.45920714 80.42180062 -40.1875 80.125 C-41.15042969 79.96257812 -42.11335937 79.80015625 -43.10546875 79.6328125 C-45.91032604 79.01960483 -48.37224747 78.14333657 -51 77 C-49.25701434 71.13336534 -47.02658813 65.77966335 -44.18359375 60.359375 C-42.96348544 58.0375498 -42.96348544 58.0375498 -42.13061523 55.63500977 C-40.94711711 52.87675123 -39.563786 50.84765081 -37.7265625 48.48046875 C-37.07276611 47.63121826 -36.41896973 46.78196777 -35.74536133 45.90698242 C-34.69578247 44.56083862 -34.69578247 44.56083862 -33.625 43.1875 C-32.162158 41.29213146 -30.69992343 39.39629395 -29.23828125 37.5 C-28.51592285 36.56542969 -27.79356445 35.63085938 -27.04931641 34.66796875 C-24.26157709 31.03866029 -21.53687024 27.36442451 -18.8125 23.6875 C-12.78800265 15.59149761 -6.41858315 7.7851202 0 0 Z " fill="#0B2757" transform="translate(279,128)"/>
<path d="M0 0 C5.28 0 10.56 0 16 0 C16 6.93 16 13.86 16 21 C10.72 21 5.44 21 0 21 C0 14.07 0 7.14 0 0 Z " fill="#0A2555" transform="translate(232,309)"/>
<path d="M0 0 C2.31 0 4.62 0 7 0 C5.55049595 4.35647645 3.32252888 7.31757289 0.375 10.8125 C-0.85089844 12.27623047 -0.85089844 12.27623047 -2.1015625 13.76953125 C-3.04128906 14.87361328 -3.04128906 14.87361328 -4 16 C-5 14 -5 14 -4.2578125 11.50390625 C-3.69707031 10.04791016 -3.69707031 10.04791016 -3.125 8.5625 C-2.57199219 7.11037109 -2.57199219 7.11037109 -2.0078125 5.62890625 C-1.50894531 4.32759766 -1.50894531 4.32759766 -1 3 C-0.67 2.01 -0.34 1.02 0 0 Z " fill="#173D83" transform="translate(288,141)"/>
<path d="M0 0 C0 2.33333333 0 4.66666667 0 7 C1.41977909 9.22743787 1.41977909 9.22743787 3 11 C0.36 10.67 -2.28 10.34 -5 10 C-5 4.69520066 -3.4637943 3.81017373 0 0 Z " fill="#1C5292" transform="translate(279,128)"/>
<path d="M0 0 C0.66 0.33 1.32 0.66 2 1 C1.31292969 1.60328125 0.62585938 2.2065625 -0.08203125 2.828125 C-0.98308594 3.62734375 -1.88414062 4.4265625 -2.8125 5.25 C-3.70582031 6.03890625 -4.59914063 6.8278125 -5.51953125 7.640625 C-8.00569534 9.86949988 -8.00569534 9.86949988 -9.69921875 12.296875 C-10.12847656 12.85890625 -10.55773437 13.4209375 -11 14 C-11.66 14 -12.32 14 -13 14 C-11.58378621 10.87311213 -9.87668024 8.46099085 -7.625 5.875 C-7.03976562 5.19179687 -6.45453125 4.50859375 -5.8515625 3.8046875 C-3.9686585 1.96945195 -2.46424825 0.9025436 0 0 Z " fill="#254F90" transform="translate(293,114)"/>
</svg>
