<?xml version="1.0" encoding="UTF-8"?>
<svg version="1.1" xmlns="http://www.w3.org/2000/svg" width="150" height="150">
<path d="M0 0 C1.3122908 -0.01268921 1.3122908 -0.01268921 2.65109253 -0.02563477 C4.0865593 -0.01652573 4.0865593 -0.01652573 5.55102539 -0.00723267 C7.0660112 -0.0151181 7.0660112 -0.0151181 8.61160278 -0.02316284 C11.95745204 -0.0363903 15.30282736 -0.02761483 18.64868164 -0.01748657 C20.96891369 -0.01950651 23.28914513 -0.02241728 25.609375 -0.02618408 C30.47507769 -0.03061117 35.3406153 -0.02416388 40.20629883 -0.01016235 C46.45115803 0.00692957 52.69563046 -0.00290953 58.94047546 -0.02087975 C63.73249235 -0.0317071 68.52441715 -0.02827603 73.31643677 -0.02049637 C75.6193954 -0.01849147 77.92236233 -0.02096375 80.22531128 -0.02793503 C83.44087959 -0.03553212 86.65581673 -0.02396932 89.87133789 -0.00723267 C90.82831573 -0.01330536 91.78529358 -0.01937805 92.77127075 -0.02563477 C93.64613129 -0.01717529 94.52099182 -0.00871582 95.42236328 0 C96.56276817 0.00169662 96.56276817 0.00169662 97.72621155 0.00342751 C100.27609218 0.48839182 101.16200633 1.32712615 102.71118164 3.38095093 C103.10559082 6.41696167 103.10559082 6.41696167 103.13110352 10.1914978 C103.13957306 10.87962051 103.1480426 11.56774323 103.1567688 12.27671814 C103.18016763 14.55123371 103.18116046 16.82507411 103.17993164 19.09970093 C103.18703079 20.68006665 103.19472943 22.26042978 103.20300293 23.84078979 C103.21645379 27.15291511 103.21801356 30.46480203 103.2121582 33.77694702 C103.20625699 38.02449927 103.23686671 42.27091049 103.27727509 46.51824188 C103.30310381 49.78162819 103.30603405 53.04473784 103.30238342 56.30821228 C103.30407879 57.87435274 103.31376133 59.44050542 103.33152771 61.00654602 C103.35362816 63.19527981 103.34406586 65.38167932 103.32641602 67.57040405 C103.32847046 68.81600098 103.3305249 70.0615979 103.3326416 71.34494019 C102.71118164 74.38095093 102.71118164 74.38095093 100.4835968 76.2853241 C97.65606382 77.40273286 95.7586999 77.74544316 92.73730469 77.7215271 C91.29637703 77.72118721 91.29637703 77.72118721 89.82633972 77.72084045 C88.80220474 77.7053566 87.77806976 77.68987274 86.72290039 77.67391968 C85.66456497 77.66967484 84.60622955 77.66542999 83.51582336 77.66105652 C80.14318152 77.64429455 76.77114219 77.60664604 73.39868164 77.56845093 C71.10897674 77.55340092 68.81926246 77.53971307 66.52954102 77.5274353 C60.92318988 77.494399 55.31728784 77.44263296 49.71118164 77.38095093 C49.71118164 81.67095093 49.71118164 85.96095093 49.71118164 90.38095093 C51.36118164 91.04095093 53.01118164 91.70095093 54.71118164 92.38095093 C57.36900772 95.13369937 58.52864632 97.54770923 58.71118164 101.38095093 C57.171724 105.43215524 55.67901788 108.45065222 51.71118164 110.38095093 C46.92336064 110.91293104 44.84715619 111.10604107 40.77368164 108.50595093 C37.61600146 105.25258347 37.36828403 102.95683424 37.42602539 98.42001343 C37.87932275 95.1786268 39.34706722 93.54805581 41.71118164 91.38095093 C43.69118164 90.88595093 43.69118164 90.88595093 45.71118164 90.38095093 C45.71118164 86.09095093 45.71118164 81.80095093 45.71118164 77.38095093 C43.56150879 77.39666138 43.56150879 77.39666138 41.3684082 77.41268921 C36.05332943 77.44887885 30.73826156 77.47184773 25.4230957 77.49081421 C23.12229583 77.50087412 20.82150874 77.51452355 18.52075195 77.53182983 C15.21440474 77.55607828 11.90822652 77.56743416 8.60180664 77.57626343 C7.05786224 77.59174728 7.05786224 77.59174728 5.48272705 77.60754395 C4.52203308 77.60769501 3.56133911 77.60784607 2.5715332 77.60800171 C1.30578461 77.61466354 1.30578461 77.61466354 0.01446533 77.62145996 C-2.53326689 77.3554256 -4.12991548 76.74450994 -6.28881836 75.38095093 C-7.73021432 72.498159 -7.4320695 69.99707851 -7.44995117 66.77572632 C-7.45491608 66.0975032 -7.45988098 65.41928009 -7.46499634 64.72050476 C-7.47962139 62.47319532 -7.48641997 60.22595642 -7.49194336 57.97860718 C-7.49769389 56.4192352 -7.50345163 54.85986326 -7.50921631 53.30049133 C-7.51972683 50.02953766 -7.52556937 46.75860857 -7.52905273 43.48764038 C-7.53454209 39.29305864 -7.55857904 35.09880077 -7.58702469 30.90432072 C-7.60563186 27.68301945 -7.6108556 24.46179656 -7.61238861 21.24044609 C-7.61541929 19.69385441 -7.62346182 18.14726424 -7.63657379 16.60072517 C-7.65359722 14.4387546 -7.65176384 12.27758015 -7.64526367 10.11557007 C-7.6489093 8.88472183 -7.65255493 7.6538736 -7.65631104 6.38572693 C-7.28881836 3.38095093 -7.28881836 3.38095093 -6.03390121 1.71696186 C-3.85752957 0.05076228 -2.72124146 0.00404847 0 0 Z M-2.28881836 5.38095093 C-3.67013121 8.14357662 -3.41603527 10.37558495 -3.41821289 13.46713257 C-3.42136505 14.74508194 -3.42451721 16.02303131 -3.42776489 17.33970642 C-3.42597525 18.74017369 -3.42392433 20.14064064 -3.42163086 21.54110718 C-3.42230415 22.97074907 -3.42327438 24.40039085 -3.42453003 25.83003235 C-3.42600536 28.82691538 -3.42385742 31.82376862 -3.41918945 34.82064819 C-3.4134871 38.67004035 -3.4167754 42.51936287 -3.42276192 46.36875248 C-3.42636759 49.3206078 -3.42522901 52.27244648 -3.42263412 55.22430229 C-3.42196514 56.64413905 -3.42279229 58.06397731 -3.42511368 59.48381233 C-3.42764082 61.46392922 -3.42310907 63.44405137 -3.41821289 65.42416382 C-3.4174173 66.55286392 -3.4166217 67.68156403 -3.415802 68.84446716 C-3.57633503 71.31705653 -3.57633503 71.31705653 -2.28881836 72.38095093 C0.81088928 72.48162126 3.88835835 72.51709393 6.98852539 72.51034546 C7.96242218 72.51209778 8.93631897 72.5138501 9.93972778 72.51565552 C13.17606358 72.52007592 16.41234524 72.51713538 19.64868164 72.51376343 C21.88688162 72.51443641 24.12508152 72.51540639 26.36328125 72.5166626 C31.06096083 72.51813983 35.75862144 72.51598421 40.45629883 72.51132202 C46.49278778 72.50562473 52.52923228 72.5089036 58.5657196 72.51489449 C63.18949725 72.51849943 67.81326428 72.51736182 72.43704224 72.51476669 C74.66350306 72.51409724 76.88996484 72.51492649 79.11642456 72.51724625 C82.22225519 72.51977167 85.32801274 72.51593373 88.43383789 72.51034546 C89.82869919 72.51338181 89.82869919 72.51338181 91.2517395 72.51647949 C95.3026997 72.91479321 95.3026997 72.91479321 98.71118164 71.38095093 C98.80531851 69.32538431 98.82861162 67.26654912 98.82470703 65.20883179 C98.82488783 64.2273446 98.82488783 64.2273446 98.82507229 63.2260294 C98.82432343 61.0992504 98.81669645 58.97255808 98.80883789 56.84579468 C98.80783081 55.54936035 98.80682373 54.25292603 98.80578613 52.91720581 C98.80053421 48.05094525 98.78657311 43.18469725 98.77368164 38.31845093 C98.74274414 22.01438843 98.74274414 22.01438843 98.71118164 5.38095093 C65.38118164 5.38095093 32.05118164 5.38095093 -2.28881836 5.38095093 Z M42.71118164 96.38095093 C41.62313018 98.73757353 41.62313018 98.73757353 41.71118164 101.38095093 C42.63262084 103.80399461 42.63262084 103.80399461 44.71118164 105.38095093 C47.83741419 105.69995425 49.88234417 105.79536966 52.71118164 104.38095093 C53.72488291 101.55132763 53.72488291 101.55132763 53.71118164 98.38095093 C52.08538082 95.92142869 52.08538082 95.92142869 49.71118164 94.38095093 C46.5423747 94.38095093 45.27428992 94.58677513 42.71118164 96.38095093 Z " fill="#0E357B" transform="translate(27.288818359375,18.619049072265625)"/>
<path d="M0 0 C1.01015167 -0.00065712 1.01015167 -0.00065712 2.04071045 -0.00132751 C4.26482215 0.00076117 6.48817834 0.02409467 8.7121582 0.04760742 C10.25486336 0.05320313 11.79757386 0.05747335 13.34028625 0.06047058 C17.39941137 0.07192146 21.45821411 0.10139048 25.51721191 0.13458252 C29.65962361 0.16527831 33.80208742 0.17897485 37.94458008 0.1940918 C46.07168109 0.22626018 54.19852016 0.27745919 62.32543945 0.34057617 C61.99543945 1.99057617 61.66543945 3.64057617 61.32543945 5.34057617 C39.54543945 5.67057617 17.76543945 6.00057617 -4.67456055 6.34057617 C-4.67456055 27.79057617 -4.67456055 49.24057617 -4.67456055 71.34057617 C11.16543945 71.67057617 27.00543945 72.00057617 43.32543945 72.34057617 C43.32543945 73.99057617 43.32543945 75.64057617 43.32543945 77.34057617 C36.56277669 77.39127028 29.8001629 77.42630725 23.03735352 77.45043945 C20.73655364 77.46049937 18.43576655 77.47414879 16.13500977 77.49145508 C12.82866255 77.51570353 9.52248433 77.5270594 6.21606445 77.53588867 C4.67212006 77.55137253 4.67212006 77.55137253 3.09698486 77.56716919 C2.13629089 77.56732025 1.17559692 77.56747131 0.18579102 77.56762695 C-1.07995758 77.57428879 -1.07995758 77.57428879 -2.37127686 77.58108521 C-4.91900908 77.31505084 -6.51565767 76.70413519 -8.67456055 75.34057617 C-10.11595651 72.45778425 -9.81781168 69.95670375 -9.83569336 66.73535156 C-9.84065826 66.05712845 -9.84562317 65.37890533 -9.85073853 64.68013 C-9.86536358 62.43282056 -9.87216216 60.18558167 -9.87768555 57.93823242 C-9.88343607 56.37886045 -9.88919382 54.8194885 -9.8949585 53.26011658 C-9.90546901 49.9891629 -9.91131155 46.71823382 -9.91479492 43.44726562 C-9.92028428 39.25268389 -9.94432123 35.05842601 -9.97276688 30.86394596 C-9.99137405 27.6426447 -9.99659779 24.42142181 -9.9981308 21.20007133 C-10.00116148 19.65347965 -10.009204 18.10688949 -10.02231598 16.56035042 C-10.03933941 14.39837985 -10.03750603 12.2372054 -10.03100586 10.07519531 C-10.03465149 8.84434708 -10.03829712 7.61349884 -10.04205322 6.34535217 C-9.67456055 3.34057617 -9.67456055 3.34057617 -8.56944275 1.44094849 C-5.70085038 -0.22486463 -3.29974571 -0.0180314 0 0 Z " fill="#0F377F" transform="translate(29.674560546875,18.659423828125)"/>
<path d="M0 0 C1.26972656 -0.00257812 2.53945312 -0.00515625 3.84765625 -0.0078125 C6.9375 0.125 6.9375 0.125 7.9375 1.125 C8.01063567 3.65549402 8.02997527 6.15804837 8 8.6875 C7.99548828 9.39841797 7.99097656 10.10933594 7.98632812 10.84179688 C7.97450864 12.60290013 7.95657263 14.36396036 7.9375 16.125 C6.4525 16.62 6.4525 16.62 4.9375 17.125 C4.2775 16.795 3.6175 16.465 2.9375 16.125 C2.4425 13.155 2.4425 13.155 1.9375 10.125 C-1.3625 13.425 -4.6625 16.725 -8.0625 20.125 C-12.32761313 18.41895475 -14.67668999 17.02712286 -18.0625 14.125 C-18.6915625 14.94742188 -19.320625 15.76984375 -19.96875 16.6171875 C-25.25581964 23.51692746 -30.59851174 30.3636961 -36.0625 37.125 C-39.96535767 35.53832422 -42.39770982 32.99149519 -45.3125 30 C-46.20453125 29.08992188 -47.0965625 28.17984375 -48.015625 27.2421875 C-48.69109375 26.54351562 -49.3665625 25.84484375 -50.0625 25.125 C-53.49343079 27.94598754 -56.77710873 30.7856787 -59.8359375 34.0078125 C-60.31699951 34.51014404 -60.79806152 35.01247559 -61.29370117 35.5300293 C-62.25790645 36.54466744 -63.21145632 37.56954811 -64.15356445 38.60473633 C-65.51171875 40.02734375 -65.51171875 40.02734375 -68.0625 42.125 C-70.39453125 41.94140625 -70.39453125 41.94140625 -72.0625 41.125 C-71.51884458 37.14083909 -69.62784815 35.34136772 -66.80859375 32.578125 C-65.95458984 31.73378906 -65.10058594 30.88945313 -64.22070312 30.01953125 C-63.32287109 29.14683594 -62.42503906 28.27414063 -61.5 27.375 C-60.59830078 26.48683594 -59.69660156 25.59867188 -58.76757812 24.68359375 C-56.53912902 22.49051685 -54.30398407 20.30473956 -52.0625 18.125 C-48.21222009 19.90700687 -45.7825858 22.20175405 -42.8125 25.25 C-41.92046875 26.16007812 -41.0284375 27.07015625 -40.109375 28.0078125 C-39.43390625 28.70648438 -38.7584375 29.40515625 -38.0625 30.125 C-33.59813849 25.93704361 -30.02471288 21.27710586 -26.375 16.375 C-25.2288916 14.83583112 -24.07932078 13.29923247 -22.92578125 11.765625 C-22.42344971 11.09047852 -21.92111816 10.41533203 -21.40356445 9.71972656 C-20.0625 8.125 -20.0625 8.125 -18.0625 7.125 C-13.6075 10.095 -13.6075 10.095 -9.0625 13.125 C-6.7525 10.815 -4.4425 8.505 -2.0625 6.125 C-4.3725 5.465 -6.6825 4.805 -9.0625 4.125 C-9.0625 3.135 -9.0625 2.145 -9.0625 1.125 C-6.07566593 -0.36841703 -3.31850226 -0.00675178 0 0 Z " fill="#0F3780" transform="translate(107.0625,34.875)"/>
<path d="M0 0 C4.92957259 -0.07414321 9.85882081 -0.12859817 14.78881836 -0.16479492 C16.4659592 -0.17988384 18.14306057 -0.20035748 19.82006836 -0.22631836 C22.23040504 -0.26269811 24.64022019 -0.27972486 27.05078125 -0.29296875 C27.80087967 -0.30845261 28.55097809 -0.32393646 29.32380676 -0.33988953 C34.48193684 -0.34155804 34.48193684 -0.34155804 36.70080566 1.12133789 C38.61323036 3.88674389 38.35966155 6.05922835 38.34057617 9.39916992 C38.34123329 10.36543053 38.34123329 10.36543053 38.34190369 11.35121155 C38.33981559 13.47794021 38.31648513 15.60387802 38.29296875 17.73046875 C38.28737283 19.20591298 38.28310271 20.68136278 38.28010559 22.15681458 C38.26865637 26.03839534 38.23918887 29.91963883 38.20599365 33.80108643 C38.17529424 37.76252683 38.16160055 41.72402178 38.14648438 45.68554688 C38.11431894 53.45718494 38.06312205 61.22854519 38 69 C36.02 69.495 36.02 69.495 34 70 C34 48.55 34 27.1 34 5 C22.45 5 10.9 5 -1 5 C-0.67 3.35 -0.34 1.7 0 0 Z " fill="#0DB3D9" transform="translate(92,19)"/>
<path d="M0 0 C1.26972656 -0.00257812 2.53945312 -0.00515625 3.84765625 -0.0078125 C6.9375 0.125 6.9375 0.125 7.9375 1.125 C8.01063567 3.65549402 8.02997527 6.15804837 8 8.6875 C7.99548828 9.39841797 7.99097656 10.10933594 7.98632812 10.84179688 C7.97450864 12.60290013 7.95657263 14.36396036 7.9375 16.125 C6.9475 16.455 5.9575 16.785 4.9375 17.125 C4.2775 16.795 3.6175 16.465 2.9375 16.125 C2.6075 14.145 2.2775 12.165 1.9375 10.125 C-1.3625 13.425 -4.6625 16.725 -8.0625 20.125 C-13.0625 18.125 -13.0625 18.125 -15.6875 16 C-17.95061978 13.81517786 -17.95061978 13.81517786 -21.0625 14.125 C-21.7225 13.465 -22.3825 12.805 -23.0625 12.125 C-21.4125 10.475 -19.7625 8.825 -18.0625 7.125 C-15.0925 9.105 -12.1225 11.085 -9.0625 13.125 C-6.7525 10.815 -4.4425 8.505 -2.0625 6.125 C-4.3725 5.465 -6.6825 4.805 -9.0625 4.125 C-9.0625 3.135 -9.0625 2.145 -9.0625 1.125 C-6.07566593 -0.36841703 -3.31850226 -0.00675178 0 0 Z " fill="#0EB4DA" transform="translate(107.0625,34.875)"/>
<path d="M0 0 C1.39120471 0.00015906 2.78241534 0.00585033 4.17358398 0.01586914 C4.90463852 0.01728409 5.63569305 0.01869904 6.38890076 0.02015686 C8.73253406 0.02577131 11.07607313 0.03832617 13.41967773 0.05102539 C15.00496282 0.05603853 16.59024939 0.06060176 18.17553711 0.06469727 C22.06945383 0.07574542 25.96329979 0.09301967 29.85717773 0.11352539 C29.52717773 1.76352539 29.19717773 3.41352539 28.85717773 5.11352539 C18.29717773 5.11352539 7.73717773 5.11352539 -3.14282227 5.11352539 C-3.47282227 3.79352539 -3.80282227 2.47352539 -4.14282227 1.11352539 C-3.14282227 0.11352539 -3.14282227 0.11352539 0 0 Z " fill="#0A2A59" transform="translate(62.142822265625,18.886474609375)"/>
<path d="M0 0 C0.99 0 1.98 0 3 0 C3.3125 2.3125 3.3125 2.3125 3 5 C-0.54488581 7.68921 -3.11814808 8.36673495 -7.51953125 8.29296875 C-8.54111328 8.28330078 -9.56269531 8.27363281 -10.61523438 8.26367188 C-11.67033203 8.23853516 -12.72542969 8.21339844 -13.8125 8.1875 C-15.42415039 8.16719727 -15.42415039 8.16719727 -17.06835938 8.14648438 C-19.71275455 8.11122577 -22.35611748 8.06194366 -25 8 C-25.66 6.68 -26.32 5.36 -27 4 C-25.29461738 2.29461738 -23.05448497 2.81040891 -20.72265625 2.75390625 C-19.65208984 2.72103516 -18.58152344 2.68816406 -17.47851562 2.65429688 C-15.20517703 2.59320659 -12.9317335 2.53590136 -10.65820312 2.48242188 C-9.05041992 2.43118164 -9.05041992 2.43118164 -7.41015625 2.37890625 C-6.42152588 2.3538501 -5.43289551 2.32879395 -4.41430664 2.30297852 C-1.81902462 2.2280629 -1.81902462 2.2280629 0 0 Z " fill="#0A2656" transform="translate(127,88)"/>
<path d="M0 0 C7.92 0 15.84 0 24 0 C24.33 1.65 24.66 3.3 25 5 C16.75 5 8.5 5 0 5 C0 3.35 0 1.7 0 0 Z " fill="#0F3780" transform="translate(77,91)"/>
<path d="M0 0 C3.90181526 1.2654536 5.94481034 2.40341809 8 6 C9.25221197 9.39886107 9.11604786 10.69461089 7.8125 14.125 C6.06204196 16.90158862 4.88496365 18.46736306 2 20 C1.01 19.67 0.02 19.34 -1 19 C-1.6875 16.9375 -1.6875 16.9375 -2 15 C-0.35 14.67 1.3 14.34 3 14 C3.25048636 11.12549017 3.25048636 11.12549017 3 8 C2.0206121 6.97980427 1.02104551 5.97850195 0 5 C-0.1875 2.3125 -0.1875 2.3125 0 0 Z " fill="#0EB5DB" transform="translate(77,109)"/>
<path d="M0 0 C1.32 0.33 2.64 0.66 4 1 C3.12429445 5.40785758 0.68803513 8.30710183 -2.0625 11.75 C-2.53494141 12.35199219 -3.00738281 12.95398438 -3.49414062 13.57421875 C-4.65690401 15.05409943 -5.8276766 16.52768096 -7 18 C-8.32 17.67 -9.64 17.34 -11 17 C-9.52869627 12.6426774 -7.16919385 9.28065866 -4.375 5.6875 C-3.95476562 5.13771484 -3.53453125 4.58792969 -3.1015625 4.02148438 C-2.07279961 2.67707832 -1.0370991 1.33798587 0 0 Z " fill="#0A2656" transform="translate(83,48)"/>
<path d="M0 0 C1.32 0 2.64 0 4 0 C4 7.26 4 14.52 4 22 C2.68 22.33 1.36 22.66 0 23 C0 15.41 0 7.82 0 0 Z " fill="#0A2555" transform="translate(73,91)"/>
</svg>
